%TF.GenerationSoftware,KiCad,Pcbnew,9.0.6*%
%TF.CreationDate,2025-11-26T00:28:20+08:00*%
%TF.ProjectId,gerber,67657262-6572-42e6-9b69-6361645f7063,rev?*%
%TF.SameCoordinates,Original*%
%TF.FileFunction,Copper,L1,Top*%
%TF.FilePolarity,Positive*%
%FSLAX46Y46*%
G04 Gerber Fmt 4.6, Leading zero omitted, Abs format (unit mm)*
G04 Created by KiCad (PCBNEW 9.0.6) date 2025-11-26 00:28:20*
%MOMM*%
%LPD*%
G01*
G04 APERTURE LIST*
G04 Aperture macros list*
%AMRoundRect*
0 Rectangle with rounded corners*
0 $1 Rounding radius*
0 $2 $3 $4 $5 $6 $7 $8 $9 X,Y pos of 4 corners*
0 Add a 4 corners polygon primitive as box body*
4,1,4,$2,$3,$4,$5,$6,$7,$8,$9,$2,$3,0*
0 Add four circle primitives for the rounded corners*
1,1,$1+$1,$2,$3*
1,1,$1+$1,$4,$5*
1,1,$1+$1,$6,$7*
1,1,$1+$1,$8,$9*
0 Add four rect primitives between the rounded corners*
20,1,$1+$1,$2,$3,$4,$5,0*
20,1,$1+$1,$4,$5,$6,$7,0*
20,1,$1+$1,$6,$7,$8,$9,0*
20,1,$1+$1,$8,$9,$2,$3,0*%
G04 Aperture macros list end*
%TA.AperFunction,ComponentPad*%
%ADD10R,1.700000X1.700000*%
%TD*%
%TA.AperFunction,ComponentPad*%
%ADD11C,1.700000*%
%TD*%
%TA.AperFunction,SMDPad,CuDef*%
%ADD12RoundRect,0.162500X-0.650000X-0.162500X0.650000X-0.162500X0.650000X0.162500X-0.650000X0.162500X0*%
%TD*%
%TA.AperFunction,SMDPad,CuDef*%
%ADD13RoundRect,0.250000X1.100000X-0.325000X1.100000X0.325000X-1.100000X0.325000X-1.100000X-0.325000X0*%
%TD*%
%TA.AperFunction,SMDPad,CuDef*%
%ADD14RoundRect,0.075000X0.425000X-0.075000X0.425000X0.075000X-0.425000X0.075000X-0.425000X-0.075000X0*%
%TD*%
%TA.AperFunction,HeatsinkPad*%
%ADD15C,1.100000*%
%TD*%
%TA.AperFunction,SMDPad,CuDef*%
%ADD16RoundRect,0.250000X0.268542X-1.115128X0.831458X-0.790128X-0.268542X1.115128X-0.831458X0.790128X0*%
%TD*%
%TA.AperFunction,SMDPad,CuDef*%
%ADD17RoundRect,0.075000X0.247487X-0.353553X0.353553X-0.247487X-0.247487X0.353553X-0.353553X0.247487X0*%
%TD*%
%TA.AperFunction,SMDPad,CuDef*%
%ADD18RoundRect,0.075000X-0.277452X-0.330561X-0.147548X-0.405561X0.277452X0.330561X0.147548X0.405561X0*%
%TD*%
%TA.AperFunction,SMDPad,CuDef*%
%ADD19RoundRect,0.140000X0.170000X-0.140000X0.170000X0.140000X-0.170000X0.140000X-0.170000X-0.140000X0*%
%TD*%
%TA.AperFunction,ComponentPad*%
%ADD20C,6.400000*%
%TD*%
%TA.AperFunction,ViaPad*%
%ADD21C,0.600000*%
%TD*%
%TA.AperFunction,Conductor*%
%ADD22C,0.200000*%
%TD*%
G04 APERTURE END LIST*
D10*
%TO.P,J2,1,Pin_1*%
%TO.N,unconnected-(J2-Pin_1-Pad1)*%
X146289340Y-106736194D03*
D11*
%TO.P,J2,2,Pin_2*%
%TO.N,Net-(J2-Pin_2)*%
X146289340Y-109276194D03*
%TO.P,J2,3,Pin_3*%
%TO.N,Net-(J2-Pin_3)*%
X146289340Y-111816194D03*
%TO.P,J2,4,Pin_4*%
%TO.N,GND*%
X146289340Y-114356194D03*
%TD*%
D12*
%TO.P,U1,1,~{CS}*%
%TO.N,unconnected-(U1-~{CS}-Pad1)*%
X121824340Y-110436194D03*
%TO.P,U1,2,DO/IO_{1}*%
%TO.N,Net-(U1-DI{slash}IO_{0})*%
X121824340Y-111706194D03*
%TO.P,U1,3,~{WP}/IO_{2}*%
X121824340Y-112976194D03*
%TO.P,U1,4,GND*%
%TO.N,GND*%
X121824340Y-114246194D03*
%TO.P,U1,5,DI/IO_{0}*%
%TO.N,Net-(U1-DI{slash}IO_{0})*%
X128999340Y-114246194D03*
%TO.P,U1,6,CLK*%
%TO.N,unconnected-(U1-CLK-Pad6)*%
X128999340Y-112976194D03*
%TO.P,U1,7,~{HOLD}/~{RESET}/IO_{3}*%
%TO.N,unconnected-(U1-~{HOLD}{slash}~{RESET}{slash}IO_{3}-Pad7)*%
X128999340Y-111706194D03*
%TO.P,U1,8,VCC*%
%TO.N,/V*%
X128999340Y-110436194D03*
%TD*%
D13*
%TO.P,C2,1*%
%TO.N,/V*%
X125479340Y-107196194D03*
%TO.P,C2,2*%
%TO.N,GND*%
X125479340Y-104246194D03*
%TD*%
D14*
%TO.P,J1,A1,GND*%
%TO.N,GND*%
X135499340Y-112676194D03*
%TO.P,J1,A4,VBUS*%
%TO.N,/V*%
X135499340Y-111886194D03*
%TO.P,J1,A5,CC1*%
%TO.N,unconnected-(J1-CC1-PadA5)*%
X135499340Y-111096194D03*
%TO.P,J1,A6,D+*%
%TO.N,Net-(J2-Pin_3)*%
X135499340Y-110306194D03*
%TO.P,J1,A7,D-*%
%TO.N,Net-(J2-Pin_2)*%
X135499340Y-109516194D03*
%TO.P,J1,A8,SBU1*%
%TO.N,unconnected-(J1-SBU1-PadA8)*%
X135499340Y-108726194D03*
%TO.P,J1,A9,VBUS*%
%TO.N,/V*%
X135499340Y-107936194D03*
%TO.P,J1,A12,GND*%
%TO.N,GND*%
X135499340Y-107146194D03*
%TO.P,J1,B1,GND*%
X137019340Y-107146194D03*
%TO.P,J1,B4,VBUS*%
%TO.N,/V*%
X137019340Y-107936194D03*
%TO.P,J1,B5,CC2*%
%TO.N,unconnected-(J1-CC2-PadB5)*%
X137019340Y-108726194D03*
%TO.P,J1,B6,D+*%
%TO.N,unconnected-(J1-D+-PadB6)*%
X137019340Y-109516194D03*
%TO.P,J1,B7,D-*%
%TO.N,unconnected-(J1-D--PadB7)*%
X137019340Y-110306194D03*
%TO.P,J1,B8,SBU2*%
%TO.N,unconnected-(J1-SBU2-PadB8)*%
X137019340Y-111096194D03*
%TO.P,J1,B9,VBUS*%
%TO.N,/V*%
X137019340Y-111886194D03*
%TO.P,J1,B12,GND*%
%TO.N,GND*%
X137019340Y-112676194D03*
D15*
%TO.P,J1,S1,SHIELD*%
X134109340Y-112296194D03*
X138409340Y-112296194D03*
X134109340Y-107496194D03*
X138409340Y-107496194D03*
%TD*%
D16*
%TO.P,C3,1*%
%TO.N,/V*%
X129030000Y-103900000D03*
%TO.P,C3,2*%
%TO.N,GND*%
X131584774Y-102425000D03*
%TD*%
D17*
%TO.P,J3,A1,GND*%
%TO.N,GND*%
X112425192Y-108680006D03*
%TO.P,J3,A4,VBUS*%
%TO.N,/V*%
X112983806Y-108121391D03*
%TO.P,J3,A5,CC1*%
%TO.N,unconnected-(J3-CC1-PadA5)*%
X113542421Y-107562777D03*
%TO.P,J3,A6,D+*%
%TO.N,unconnected-(J3-D+-PadA6)*%
X114101035Y-107004163D03*
%TO.P,J3,A7,D-*%
%TO.N,unconnected-(J3-D--PadA7)*%
X114659649Y-106445548D03*
%TO.P,J3,A8,SBU1*%
%TO.N,unconnected-(J3-SBU1-PadA8)*%
X115218264Y-105886934D03*
%TO.P,J3,A9,VBUS*%
%TO.N,/V*%
X115776878Y-105328320D03*
%TO.P,J3,A12,GND*%
%TO.N,GND*%
X116335492Y-104769705D03*
%TO.P,J3,B1,GND*%
X117410295Y-105844508D03*
%TO.P,J3,B4,VBUS*%
%TO.N,/V*%
X116851680Y-106403122D03*
%TO.P,J3,B5,CC2*%
%TO.N,unconnected-(J3-CC2-PadB5)*%
X116293066Y-106961736D03*
%TO.P,J3,B6,D+*%
%TO.N,unconnected-(J3-D+-PadB6)*%
X115734452Y-107520351D03*
%TO.P,J3,B7,D-*%
%TO.N,unconnected-(J3-D--PadB7)*%
X115175837Y-108078965D03*
%TO.P,J3,B8,SBU2*%
%TO.N,unconnected-(J3-SBU2-PadB8)*%
X114617223Y-108637579D03*
%TO.P,J3,B9,VBUS*%
%TO.N,/V*%
X114058609Y-109196194D03*
%TO.P,J3,B12,GND*%
%TO.N,GND*%
X113499994Y-109754808D03*
D15*
%TO.P,J3,S1,SHIELD*%
X111711014Y-107428427D03*
X114751573Y-110468986D03*
X115105127Y-104034314D03*
X118145686Y-107074873D03*
%TD*%
D18*
%TO.P,J4,A1,GND*%
%TO.N,GND*%
X109459226Y-116669157D03*
%TO.P,J4,A4,VBUS*%
%TO.N,/V*%
X110143387Y-117064156D03*
%TO.P,J4,A5,CC1*%
%TO.N,unconnected-(J4-CC1-PadA5)*%
X110827547Y-117459157D03*
%TO.P,J4,A6,D+*%
%TO.N,unconnected-(J4-D+-PadA6)*%
X111511706Y-117854158D03*
%TO.P,J4,A7,D-*%
%TO.N,unconnected-(J4-D--PadA7)*%
X112195867Y-118249156D03*
%TO.P,J4,A8,SBU1*%
%TO.N,unconnected-(J4-SBU1-PadA8)*%
X112880027Y-118644157D03*
%TO.P,J4,A9,VBUS*%
%TO.N,/V*%
X113564185Y-119039157D03*
%TO.P,J4,A12,GND*%
%TO.N,GND*%
X114248347Y-119434156D03*
%TO.P,J4,B1,GND*%
X113488346Y-120750516D03*
%TO.P,J4,B4,VBUS*%
%TO.N,/V*%
X112804187Y-120355515D03*
%TO.P,J4,B5,CC2*%
%TO.N,unconnected-(J4-CC2-PadB5)*%
X112120027Y-119960515D03*
%TO.P,J4,B6,D+*%
%TO.N,unconnected-(J4-D+-PadB6)*%
X111435866Y-119565516D03*
%TO.P,J4,B7,D-*%
%TO.N,unconnected-(J4-D--PadB7)*%
X110751706Y-119170515D03*
%TO.P,J4,B8,SBU2*%
%TO.N,unconnected-(J4-SBU2-PadB8)*%
X110067547Y-118775514D03*
%TO.P,J4,B9,VBUS*%
%TO.N,/V*%
X109383386Y-118380516D03*
%TO.P,J4,B12,GND*%
%TO.N,GND*%
X108699226Y-117985515D03*
D15*
%TO.P,J4,S1,SHIELD*%
X110483316Y-115655381D03*
X108333317Y-119379290D03*
X114640237Y-118055382D03*
X112490238Y-121779291D03*
%TD*%
D19*
%TO.P,C1,1*%
%TO.N,/V*%
X129429340Y-107236194D03*
%TO.P,C1,2*%
%TO.N,GND*%
X129429340Y-106276194D03*
%TD*%
D20*
%TO.P,H2,1,1*%
%TO.N,unconnected-(H2-Pad1)*%
X105000000Y-105000000D03*
%TD*%
D21*
%TO.N,*%
X149010000Y-126390000D03*
%TO.N,GND*%
X148980000Y-123810000D03*
%TD*%
D22*
%TO.N,Net-(J2-Pin_2)*%
X134698340Y-108959018D02*
X135255516Y-109516194D01*
X146289340Y-109276194D02*
X147440340Y-108125194D01*
X135597164Y-104804874D02*
X133258340Y-107143698D01*
X144538699Y-103926194D02*
X137718485Y-103926194D01*
X147440340Y-105585194D02*
X146660019Y-104804873D01*
X133258340Y-107143698D02*
X133258340Y-107848690D01*
X134368668Y-108959018D02*
X134698340Y-108959018D01*
X133258340Y-107848690D02*
X134368668Y-108959018D01*
X147440340Y-108125194D02*
X147440340Y-105585194D01*
X135255516Y-109516194D02*
X135499340Y-109516194D01*
X135597164Y-104804874D02*
G75*
G02*
X137718485Y-103926185I2121336J-2121326D01*
G01*
X144538699Y-103926194D02*
G75*
G02*
X146660021Y-104804871I1J-3000006D01*
G01*
%TO.N,Net-(J2-Pin_3)*%
X146289340Y-111816194D02*
X143778340Y-114327194D01*
X134936844Y-114327194D02*
X133258340Y-112648690D01*
X134698340Y-110863370D02*
X135255516Y-110306194D01*
X133258340Y-112648690D02*
X133258340Y-111943698D01*
X133258340Y-111943698D02*
X134338668Y-110863370D01*
X143778340Y-114327194D02*
X134936844Y-114327194D01*
X134338668Y-110863370D02*
X134698340Y-110863370D01*
X135255516Y-110306194D02*
X135499340Y-110306194D01*
%TO.N,/V*%
X135499340Y-107936194D02*
X136618340Y-107936194D01*
X146766100Y-110665194D02*
X147440340Y-111339434D01*
X138860340Y-109054358D02*
X138860340Y-110738030D01*
X138704844Y-110797194D02*
X145680580Y-110797194D01*
X137599340Y-107936194D02*
X138658340Y-108995194D01*
X129030000Y-103900000D02*
X125733806Y-107196194D01*
X146766100Y-113205194D02*
X145812580Y-113205194D01*
X129339340Y-107236194D02*
X129429340Y-107236194D01*
X129299340Y-107196194D02*
X129339340Y-107236194D01*
X136824480Y-116206194D02*
X141568939Y-116206194D01*
X125733806Y-107196194D02*
X125479340Y-107196194D01*
X137019340Y-111886194D02*
X135499340Y-111886194D01*
X138801176Y-108995194D02*
X138860340Y-109054358D01*
X137019340Y-111886194D02*
X137615844Y-111886194D01*
X138658340Y-108995194D02*
X138801176Y-108995194D01*
X145812580Y-113205194D02*
X143690259Y-115327515D01*
X128999340Y-110436194D02*
X129429340Y-110006194D01*
X134703159Y-115327514D02*
X129811839Y-110436194D01*
X138801176Y-110797194D02*
X138704844Y-110797194D01*
X147440340Y-112530954D02*
X146766100Y-113205194D01*
X147440340Y-111339434D02*
X147440340Y-112530954D01*
X145680580Y-110797194D02*
X145812580Y-110665194D01*
X138860340Y-110738030D02*
X138801176Y-110797194D01*
X137019340Y-107936194D02*
X137599340Y-107936194D01*
X145812580Y-110665194D02*
X146766100Y-110665194D01*
X137615844Y-111886194D02*
X138704844Y-110797194D01*
X129429340Y-110006194D02*
X129429340Y-107236194D01*
X129811839Y-110436194D02*
X128999340Y-110436194D01*
X125479340Y-107196194D02*
X129299340Y-107196194D01*
X134703159Y-115327514D02*
G75*
G03*
X136824480Y-116206210I2121341J2121314D01*
G01*
X143690259Y-115327515D02*
G75*
G02*
X141568939Y-116206224I-2121359J2121315D01*
G01*
%TO.N,Net-(U1-DI{slash}IO_{0})*%
X128999340Y-114246194D02*
X126209340Y-114246194D01*
X124939340Y-112976194D02*
X121824340Y-112976194D01*
X121824340Y-111706194D02*
X121824340Y-112976194D01*
X126209340Y-114246194D02*
X124939340Y-112976194D01*
%TD*%
%TA.AperFunction,Conductor*%
%TO.N,GND*%
G36*
X144910144Y-111417379D02*
G01*
X144955899Y-111470183D01*
X144965843Y-111539341D01*
X144965581Y-111541072D01*
X144938840Y-111709907D01*
X144938840Y-111922481D01*
X144950946Y-111998914D01*
X144972094Y-112132438D01*
X144972094Y-112132441D01*
X144985831Y-112174717D01*
X144987826Y-112244558D01*
X144955581Y-112300716D01*
X143565924Y-113690375D01*
X143504601Y-113723860D01*
X143478243Y-113726694D01*
X136963840Y-113726694D01*
X136896801Y-113707009D01*
X136851046Y-113654205D01*
X136841971Y-113625585D01*
X136839840Y-113614239D01*
X136839840Y-113569770D01*
X136811905Y-113465515D01*
X136811035Y-113460882D01*
X136814068Y-113430630D01*
X136814792Y-113400234D01*
X136817573Y-113395670D01*
X136818006Y-113391360D01*
X136827450Y-113379467D01*
X136845223Y-113350309D01*
X136869340Y-113326192D01*
X136869340Y-112826194D01*
X135649340Y-112826194D01*
X135649340Y-113326194D01*
X135673456Y-113350310D01*
X135706941Y-113411633D01*
X135705550Y-113470083D01*
X135678840Y-113569768D01*
X135678840Y-113602694D01*
X135659155Y-113669733D01*
X135606351Y-113715488D01*
X135554840Y-113726694D01*
X135236941Y-113726694D01*
X135207500Y-113718049D01*
X135177514Y-113711526D01*
X135172498Y-113707771D01*
X135169902Y-113707009D01*
X135149260Y-113690375D01*
X134996760Y-113537875D01*
X134963275Y-113476552D01*
X134968259Y-113406860D01*
X135010131Y-113350927D01*
X135075595Y-113326510D01*
X135084441Y-113326194D01*
X135349340Y-113326194D01*
X135349340Y-112800194D01*
X135351890Y-112791508D01*
X135350602Y-112782547D01*
X135361580Y-112758506D01*
X135369025Y-112733155D01*
X135375865Y-112727227D01*
X135379627Y-112718991D01*
X135401861Y-112704701D01*
X135421829Y-112687400D01*
X135432343Y-112685112D01*
X135438405Y-112681217D01*
X135473340Y-112676194D01*
X135499340Y-112676194D01*
X135499340Y-112660694D01*
X135519025Y-112593655D01*
X135571829Y-112547900D01*
X135623340Y-112536694D01*
X135962053Y-112536694D01*
X135962060Y-112536694D01*
X136033757Y-112527254D01*
X136049941Y-112526194D01*
X136468739Y-112526194D01*
X136484922Y-112527254D01*
X136556620Y-112536694D01*
X136556627Y-112536694D01*
X136895340Y-112536694D01*
X136904025Y-112539244D01*
X136912987Y-112537956D01*
X136937027Y-112548934D01*
X136962379Y-112556379D01*
X136968306Y-112563219D01*
X136976543Y-112566981D01*
X136990832Y-112589215D01*
X137008134Y-112609183D01*
X137010421Y-112619697D01*
X137014317Y-112625759D01*
X137019340Y-112660694D01*
X137019340Y-112676194D01*
X137045340Y-112676194D01*
X137112379Y-112695879D01*
X137158134Y-112748683D01*
X137169340Y-112800194D01*
X137169340Y-113326194D01*
X137482023Y-113326194D01*
X137482037Y-113326193D01*
X137594444Y-113311393D01*
X137594448Y-113311392D01*
X137734319Y-113253457D01*
X137734322Y-113253455D01*
X137765161Y-113229791D01*
X137830329Y-113204595D01*
X137898774Y-113218632D01*
X137909536Y-113225061D01*
X137911974Y-113226689D01*
X137911979Y-113226692D01*
X138103065Y-113305843D01*
X138103073Y-113305845D01*
X138305919Y-113346193D01*
X138305923Y-113346194D01*
X138512757Y-113346194D01*
X138512760Y-113346193D01*
X138715606Y-113305845D01*
X138715614Y-113305843D01*
X138906706Y-113226689D01*
X138954406Y-113194815D01*
X138954407Y-113194814D01*
X138405787Y-112646194D01*
X138455418Y-112646194D01*
X138544435Y-112622342D01*
X138624245Y-112576264D01*
X138689410Y-112511099D01*
X138735488Y-112431289D01*
X138759340Y-112342272D01*
X138759340Y-112296193D01*
X138762894Y-112296193D01*
X138762894Y-112296195D01*
X139307960Y-112841261D01*
X139307961Y-112841260D01*
X139339835Y-112793560D01*
X139418989Y-112602468D01*
X139418991Y-112602460D01*
X139459339Y-112399614D01*
X139459340Y-112399611D01*
X139459340Y-112192777D01*
X139459339Y-112192773D01*
X139418991Y-111989927D01*
X139418989Y-111989919D01*
X139339838Y-111798833D01*
X139339835Y-111798827D01*
X139307961Y-111751126D01*
X139307960Y-111751125D01*
X138762894Y-112296193D01*
X138759340Y-112296193D01*
X138759340Y-112250116D01*
X138735488Y-112161099D01*
X138689410Y-112081289D01*
X138624245Y-112016124D01*
X138544435Y-111970046D01*
X138455418Y-111946194D01*
X138405786Y-111946194D01*
X138917967Y-111434013D01*
X138979290Y-111400528D01*
X139005648Y-111397694D01*
X144843105Y-111397694D01*
X144910144Y-111417379D01*
G37*
%TD.AperFunction*%
%TA.AperFunction,Conductor*%
G36*
X144542171Y-104526889D02*
G01*
X144800412Y-104541390D01*
X144814215Y-104542946D01*
X145065779Y-104585688D01*
X145079322Y-104588779D01*
X145202520Y-104624272D01*
X145324512Y-104659417D01*
X145337637Y-104664009D01*
X145573376Y-104761656D01*
X145585890Y-104767682D01*
X145734658Y-104849903D01*
X145809215Y-104891109D01*
X145820989Y-104898507D01*
X145848741Y-104918198D01*
X146029093Y-105046164D01*
X146039953Y-105054826D01*
X146039956Y-105054828D01*
X146167977Y-105169235D01*
X146204848Y-105228584D01*
X146203779Y-105298445D01*
X146165109Y-105356638D01*
X146101117Y-105384688D01*
X146085350Y-105385694D01*
X145391469Y-105385694D01*
X145391463Y-105385695D01*
X145331856Y-105392102D01*
X145197011Y-105442396D01*
X145197004Y-105442400D01*
X145081795Y-105528646D01*
X145081792Y-105528649D01*
X144995546Y-105643858D01*
X144995542Y-105643865D01*
X144945248Y-105778711D01*
X144938841Y-105838310D01*
X144938840Y-105838329D01*
X144938840Y-107634064D01*
X144938841Y-107634070D01*
X144945248Y-107693677D01*
X144995542Y-107828522D01*
X144995546Y-107828529D01*
X145081792Y-107943738D01*
X145081795Y-107943741D01*
X145197004Y-108029987D01*
X145197011Y-108029991D01*
X145328422Y-108079004D01*
X145384356Y-108120875D01*
X145408773Y-108186339D01*
X145393922Y-108254612D01*
X145372771Y-108282867D01*
X145259229Y-108396409D01*
X145134291Y-108568373D01*
X145037784Y-108757779D01*
X144972093Y-108959954D01*
X144938840Y-109169907D01*
X144938840Y-109382480D01*
X144969377Y-109575286D01*
X144972094Y-109592437D01*
X145024851Y-109754807D01*
X145037784Y-109794608D01*
X145134289Y-109984010D01*
X145145767Y-109999808D01*
X145169247Y-110065615D01*
X145153422Y-110133669D01*
X145103316Y-110182364D01*
X145045449Y-110196694D01*
X139584840Y-110196694D01*
X139517801Y-110177009D01*
X139472046Y-110124205D01*
X139460840Y-110072694D01*
X139460840Y-109143418D01*
X139460841Y-109143405D01*
X139460841Y-108975302D01*
X139456729Y-108959956D01*
X139419917Y-108822574D01*
X139362138Y-108722497D01*
X139340864Y-108685648D01*
X139340858Y-108685640D01*
X139169893Y-108514675D01*
X139169892Y-108514674D01*
X139083080Y-108464554D01*
X139032961Y-108435617D01*
X139002934Y-108427571D01*
X138993038Y-108422942D01*
X138978793Y-108410369D01*
X138957896Y-108398304D01*
X138405786Y-107846194D01*
X138455418Y-107846194D01*
X138544435Y-107822342D01*
X138624245Y-107776264D01*
X138689410Y-107711099D01*
X138735488Y-107631289D01*
X138759340Y-107542272D01*
X138759340Y-107496193D01*
X138762894Y-107496193D01*
X138762894Y-107496195D01*
X139307960Y-108041261D01*
X139307961Y-108041260D01*
X139339835Y-107993560D01*
X139418989Y-107802468D01*
X139418991Y-107802460D01*
X139459339Y-107599614D01*
X139459340Y-107599611D01*
X139459340Y-107392777D01*
X139459339Y-107392773D01*
X139418991Y-107189927D01*
X139418989Y-107189919D01*
X139339838Y-106998833D01*
X139339835Y-106998827D01*
X139307961Y-106951126D01*
X139307960Y-106951125D01*
X138762894Y-107496193D01*
X138759340Y-107496193D01*
X138759340Y-107450116D01*
X138735488Y-107361099D01*
X138689410Y-107281289D01*
X138624245Y-107216124D01*
X138544435Y-107170046D01*
X138455418Y-107146194D01*
X138405784Y-107146194D01*
X138954407Y-106597571D01*
X138906699Y-106565694D01*
X138715614Y-106486544D01*
X138715606Y-106486542D01*
X138512760Y-106446194D01*
X138305919Y-106446194D01*
X138103073Y-106486542D01*
X138103065Y-106486544D01*
X137911977Y-106565696D01*
X137888640Y-106581289D01*
X137821962Y-106602166D01*
X137754583Y-106583680D01*
X137744265Y-106576562D01*
X137734320Y-106568931D01*
X137734321Y-106568931D01*
X137594448Y-106510995D01*
X137594444Y-106510994D01*
X137482037Y-106496194D01*
X137169340Y-106496194D01*
X137169340Y-107022194D01*
X137166789Y-107030879D01*
X137168078Y-107039841D01*
X137157099Y-107063881D01*
X137149655Y-107089233D01*
X137142814Y-107095160D01*
X137139053Y-107103397D01*
X137116818Y-107117686D01*
X137096851Y-107134988D01*
X137086336Y-107137275D01*
X137080275Y-107141171D01*
X137045340Y-107146194D01*
X137019340Y-107146194D01*
X137019340Y-107161694D01*
X136999655Y-107228733D01*
X136946851Y-107274488D01*
X136895340Y-107285694D01*
X136556612Y-107285694D01*
X136495492Y-107293741D01*
X136484922Y-107295133D01*
X136468739Y-107296194D01*
X136049941Y-107296194D01*
X136033757Y-107295133D01*
X136021926Y-107293575D01*
X135962067Y-107285694D01*
X135962060Y-107285694D01*
X135623340Y-107285694D01*
X135614654Y-107283143D01*
X135605693Y-107284432D01*
X135581652Y-107273453D01*
X135556301Y-107266009D01*
X135550373Y-107259168D01*
X135542137Y-107255407D01*
X135527847Y-107233172D01*
X135510546Y-107213205D01*
X135508258Y-107202690D01*
X135504363Y-107196629D01*
X135499340Y-107161694D01*
X135499340Y-107146194D01*
X135473340Y-107146194D01*
X135406301Y-107126509D01*
X135360546Y-107073705D01*
X135349340Y-107022194D01*
X135349340Y-106496194D01*
X135054440Y-106496194D01*
X134987401Y-106476509D01*
X134941646Y-106423705D01*
X134931702Y-106354547D01*
X134960727Y-106290991D01*
X134966738Y-106284534D01*
X135513352Y-105737921D01*
X135574674Y-105704437D01*
X135644366Y-105709421D01*
X135700299Y-105751293D01*
X135724716Y-105816757D01*
X135720807Y-105857695D01*
X135718840Y-105865034D01*
X135718840Y-106375332D01*
X135699155Y-106442371D01*
X135682521Y-106463013D01*
X135649340Y-106496194D01*
X135649340Y-106996194D01*
X136869340Y-106996194D01*
X136869340Y-106496194D01*
X136836159Y-106463013D01*
X136802674Y-106401690D01*
X136799840Y-106375332D01*
X136799840Y-105865038D01*
X136799840Y-105865036D01*
X136763006Y-105727569D01*
X136691848Y-105604319D01*
X136591215Y-105503686D01*
X136591214Y-105503685D01*
X136591211Y-105503683D01*
X136467967Y-105432529D01*
X136467966Y-105432528D01*
X136467965Y-105432528D01*
X136330498Y-105395694D01*
X136188182Y-105395694D01*
X136188177Y-105395694D01*
X136187923Y-105395763D01*
X136187700Y-105395757D01*
X136180126Y-105396755D01*
X136180054Y-105396209D01*
X136175367Y-105398437D01*
X136146840Y-105394780D01*
X136118073Y-105394092D01*
X136112607Y-105390391D01*
X136106064Y-105389553D01*
X136084036Y-105371048D01*
X136060216Y-105354922D01*
X136057619Y-105348857D01*
X136052566Y-105344612D01*
X136044039Y-105317134D01*
X136032719Y-105290690D01*
X136033814Y-105284181D01*
X136031859Y-105277881D01*
X136039539Y-105250160D01*
X136044314Y-105221789D01*
X136049188Y-105215335D01*
X136050515Y-105210548D01*
X136073208Y-105183533D01*
X136217249Y-105054810D01*
X136228092Y-105046164D01*
X136436200Y-104898503D01*
X136447958Y-104891114D01*
X136671302Y-104767675D01*
X136683795Y-104761658D01*
X136919565Y-104663998D01*
X136932650Y-104659419D01*
X137177877Y-104588769D01*
X137191397Y-104585684D01*
X137442973Y-104542938D01*
X137456771Y-104541384D01*
X137714856Y-104526888D01*
X137721809Y-104526694D01*
X144465785Y-104526694D01*
X144535219Y-104526694D01*
X144542171Y-104526889D01*
G37*
%TD.AperFunction*%
%TA.AperFunction,Conductor*%
G36*
X130834600Y-100520185D02*
G01*
X130880355Y-100572989D01*
X130890299Y-100642147D01*
X130887336Y-100656593D01*
X130876280Y-100697853D01*
X131676279Y-102083493D01*
X131676280Y-102083493D01*
X132390749Y-101670994D01*
X132390749Y-101670993D01*
X131940767Y-100891601D01*
X131940765Y-100891596D01*
X131880315Y-100807881D01*
X131880310Y-100807875D01*
X131778341Y-100717131D01*
X131741346Y-100657859D01*
X131742270Y-100587995D01*
X131780818Y-100529722D01*
X131844752Y-100501540D01*
X131860775Y-100500500D01*
X144934108Y-100500500D01*
X144997294Y-100500500D01*
X145002702Y-100500617D01*
X145386771Y-100517386D01*
X145397506Y-100518326D01*
X145775971Y-100568152D01*
X145786597Y-100570025D01*
X146159284Y-100652648D01*
X146169710Y-100655442D01*
X146533765Y-100770227D01*
X146543911Y-100773920D01*
X146896578Y-100920000D01*
X146906369Y-100924566D01*
X147187263Y-101070790D01*
X147244942Y-101100816D01*
X147254310Y-101106224D01*
X147576244Y-101311318D01*
X147585105Y-101317523D01*
X147887930Y-101549889D01*
X147896217Y-101556843D01*
X148177635Y-101814715D01*
X148185284Y-101822364D01*
X148443156Y-102103782D01*
X148450110Y-102112069D01*
X148682476Y-102414894D01*
X148688681Y-102423755D01*
X148893775Y-102745689D01*
X148899183Y-102755057D01*
X149075430Y-103093623D01*
X149080002Y-103103427D01*
X149226075Y-103456078D01*
X149229775Y-103466244D01*
X149344554Y-103830278D01*
X149347354Y-103840727D01*
X149429971Y-104213389D01*
X149431849Y-104224042D01*
X149481671Y-104602473D01*
X149482614Y-104613249D01*
X149499382Y-104997297D01*
X149499500Y-105002706D01*
X149499500Y-124891874D01*
X149479815Y-124958913D01*
X149427011Y-125004668D01*
X149375895Y-125015873D01*
X130624895Y-125075612D01*
X130557793Y-125056141D01*
X130511870Y-125003484D01*
X130500500Y-124951613D01*
X130500500Y-121848745D01*
X130488308Y-121748342D01*
X130464037Y-121548449D01*
X130391643Y-121254734D01*
X130391642Y-121254731D01*
X130391641Y-121254727D01*
X130284371Y-120971882D01*
X130143793Y-120704035D01*
X130143787Y-120704026D01*
X130140120Y-120698714D01*
X130059082Y-120581309D01*
X129971952Y-120455078D01*
X129971947Y-120455072D01*
X129771353Y-120228648D01*
X129771351Y-120228646D01*
X129544927Y-120028052D01*
X129544921Y-120028047D01*
X129295973Y-119856212D01*
X129295964Y-119856206D01*
X129028117Y-119715628D01*
X128745272Y-119608358D01*
X128629820Y-119579902D01*
X128451551Y-119535963D01*
X128271371Y-119514085D01*
X128151254Y-119499500D01*
X128151252Y-119499500D01*
X128065892Y-119499500D01*
X122065892Y-119499500D01*
X122000000Y-119499500D01*
X121848748Y-119499500D01*
X121848746Y-119499500D01*
X121726159Y-119514385D01*
X121548449Y-119535963D01*
X121429602Y-119565255D01*
X121254727Y-119608358D01*
X120971882Y-119715628D01*
X120704035Y-119856206D01*
X120704026Y-119856212D01*
X120455078Y-120028047D01*
X120455072Y-120028052D01*
X120228648Y-120228646D01*
X120228646Y-120228648D01*
X120028052Y-120455072D01*
X120028047Y-120455078D01*
X119856212Y-120704026D01*
X119856206Y-120704035D01*
X119715628Y-120971882D01*
X119608358Y-121254727D01*
X119578200Y-121377085D01*
X119535963Y-121548449D01*
X119528401Y-121610727D01*
X119499500Y-121848745D01*
X119499500Y-124987452D01*
X119479815Y-125054491D01*
X119427011Y-125100246D01*
X119375895Y-125111451D01*
X100624895Y-125171190D01*
X100557793Y-125151719D01*
X100511870Y-125099062D01*
X100500500Y-125047191D01*
X100500500Y-122285797D01*
X111565851Y-122285797D01*
X111674650Y-122448629D01*
X111820898Y-122594877D01*
X111820902Y-122594880D01*
X111992869Y-122709785D01*
X111992879Y-122709790D01*
X112183963Y-122788940D01*
X112183971Y-122788942D01*
X112386817Y-122829290D01*
X112386821Y-122829291D01*
X112512766Y-122829291D01*
X112512765Y-122829290D01*
X112313459Y-122085477D01*
X111565851Y-122285797D01*
X100500500Y-122285797D01*
X100500500Y-119885796D01*
X107408930Y-119885796D01*
X107517729Y-120048628D01*
X107663977Y-120194876D01*
X107663981Y-120194879D01*
X107835948Y-120309784D01*
X107835958Y-120309789D01*
X108027042Y-120388939D01*
X108027050Y-120388941D01*
X108229896Y-120429289D01*
X108229900Y-120429290D01*
X108355845Y-120429290D01*
X108355844Y-120429289D01*
X108156538Y-119685476D01*
X107408930Y-119885796D01*
X100500500Y-119885796D01*
X100500500Y-119275869D01*
X107283317Y-119275869D01*
X107283317Y-119401816D01*
X108031985Y-119201210D01*
X108007169Y-119244195D01*
X107983317Y-119333212D01*
X107983317Y-119425368D01*
X108007169Y-119514385D01*
X108053247Y-119594195D01*
X108118412Y-119659360D01*
X108198222Y-119705438D01*
X108287239Y-119729290D01*
X108379395Y-119729290D01*
X108468412Y-119705438D01*
X108548222Y-119659360D01*
X108613387Y-119594195D01*
X108638202Y-119551212D01*
X108839823Y-120303675D01*
X109002657Y-120194875D01*
X109148903Y-120048629D01*
X109148906Y-120048625D01*
X109263811Y-119876658D01*
X109263816Y-119876648D01*
X109345298Y-119679936D01*
X109346977Y-119680631D01*
X109380583Y-119629338D01*
X109444391Y-119600873D01*
X109513460Y-119611424D01*
X109522959Y-119616374D01*
X109664907Y-119698328D01*
X109664923Y-119698336D01*
X109734814Y-119727285D01*
X109769764Y-119741762D01*
X109773314Y-119742229D01*
X109776086Y-119743455D01*
X109777614Y-119743865D01*
X109777550Y-119744103D01*
X109837209Y-119770492D01*
X109875682Y-119828815D01*
X109876517Y-119898680D01*
X109864518Y-119927168D01*
X109543957Y-120482399D01*
X109543957Y-120482400D01*
X110929597Y-121282399D01*
X111245586Y-120735089D01*
X111296152Y-120686875D01*
X111364759Y-120673652D01*
X111428457Y-120698714D01*
X111432122Y-120701526D01*
X111432123Y-120701527D01*
X111522159Y-120770613D01*
X111522165Y-120770616D01*
X111522168Y-120770619D01*
X111694017Y-120869836D01*
X111742233Y-120920403D01*
X111755456Y-120989010D01*
X111729487Y-121053875D01*
X111719699Y-121064903D01*
X111674652Y-121109950D01*
X111674648Y-121109955D01*
X111559743Y-121281922D01*
X111559738Y-121281932D01*
X111480588Y-121473016D01*
X111480586Y-121473024D01*
X111440238Y-121675870D01*
X111440238Y-121801817D01*
X112188906Y-121601211D01*
X112164090Y-121644196D01*
X112140238Y-121733213D01*
X112140238Y-121825369D01*
X112164090Y-121914386D01*
X112210168Y-121994196D01*
X112275333Y-122059361D01*
X112355143Y-122105439D01*
X112444160Y-122129291D01*
X112536316Y-122129291D01*
X112625333Y-122105439D01*
X112705143Y-122059361D01*
X112770308Y-121994196D01*
X112795123Y-121951213D01*
X112996744Y-122703676D01*
X113159578Y-122594876D01*
X113305824Y-122448630D01*
X113305827Y-122448626D01*
X113420732Y-122276659D01*
X113420737Y-122276649D01*
X113499887Y-122085565D01*
X113499889Y-122085557D01*
X113540237Y-121882711D01*
X113540238Y-121882708D01*
X113540238Y-121778695D01*
X113559923Y-121711656D01*
X113612727Y-121665901D01*
X113616790Y-121664132D01*
X113630779Y-121658337D01*
X113750892Y-121566171D01*
X113819921Y-121476211D01*
X113976261Y-121205420D01*
X113976261Y-121205419D01*
X113520732Y-120942419D01*
X113514484Y-120935867D01*
X113506079Y-120932502D01*
X113490750Y-120910975D01*
X113472516Y-120891852D01*
X113470802Y-120882961D01*
X113465551Y-120875587D01*
X113464294Y-120849194D01*
X113459293Y-120823245D01*
X113462570Y-120812992D01*
X113462228Y-120805797D01*
X113475345Y-120773031D01*
X113488344Y-120750514D01*
X113474922Y-120742765D01*
X113429961Y-120695611D01*
X113693249Y-120695611D01*
X114126262Y-120945611D01*
X114171589Y-120933466D01*
X114241439Y-120935129D01*
X114265683Y-120945854D01*
X114707607Y-121200999D01*
X114707608Y-121201000D01*
X114707610Y-121201000D01*
X114707611Y-121201001D01*
X114845078Y-121237836D01*
X114845080Y-121237836D01*
X114987392Y-121237836D01*
X114987394Y-121237836D01*
X115124862Y-121201002D01*
X115248111Y-121129844D01*
X115348744Y-121029211D01*
X115419902Y-120905962D01*
X115456737Y-120768495D01*
X115456737Y-120626178D01*
X115419903Y-120488711D01*
X115348744Y-120365461D01*
X115286959Y-120303675D01*
X115248114Y-120264829D01*
X114806182Y-120009678D01*
X114757966Y-119959111D01*
X114748407Y-119934384D01*
X114736262Y-119889059D01*
X114303249Y-119639059D01*
X113813251Y-120487765D01*
X113693249Y-120695611D01*
X113429961Y-120695611D01*
X113426707Y-120692198D01*
X113413485Y-120623590D01*
X113429536Y-120573379D01*
X113598897Y-120280038D01*
X113626582Y-120213199D01*
X113633748Y-120198669D01*
X113843144Y-119835985D01*
X113852142Y-119822517D01*
X113896175Y-119765134D01*
X114065537Y-119471789D01*
X114116102Y-119423577D01*
X114184709Y-119410353D01*
X114234921Y-119426404D01*
X114248346Y-119434155D01*
X114261347Y-119411638D01*
X114311914Y-119363422D01*
X114380521Y-119350199D01*
X114430734Y-119366251D01*
X114886263Y-119629251D01*
X114886264Y-119629251D01*
X115042605Y-119358461D01*
X115042609Y-119358452D01*
X115085999Y-119253697D01*
X115105760Y-119103596D01*
X115104155Y-119091403D01*
X115114919Y-119022367D01*
X115158204Y-118972111D01*
X115309575Y-118870969D01*
X115455823Y-118724721D01*
X115455826Y-118724717D01*
X115570731Y-118552750D01*
X115570736Y-118552740D01*
X115649886Y-118361656D01*
X115649888Y-118361648D01*
X115690236Y-118158802D01*
X115690237Y-118158799D01*
X115690237Y-118032854D01*
X115690236Y-118032854D01*
X114941569Y-118233459D01*
X114966385Y-118190477D01*
X114990237Y-118101460D01*
X114990237Y-118009304D01*
X114966385Y-117920287D01*
X114920307Y-117840477D01*
X114855142Y-117775312D01*
X114775332Y-117729234D01*
X114686315Y-117705382D01*
X114594159Y-117705382D01*
X114505142Y-117729234D01*
X114425332Y-117775312D01*
X114360167Y-117840477D01*
X114335350Y-117883459D01*
X114133729Y-117130995D01*
X114133728Y-117130994D01*
X113970900Y-117239792D01*
X113824650Y-117386042D01*
X113824647Y-117386046D01*
X113709742Y-117558013D01*
X113709737Y-117558023D01*
X113628256Y-117754736D01*
X113626584Y-117754043D01*
X113592932Y-117805365D01*
X113529112Y-117833804D01*
X113460048Y-117823225D01*
X113450594Y-117818296D01*
X113282666Y-117721342D01*
X113282654Y-117721337D01*
X113173543Y-117676141D01*
X113119140Y-117632300D01*
X113097075Y-117566006D01*
X113113608Y-117499581D01*
X113398934Y-117005382D01*
X114617709Y-117005382D01*
X114817014Y-117749194D01*
X115564622Y-117548874D01*
X115455822Y-117386041D01*
X115309576Y-117239795D01*
X115309572Y-117239792D01*
X115137605Y-117124887D01*
X115137595Y-117124882D01*
X114946511Y-117045732D01*
X114946503Y-117045730D01*
X114743657Y-117005382D01*
X114617709Y-117005382D01*
X113398934Y-117005382D01*
X113429597Y-116952272D01*
X113429595Y-116952271D01*
X113429596Y-116952271D01*
X112043957Y-116152273D01*
X112043956Y-116152273D01*
X111723395Y-116707501D01*
X111672828Y-116755717D01*
X111604221Y-116768940D01*
X111539356Y-116742972D01*
X111517635Y-116720991D01*
X111515450Y-116718144D01*
X111495709Y-116702997D01*
X111425415Y-116649059D01*
X111425409Y-116649055D01*
X111425405Y-116649052D01*
X111279536Y-116564835D01*
X111231320Y-116514268D01*
X111218098Y-116445661D01*
X111244066Y-116380796D01*
X111253856Y-116369766D01*
X111298902Y-116324720D01*
X111298905Y-116324716D01*
X111413810Y-116152749D01*
X111413815Y-116152739D01*
X111492965Y-115961655D01*
X111492967Y-115961647D01*
X111533315Y-115758801D01*
X111533316Y-115758798D01*
X111533316Y-115632853D01*
X111533315Y-115632853D01*
X110784648Y-115833458D01*
X110809464Y-115790476D01*
X110833316Y-115701459D01*
X110833316Y-115609303D01*
X110809464Y-115520286D01*
X110763386Y-115440476D01*
X110698221Y-115375311D01*
X110618411Y-115329233D01*
X110529394Y-115305381D01*
X110437238Y-115305381D01*
X110348221Y-115329233D01*
X110268411Y-115375311D01*
X110203246Y-115440476D01*
X110178429Y-115483458D01*
X109976808Y-114730994D01*
X109976807Y-114730993D01*
X109813979Y-114839791D01*
X109667729Y-114986041D01*
X109667726Y-114986045D01*
X109552821Y-115158012D01*
X109552816Y-115158022D01*
X109473666Y-115349106D01*
X109473664Y-115349114D01*
X109433316Y-115551960D01*
X109433316Y-115630214D01*
X109413631Y-115697253D01*
X109360827Y-115743008D01*
X109356770Y-115744775D01*
X109316793Y-115761334D01*
X109196679Y-115853501D01*
X109127655Y-115943455D01*
X109127649Y-115943463D01*
X108971309Y-116214251D01*
X108971309Y-116214252D01*
X109426839Y-116477253D01*
X109433086Y-116483805D01*
X109441491Y-116487170D01*
X109456817Y-116508693D01*
X109475055Y-116527820D01*
X109476768Y-116536710D01*
X109482019Y-116544084D01*
X109483276Y-116570476D01*
X109488278Y-116596427D01*
X109485001Y-116606677D01*
X109485344Y-116613874D01*
X109472226Y-116646640D01*
X109459225Y-116669156D01*
X109472647Y-116676905D01*
X109520863Y-116727472D01*
X109534087Y-116796079D01*
X109518035Y-116846292D01*
X109348682Y-117139622D01*
X109348676Y-117139634D01*
X109321001Y-117206447D01*
X109313827Y-117220993D01*
X109104430Y-117583679D01*
X109095420Y-117597164D01*
X109051401Y-117654531D01*
X109051396Y-117654539D01*
X108882035Y-117947878D01*
X108875483Y-117954124D01*
X108872119Y-117962529D01*
X108850591Y-117977857D01*
X108831467Y-117996093D01*
X108822578Y-117997806D01*
X108815204Y-118003057D01*
X108788805Y-118004314D01*
X108762860Y-118009315D01*
X108752611Y-118006039D01*
X108745414Y-118006382D01*
X108712648Y-117993264D01*
X108699225Y-117985514D01*
X108686225Y-118008032D01*
X108635657Y-118056247D01*
X108567050Y-118069469D01*
X108516838Y-118053418D01*
X108061308Y-117790418D01*
X108061307Y-117790418D01*
X107904967Y-118061209D01*
X107904963Y-118061218D01*
X107861573Y-118165973D01*
X107841812Y-118316075D01*
X107841812Y-118316077D01*
X107847333Y-118358015D01*
X107836567Y-118427051D01*
X107793285Y-118477302D01*
X107663981Y-118563700D01*
X107663977Y-118563703D01*
X107517730Y-118709950D01*
X107517727Y-118709954D01*
X107402822Y-118881921D01*
X107402817Y-118881931D01*
X107323667Y-119073015D01*
X107323665Y-119073023D01*
X107283317Y-119275869D01*
X100500500Y-119275869D01*
X100500500Y-116765912D01*
X107658682Y-116765912D01*
X107658682Y-116918760D01*
X107698242Y-117066401D01*
X107774666Y-117198771D01*
X107882747Y-117306852D01*
X108015117Y-117383276D01*
X108114802Y-117409986D01*
X108174460Y-117446350D01*
X108202482Y-117497666D01*
X108211309Y-117530610D01*
X108644321Y-117780609D01*
X109134322Y-116931906D01*
X109254320Y-116724058D01*
X108821307Y-116474059D01*
X108788363Y-116482887D01*
X108718514Y-116481224D01*
X108668590Y-116450793D01*
X108595619Y-116377822D01*
X108595617Y-116377820D01*
X108463247Y-116301396D01*
X108315606Y-116261836D01*
X108162758Y-116261836D01*
X108015117Y-116301396D01*
X108015114Y-116301397D01*
X107882750Y-116377818D01*
X107882744Y-116377822D01*
X107774668Y-116485898D01*
X107774664Y-116485904D01*
X107698243Y-116618268D01*
X107698242Y-116618271D01*
X107658682Y-116765912D01*
X100500500Y-116765912D01*
X100500500Y-114605381D01*
X110460788Y-114605381D01*
X110660093Y-115349193D01*
X111407701Y-115148873D01*
X111298901Y-114986040D01*
X111152655Y-114839794D01*
X111152651Y-114839791D01*
X110980684Y-114724886D01*
X110980674Y-114724881D01*
X110789590Y-114645731D01*
X110789582Y-114645729D01*
X110586736Y-114605381D01*
X110460788Y-114605381D01*
X100500500Y-114605381D01*
X100500500Y-114496194D01*
X120514925Y-114496194D01*
X120517904Y-114528986D01*
X120517907Y-114528996D01*
X120565767Y-114682586D01*
X120649003Y-114820274D01*
X120762759Y-114934030D01*
X120900443Y-115017264D01*
X121054047Y-115065128D01*
X121120797Y-115071194D01*
X121574340Y-115071194D01*
X122074340Y-115071194D01*
X122527883Y-115071194D01*
X122594632Y-115065128D01*
X122748236Y-115017264D01*
X122885920Y-114934030D01*
X122999676Y-114820274D01*
X123082912Y-114682586D01*
X123130772Y-114528996D01*
X123130775Y-114528986D01*
X123133754Y-114496194D01*
X122074340Y-114496194D01*
X122074340Y-115071194D01*
X121574340Y-115071194D01*
X121574340Y-114496194D01*
X120514925Y-114496194D01*
X100500500Y-114496194D01*
X100500500Y-109826876D01*
X111696200Y-109826876D01*
X111696200Y-109979724D01*
X111734914Y-110124205D01*
X111735760Y-110127364D01*
X111735761Y-110127367D01*
X111744693Y-110142838D01*
X111812184Y-110259735D01*
X111920265Y-110367816D01*
X112052635Y-110444240D01*
X112200276Y-110483800D01*
X112200278Y-110483800D01*
X112353122Y-110483800D01*
X112353124Y-110483800D01*
X112500765Y-110444240D01*
X112633135Y-110367816D01*
X112741216Y-110259735D01*
X112792816Y-110170360D01*
X112843383Y-110122145D01*
X112900203Y-110108361D01*
X112934308Y-110108361D01*
X113287861Y-109754807D01*
X113118157Y-109585103D01*
X112425191Y-108892136D01*
X112071638Y-109245690D01*
X112071638Y-109279796D01*
X112051953Y-109346835D01*
X112009639Y-109387182D01*
X111920271Y-109438779D01*
X111920262Y-109438786D01*
X111812186Y-109546862D01*
X111812182Y-109546868D01*
X111735761Y-109679232D01*
X111735760Y-109679235D01*
X111696200Y-109826876D01*
X100500500Y-109826876D01*
X100500500Y-105002706D01*
X100500618Y-104997297D01*
X100503643Y-104928013D01*
X100508437Y-104818206D01*
X101299500Y-104818206D01*
X101299500Y-105181794D01*
X101309584Y-105284181D01*
X101335137Y-105543630D01*
X101406064Y-105900212D01*
X101406067Y-105900223D01*
X101511614Y-106248165D01*
X101598759Y-106458551D01*
X101637407Y-106551857D01*
X101650754Y-106584078D01*
X101650756Y-106584083D01*
X101822140Y-106904720D01*
X101822151Y-106904738D01*
X102024140Y-107207035D01*
X102024150Y-107207049D01*
X102254807Y-107488106D01*
X102511893Y-107745192D01*
X102511898Y-107745196D01*
X102511899Y-107745197D01*
X102792956Y-107975854D01*
X103095268Y-108177853D01*
X103095277Y-108177858D01*
X103095279Y-108177859D01*
X103415916Y-108349243D01*
X103415918Y-108349243D01*
X103415924Y-108349247D01*
X103751836Y-108488386D01*
X104099767Y-108593930D01*
X104099773Y-108593931D01*
X104099776Y-108593932D01*
X104099787Y-108593935D01*
X104418256Y-108657281D01*
X104456369Y-108664862D01*
X104818206Y-108700500D01*
X104818209Y-108700500D01*
X105181791Y-108700500D01*
X105181794Y-108700500D01*
X105543631Y-108664862D01*
X105618177Y-108650034D01*
X105900212Y-108593935D01*
X105900223Y-108593932D01*
X105900223Y-108593931D01*
X105900233Y-108593930D01*
X106248164Y-108488386D01*
X106584076Y-108349247D01*
X106904732Y-108177853D01*
X107207044Y-107975854D01*
X107488101Y-107745197D01*
X107554871Y-107678427D01*
X110690171Y-107678427D01*
X110701364Y-107734701D01*
X110701365Y-107734703D01*
X110780514Y-107925785D01*
X110780519Y-107925795D01*
X110895424Y-108097762D01*
X110895427Y-108097766D01*
X111041674Y-108244013D01*
X111041678Y-108244016D01*
X111213645Y-108358921D01*
X111213655Y-108358926D01*
X111404737Y-108438075D01*
X111404745Y-108438078D01*
X111407611Y-108438648D01*
X111408973Y-108439360D01*
X111410570Y-108439845D01*
X111410478Y-108440147D01*
X111469524Y-108471030D01*
X111504100Y-108531744D01*
X111506364Y-108544081D01*
X111511437Y-108582622D01*
X111511438Y-108582624D01*
X111569375Y-108722497D01*
X111569377Y-108722500D01*
X111638399Y-108812452D01*
X111638405Y-108812459D01*
X111859505Y-109033559D01*
X111859506Y-109033559D01*
X112231444Y-108661620D01*
X112239389Y-108657281D01*
X112244815Y-108650034D01*
X112269574Y-108640799D01*
X112292767Y-108628135D01*
X112301796Y-108628780D01*
X112310279Y-108625617D01*
X112336099Y-108631233D01*
X112362458Y-108633119D01*
X112371511Y-108638937D01*
X112378552Y-108640469D01*
X112406806Y-108661620D01*
X112425191Y-108680005D01*
X112436152Y-108669045D01*
X112497475Y-108635560D01*
X112567167Y-108640544D01*
X112611514Y-108669045D01*
X112851020Y-108908552D01*
X112851026Y-108908557D01*
X112908397Y-108952579D01*
X112920592Y-108963274D01*
X113216721Y-109259403D01*
X113218058Y-109261241D01*
X113219101Y-109261849D01*
X113227415Y-109271597D01*
X113271440Y-109328970D01*
X113271447Y-109328979D01*
X113510954Y-109568485D01*
X113544439Y-109629808D01*
X113539455Y-109699499D01*
X113510953Y-109743849D01*
X113499993Y-109754808D01*
X113518379Y-109773194D01*
X113551864Y-109834518D01*
X113546878Y-109904209D01*
X113518378Y-109948555D01*
X113146440Y-110320492D01*
X113146440Y-110320493D01*
X113367541Y-110541595D01*
X113367547Y-110541600D01*
X113457499Y-110610622D01*
X113457502Y-110610624D01*
X113597375Y-110668561D01*
X113597384Y-110668563D01*
X113635916Y-110673636D01*
X113699813Y-110701901D01*
X113738285Y-110760225D01*
X113741349Y-110772378D01*
X113741920Y-110775251D01*
X113741923Y-110775260D01*
X113821073Y-110966344D01*
X113821078Y-110966354D01*
X113935983Y-111138321D01*
X113935986Y-111138325D01*
X114082233Y-111284572D01*
X114082237Y-111284575D01*
X114254204Y-111399480D01*
X114254214Y-111399485D01*
X114445296Y-111478634D01*
X114445298Y-111478635D01*
X114501573Y-111489828D01*
X115001573Y-111489828D01*
X115057847Y-111478635D01*
X115057849Y-111478634D01*
X115248931Y-111399485D01*
X115248941Y-111399480D01*
X115420908Y-111284575D01*
X115420912Y-111284572D01*
X115567159Y-111138325D01*
X115567162Y-111138321D01*
X115682067Y-110966354D01*
X115682072Y-110966344D01*
X115761221Y-110775262D01*
X115761222Y-110775260D01*
X115772416Y-110718986D01*
X115001573Y-110718986D01*
X115001573Y-111489828D01*
X114501573Y-111489828D01*
X114501573Y-110713961D01*
X114536668Y-110749056D01*
X114616478Y-110795134D01*
X114705495Y-110818986D01*
X114797651Y-110818986D01*
X114886668Y-110795134D01*
X114966478Y-110749056D01*
X115031643Y-110683891D01*
X115077721Y-110604081D01*
X115101573Y-110515064D01*
X115101573Y-110422908D01*
X115077721Y-110333891D01*
X115031643Y-110254081D01*
X114997667Y-110220105D01*
X120511340Y-110220105D01*
X120511340Y-110652292D01*
X120517408Y-110719076D01*
X120517411Y-110719087D01*
X120565307Y-110872793D01*
X120646465Y-111007044D01*
X120664301Y-111074599D01*
X120646465Y-111135344D01*
X120565309Y-111269591D01*
X120517409Y-111423310D01*
X120511340Y-111490105D01*
X120511340Y-111922292D01*
X120517408Y-111989076D01*
X120517411Y-111989087D01*
X120565307Y-112142793D01*
X120646465Y-112277044D01*
X120664301Y-112344599D01*
X120646465Y-112405344D01*
X120565309Y-112539591D01*
X120517409Y-112693310D01*
X120511340Y-112760105D01*
X120511340Y-113192292D01*
X120517408Y-113259076D01*
X120517411Y-113259087D01*
X120565307Y-113412792D01*
X120565308Y-113412793D01*
X120565309Y-113412796D01*
X120646758Y-113547529D01*
X120664594Y-113615081D01*
X120646758Y-113675827D01*
X120565767Y-113809801D01*
X120517907Y-113963391D01*
X120517904Y-113963401D01*
X120514925Y-113996193D01*
X120514925Y-113996194D01*
X123133755Y-113996194D01*
X123133754Y-113996193D01*
X123130775Y-113963401D01*
X123130772Y-113963391D01*
X123082912Y-113809800D01*
X123055735Y-113764844D01*
X123037899Y-113697289D01*
X123059417Y-113630815D01*
X123113457Y-113586528D01*
X123161852Y-113576694D01*
X124639243Y-113576694D01*
X124706282Y-113596379D01*
X124726924Y-113613013D01*
X125724479Y-114610568D01*
X125724489Y-114610579D01*
X125728819Y-114614909D01*
X125728820Y-114614910D01*
X125840624Y-114726714D01*
X125925814Y-114775898D01*
X125925815Y-114775899D01*
X125977549Y-114805768D01*
X125977550Y-114805768D01*
X125977555Y-114805771D01*
X126130282Y-114846694D01*
X126130283Y-114846694D01*
X127798354Y-114846694D01*
X127865393Y-114866379D01*
X127886036Y-114883014D01*
X127937447Y-114934426D01*
X127937448Y-114934427D01*
X127937450Y-114934428D01*
X127937452Y-114934430D01*
X128075238Y-115017725D01*
X128228953Y-115065624D01*
X128295749Y-115071694D01*
X129702930Y-115071693D01*
X129702937Y-115071693D01*
X129769722Y-115065625D01*
X129769725Y-115065624D01*
X129769727Y-115065624D01*
X129923442Y-115017725D01*
X130061228Y-114934430D01*
X130175076Y-114820582D01*
X130258371Y-114682796D01*
X130306270Y-114529081D01*
X130312340Y-114462285D01*
X130312339Y-114030104D01*
X130312339Y-114030095D01*
X130306271Y-113963311D01*
X130306268Y-113963300D01*
X130258372Y-113809595D01*
X130258371Y-113809594D01*
X130258371Y-113809592D01*
X130177213Y-113675341D01*
X130159378Y-113607790D01*
X130177213Y-113547046D01*
X130258371Y-113412796D01*
X130306270Y-113259081D01*
X130312340Y-113192285D01*
X130312339Y-112760104D01*
X130312339Y-112760103D01*
X130312339Y-112760095D01*
X130306271Y-112693311D01*
X130306268Y-112693300D01*
X130258372Y-112539595D01*
X130258371Y-112539594D01*
X130258371Y-112539592D01*
X130177213Y-112405341D01*
X130159378Y-112337790D01*
X130177213Y-112277046D01*
X130258371Y-112142796D01*
X130294954Y-112025395D01*
X130333688Y-111967252D01*
X130397713Y-111939277D01*
X130466698Y-111950358D01*
X130501018Y-111974608D01*
X134340058Y-115813648D01*
X134340228Y-115813797D01*
X134403623Y-115877192D01*
X134677083Y-116101618D01*
X134677087Y-116101620D01*
X134677091Y-116101624D01*
X134758316Y-116155897D01*
X134971224Y-116298159D01*
X135283213Y-116464923D01*
X135456519Y-116536710D01*
X135610052Y-116600307D01*
X135948569Y-116702997D01*
X135948571Y-116702997D01*
X135948573Y-116702998D01*
X136295527Y-116772014D01*
X136295528Y-116772014D01*
X136295537Y-116772016D01*
X136647595Y-116806693D01*
X136730981Y-116806693D01*
X136730989Y-116806694D01*
X136745423Y-116806694D01*
X136824476Y-116806694D01*
X136897390Y-116806694D01*
X141496033Y-116806694D01*
X141517556Y-116806694D01*
X141517658Y-116806723D01*
X141568947Y-116806722D01*
X141568947Y-116806723D01*
X141745829Y-116806721D01*
X142097888Y-116772041D01*
X142444853Y-116703021D01*
X142783383Y-116600325D01*
X143110216Y-116464942D01*
X143422206Y-116298175D01*
X143422214Y-116298169D01*
X143422217Y-116298168D01*
X143635134Y-116155897D01*
X143716347Y-116101631D01*
X143989808Y-115877203D01*
X144114881Y-115752128D01*
X144115877Y-115753124D01*
X144115885Y-115753112D01*
X144114891Y-115752118D01*
X144321479Y-115545530D01*
X144902158Y-114964850D01*
X144963477Y-114931368D01*
X145033168Y-114936352D01*
X145089102Y-114978223D01*
X145100320Y-114996240D01*
X145134713Y-115063741D01*
X145174068Y-115117910D01*
X145806376Y-114485601D01*
X145823415Y-114549187D01*
X145889241Y-114663201D01*
X145982333Y-114756293D01*
X146096347Y-114822119D01*
X146159930Y-114839156D01*
X145527622Y-115471463D01*
X145527622Y-115471464D01*
X145581789Y-115510818D01*
X145771122Y-115607289D01*
X145973210Y-115672951D01*
X146183094Y-115706194D01*
X146395586Y-115706194D01*
X146605467Y-115672951D01*
X146605470Y-115672951D01*
X146807557Y-115607289D01*
X146996894Y-115510816D01*
X147051056Y-115471464D01*
X147051057Y-115471464D01*
X146418748Y-114839156D01*
X146482333Y-114822119D01*
X146596347Y-114756293D01*
X146689439Y-114663201D01*
X146755265Y-114549187D01*
X146772302Y-114485603D01*
X147404610Y-115117911D01*
X147404610Y-115117910D01*
X147443962Y-115063748D01*
X147540435Y-114874411D01*
X147606097Y-114672324D01*
X147606097Y-114672321D01*
X147639340Y-114462440D01*
X147639340Y-114249947D01*
X147606097Y-114040066D01*
X147606097Y-114040063D01*
X147540435Y-113837976D01*
X147443960Y-113648636D01*
X147391721Y-113576734D01*
X147368241Y-113510928D01*
X147384067Y-113442874D01*
X147404351Y-113416176D01*
X147798846Y-113021682D01*
X147798851Y-113021678D01*
X147809054Y-113011474D01*
X147809056Y-113011474D01*
X147920860Y-112899670D01*
X147999917Y-112762738D01*
X148040840Y-112610011D01*
X148040840Y-111260377D01*
X148039566Y-111255624D01*
X148028867Y-111215694D01*
X147999917Y-111107650D01*
X147976904Y-111067790D01*
X147920864Y-110970724D01*
X147920861Y-110970720D01*
X147920860Y-110970718D01*
X147809056Y-110858914D01*
X147809055Y-110858913D01*
X147804725Y-110854583D01*
X147804714Y-110854573D01*
X147300466Y-110350325D01*
X147266981Y-110289002D01*
X147271965Y-110219310D01*
X147300466Y-110174963D01*
X147319444Y-110155986D01*
X147319446Y-110155982D01*
X147319449Y-110155980D01*
X147444388Y-109984014D01*
X147444387Y-109984014D01*
X147444391Y-109984010D01*
X147540897Y-109794606D01*
X147606586Y-109592437D01*
X147639840Y-109382481D01*
X147639840Y-109169907D01*
X147606586Y-108959951D01*
X147592846Y-108917667D01*
X147592412Y-108902456D01*
X147587094Y-108888197D01*
X147591435Y-108868241D01*
X147590852Y-108847829D01*
X147598939Y-108833742D01*
X147601946Y-108819924D01*
X147623094Y-108791673D01*
X147798846Y-108615922D01*
X147798851Y-108615918D01*
X147809054Y-108605714D01*
X147809056Y-108605714D01*
X147920860Y-108493910D01*
X147978142Y-108394694D01*
X147999917Y-108356979D01*
X148040841Y-108204251D01*
X148040841Y-108046136D01*
X148040841Y-108038541D01*
X148040840Y-108038523D01*
X148040840Y-105674254D01*
X148040841Y-105674241D01*
X148040841Y-105506138D01*
X148040841Y-105506137D01*
X147999917Y-105353410D01*
X147999610Y-105352878D01*
X147920864Y-105216484D01*
X147920858Y-105216476D01*
X147120956Y-104416574D01*
X147120955Y-104416572D01*
X147084636Y-104380253D01*
X147084637Y-104380253D01*
X146959563Y-104255179D01*
X146686101Y-104030756D01*
X146686095Y-104030752D01*
X146391964Y-103834220D01*
X146391959Y-103834217D01*
X146391958Y-103834216D01*
X146391953Y-103834213D01*
X146391946Y-103834209D01*
X146079974Y-103667458D01*
X146079967Y-103667454D01*
X146079953Y-103667448D01*
X145753138Y-103532077D01*
X145414594Y-103429381D01*
X145414583Y-103429378D01*
X145067638Y-103360368D01*
X144802483Y-103334253D01*
X144715580Y-103325694D01*
X144715577Y-103325694D01*
X137769853Y-103325694D01*
X137769822Y-103325685D01*
X137541604Y-103325685D01*
X137189541Y-103360363D01*
X137189529Y-103360365D01*
X136842582Y-103429379D01*
X136842579Y-103429379D01*
X136504041Y-103532074D01*
X136177213Y-103667453D01*
X135865226Y-103834215D01*
X135865216Y-103834221D01*
X135571089Y-104030752D01*
X135571075Y-104030762D01*
X135297619Y-104255182D01*
X135279694Y-104273108D01*
X135228448Y-104324354D01*
X132777821Y-106774980D01*
X132777819Y-106774982D01*
X132762888Y-106800845D01*
X132747512Y-106827478D01*
X132728816Y-106859860D01*
X132702906Y-106904738D01*
X132698763Y-106911913D01*
X132657839Y-107064641D01*
X132657839Y-107064643D01*
X132657839Y-107232744D01*
X132657840Y-107232757D01*
X132657840Y-107762020D01*
X132657839Y-107762038D01*
X132657839Y-107927744D01*
X132657838Y-107927744D01*
X132698763Y-108080476D01*
X132710321Y-108100493D01*
X132710322Y-108100498D01*
X132710323Y-108100498D01*
X132777815Y-108217399D01*
X132777821Y-108217407D01*
X132896689Y-108336275D01*
X132896695Y-108336280D01*
X133723021Y-109162606D01*
X133756506Y-109223929D01*
X133759340Y-109250287D01*
X133759340Y-110542100D01*
X133739655Y-110609139D01*
X133723021Y-110629781D01*
X132777821Y-111574980D01*
X132777819Y-111574983D01*
X132747710Y-111627135D01*
X132747709Y-111627137D01*
X132698763Y-111711912D01*
X132698763Y-111711913D01*
X132657839Y-111864641D01*
X132657839Y-111864643D01*
X132657839Y-112032744D01*
X132657840Y-112032757D01*
X132657840Y-112133598D01*
X132638155Y-112200637D01*
X132585351Y-112246392D01*
X132516193Y-112256336D01*
X132452637Y-112227311D01*
X132446159Y-112221279D01*
X130299429Y-110074549D01*
X130299427Y-110074546D01*
X130295327Y-110070446D01*
X130293254Y-110067016D01*
X130283936Y-110055651D01*
X130283934Y-110055648D01*
X130285678Y-110054485D01*
X130264622Y-110019654D01*
X130258371Y-109999592D01*
X130175076Y-109861806D01*
X130175074Y-109861804D01*
X130175073Y-109861802D01*
X130066159Y-109752888D01*
X130032674Y-109691565D01*
X130029840Y-109665207D01*
X130029840Y-107902860D01*
X130049525Y-107835821D01*
X130066160Y-107815178D01*
X130109452Y-107771886D01*
X130109457Y-107771881D01*
X130191834Y-107632589D01*
X130236983Y-107477187D01*
X130239840Y-107440884D01*
X130239840Y-107031504D01*
X130236983Y-106995201D01*
X130223523Y-106948873D01*
X130191835Y-106839803D01*
X130191834Y-106839799D01*
X130184547Y-106827478D01*
X130179429Y-106818824D01*
X130162246Y-106751103D01*
X130179431Y-106692578D01*
X130191372Y-106672388D01*
X130233844Y-106526194D01*
X129927692Y-106526194D01*
X129864573Y-106508926D01*
X129855735Y-106503700D01*
X129855733Y-106503699D01*
X129855729Y-106503697D01*
X129700337Y-106458551D01*
X129700331Y-106458550D01*
X129664037Y-106455694D01*
X129664030Y-106455694D01*
X129194650Y-106455694D01*
X129194642Y-106455694D01*
X129158348Y-106458550D01*
X129158342Y-106458551D01*
X129002950Y-106503697D01*
X129002945Y-106503700D01*
X128994106Y-106508926D01*
X128930988Y-106526194D01*
X128624835Y-106526194D01*
X128609855Y-106546146D01*
X128553862Y-106587937D01*
X128510694Y-106595694D01*
X127482902Y-106595694D01*
X127415863Y-106576009D01*
X127370108Y-106523205D01*
X127360164Y-106454047D01*
X127389189Y-106390491D01*
X127395221Y-106384013D01*
X127916342Y-105862892D01*
X128439254Y-105339979D01*
X128500575Y-105306496D01*
X128570267Y-105311480D01*
X128626200Y-105353352D01*
X128634320Y-105365661D01*
X128652273Y-105396755D01*
X128673595Y-105433686D01*
X128703838Y-105475570D01*
X128734081Y-105517453D01*
X128762305Y-105542570D01*
X128799299Y-105601842D01*
X128798376Y-105671706D01*
X128767554Y-105722881D01*
X128749626Y-105740808D01*
X128749618Y-105740819D01*
X128667308Y-105879998D01*
X128624836Y-106026194D01*
X130233844Y-106026194D01*
X130191371Y-105879998D01*
X130109061Y-105740819D01*
X130109054Y-105740810D01*
X130015993Y-105647749D01*
X129982508Y-105586426D01*
X129987492Y-105516734D01*
X130029364Y-105460801D01*
X130041655Y-105452693D01*
X130280016Y-105315075D01*
X130363784Y-105254587D01*
X130480417Y-105123527D01*
X130563682Y-104969104D01*
X130609090Y-104799640D01*
X130614192Y-104624272D01*
X130614191Y-104624271D01*
X130614192Y-104624269D01*
X130578715Y-104452455D01*
X130578714Y-104452452D01*
X130552620Y-104394301D01*
X130536415Y-104358187D01*
X130536409Y-104358176D01*
X129901524Y-103258524D01*
X129855613Y-103179004D01*
X130778797Y-103179004D01*
X130778797Y-103179005D01*
X131228780Y-103958398D01*
X131228782Y-103958403D01*
X131289232Y-104042118D01*
X131289237Y-104042124D01*
X131420202Y-104158673D01*
X131574522Y-104241882D01*
X131743877Y-104287262D01*
X131919129Y-104292360D01*
X132090830Y-104256906D01*
X132090832Y-104256906D01*
X132185019Y-104214642D01*
X132185033Y-104214635D01*
X132293266Y-104152145D01*
X131493267Y-102766505D01*
X131493266Y-102766505D01*
X130778797Y-103179004D01*
X129855613Y-103179004D01*
X129489807Y-102545412D01*
X129386405Y-102366314D01*
X129325918Y-102282546D01*
X129194858Y-102165914D01*
X129040434Y-102082648D01*
X128984334Y-102067616D01*
X128870967Y-102037239D01*
X128695600Y-102032138D01*
X128523786Y-102067615D01*
X128488401Y-102083493D01*
X128429517Y-102109915D01*
X128429514Y-102109916D01*
X128429511Y-102109918D01*
X128429503Y-102109922D01*
X127779995Y-102484918D01*
X127779990Y-102484920D01*
X127696217Y-102545412D01*
X127696211Y-102545417D01*
X127579583Y-102676472D01*
X127496318Y-102830895D01*
X127450909Y-103000362D01*
X127445807Y-103175730D01*
X127481284Y-103347544D01*
X127481285Y-103347547D01*
X127523576Y-103441794D01*
X127523588Y-103441819D01*
X127884263Y-104066525D01*
X127900736Y-104134425D01*
X127877883Y-104200452D01*
X127864557Y-104216206D01*
X127541021Y-104539742D01*
X127479698Y-104573227D01*
X127410006Y-104568243D01*
X127354073Y-104526371D01*
X127350834Y-104517688D01*
X127329340Y-104496194D01*
X125729340Y-104496194D01*
X125729340Y-105321193D01*
X126460208Y-105321193D01*
X126527247Y-105340878D01*
X126573002Y-105393682D01*
X126582946Y-105462840D01*
X126553921Y-105526396D01*
X126547889Y-105532874D01*
X125996388Y-106084375D01*
X125935065Y-106117860D01*
X125908707Y-106120694D01*
X124329338Y-106120694D01*
X124329321Y-106120695D01*
X124226543Y-106131194D01*
X124226540Y-106131195D01*
X124060008Y-106186379D01*
X124060003Y-106186381D01*
X123910682Y-106278483D01*
X123786629Y-106402536D01*
X123694527Y-106551857D01*
X123694525Y-106551862D01*
X123682571Y-106587937D01*
X123639341Y-106718397D01*
X123639341Y-106718398D01*
X123639340Y-106718398D01*
X123628840Y-106821177D01*
X123628840Y-107571195D01*
X123628841Y-107571213D01*
X123639340Y-107673990D01*
X123639341Y-107673993D01*
X123694525Y-107840525D01*
X123694527Y-107840530D01*
X123725325Y-107890462D01*
X123786628Y-107989850D01*
X123910684Y-108113906D01*
X124060006Y-108206008D01*
X124226543Y-108261193D01*
X124329331Y-108271694D01*
X126629348Y-108271693D01*
X126732137Y-108261193D01*
X126898674Y-108206008D01*
X127047996Y-108113906D01*
X127172052Y-107989850D01*
X127254859Y-107855596D01*
X127306807Y-107808873D01*
X127360398Y-107796694D01*
X128704840Y-107796694D01*
X128771879Y-107816379D01*
X128817634Y-107869183D01*
X128828840Y-107920694D01*
X128828840Y-109486694D01*
X128809155Y-109553733D01*
X128756351Y-109599488D01*
X128704840Y-109610694D01*
X128295741Y-109610694D01*
X128228957Y-109616762D01*
X128228946Y-109616765D01*
X128075241Y-109664661D01*
X127937448Y-109747960D01*
X127823606Y-109861802D01*
X127740309Y-109999591D01*
X127692409Y-110153310D01*
X127686340Y-110220105D01*
X127686340Y-110652292D01*
X127692408Y-110719076D01*
X127692411Y-110719087D01*
X127740307Y-110872793D01*
X127821465Y-111007044D01*
X127839301Y-111074599D01*
X127821465Y-111135344D01*
X127740309Y-111269591D01*
X127692409Y-111423310D01*
X127686340Y-111490105D01*
X127686340Y-111922292D01*
X127692408Y-111989076D01*
X127692411Y-111989087D01*
X127740307Y-112142793D01*
X127821465Y-112277044D01*
X127839301Y-112344599D01*
X127821465Y-112405344D01*
X127740309Y-112539591D01*
X127692409Y-112693310D01*
X127686340Y-112760105D01*
X127686340Y-113192292D01*
X127692408Y-113259076D01*
X127692411Y-113259087D01*
X127740307Y-113412793D01*
X127740308Y-113412795D01*
X127767360Y-113457543D01*
X127785197Y-113525098D01*
X127763680Y-113591572D01*
X127709640Y-113635860D01*
X127661244Y-113645694D01*
X126509437Y-113645694D01*
X126442398Y-113626009D01*
X126421756Y-113609375D01*
X125426930Y-112614549D01*
X125426928Y-112614546D01*
X125308057Y-112495675D01*
X125308049Y-112495669D01*
X125184289Y-112424217D01*
X125184286Y-112424216D01*
X125171125Y-112416617D01*
X125018397Y-112375693D01*
X124860283Y-112375693D01*
X124852687Y-112375693D01*
X124852671Y-112375694D01*
X123162436Y-112375694D01*
X123095397Y-112356009D01*
X123049642Y-112303205D01*
X123039698Y-112234047D01*
X123056320Y-112187543D01*
X123083371Y-112142796D01*
X123131270Y-111989081D01*
X123137340Y-111922285D01*
X123137339Y-111490104D01*
X123137339Y-111490103D01*
X123137339Y-111490095D01*
X123131271Y-111423311D01*
X123131268Y-111423300D01*
X123083372Y-111269595D01*
X123083371Y-111269594D01*
X123083371Y-111269592D01*
X123002213Y-111135341D01*
X122984378Y-111067790D01*
X123002213Y-111007046D01*
X123083371Y-110872796D01*
X123131270Y-110719081D01*
X123137340Y-110652285D01*
X123137339Y-110220104D01*
X123137339Y-110220103D01*
X123137339Y-110220095D01*
X123131271Y-110153311D01*
X123131268Y-110153300D01*
X123083372Y-109999595D01*
X123083371Y-109999594D01*
X123083371Y-109999592D01*
X123000076Y-109861806D01*
X123000074Y-109861804D01*
X123000073Y-109861802D01*
X122886231Y-109747960D01*
X122862996Y-109733914D01*
X122748442Y-109664663D01*
X122594727Y-109616764D01*
X122594725Y-109616763D01*
X122594723Y-109616763D01*
X122547957Y-109612513D01*
X122527931Y-109610694D01*
X122527928Y-109610694D01*
X121120741Y-109610694D01*
X121053957Y-109616762D01*
X121053946Y-109616765D01*
X120900241Y-109664661D01*
X120762448Y-109747960D01*
X120648606Y-109861802D01*
X120565309Y-109999591D01*
X120517409Y-110153310D01*
X120511340Y-110220105D01*
X114997667Y-110220105D01*
X114996548Y-110218986D01*
X115772416Y-110218986D01*
X115761222Y-110162711D01*
X115761221Y-110162709D01*
X115682072Y-109971627D01*
X115682067Y-109971617D01*
X115567162Y-109799650D01*
X115567159Y-109799646D01*
X115420912Y-109653399D01*
X115420908Y-109653396D01*
X115304009Y-109575286D01*
X115259204Y-109521674D01*
X115250497Y-109452349D01*
X115280652Y-109389321D01*
X115285200Y-109384521D01*
X115404388Y-109265334D01*
X115473475Y-109175299D01*
X115474845Y-109171992D01*
X115476747Y-109169631D01*
X115477539Y-109168260D01*
X115477752Y-109168383D01*
X115518684Y-109117587D01*
X115584977Y-109095520D01*
X115652677Y-109112797D01*
X115677088Y-109131760D01*
X116130432Y-109585102D01*
X116130433Y-109585102D01*
X117261802Y-108453733D01*
X117261802Y-108453731D01*
X116814927Y-108006855D01*
X116781442Y-107945532D01*
X116786426Y-107875840D01*
X116827122Y-107820798D01*
X116830781Y-107817989D01*
X116830786Y-107817988D01*
X116920821Y-107748901D01*
X117061204Y-107608517D01*
X117122525Y-107575034D01*
X117192217Y-107580018D01*
X117248151Y-107621889D01*
X117251986Y-107627309D01*
X117330096Y-107744208D01*
X117330099Y-107744212D01*
X117476346Y-107890459D01*
X117476350Y-107890462D01*
X117648317Y-108005367D01*
X117648327Y-108005372D01*
X117839409Y-108084521D01*
X117839411Y-108084522D01*
X117895686Y-108095715D01*
X118395686Y-108095715D01*
X118451960Y-108084522D01*
X118451962Y-108084521D01*
X118643044Y-108005372D01*
X118643054Y-108005367D01*
X118815021Y-107890462D01*
X118815025Y-107890459D01*
X118961272Y-107744212D01*
X118961275Y-107744208D01*
X119076180Y-107572241D01*
X119076185Y-107572231D01*
X119155334Y-107381149D01*
X119155335Y-107381147D01*
X119166529Y-107324873D01*
X118395686Y-107324873D01*
X118395686Y-108095715D01*
X117895686Y-108095715D01*
X117895686Y-107319848D01*
X117930781Y-107354943D01*
X118010591Y-107401021D01*
X118099608Y-107424873D01*
X118191764Y-107424873D01*
X118280781Y-107401021D01*
X118360591Y-107354943D01*
X118425756Y-107289778D01*
X118471834Y-107209968D01*
X118495686Y-107120951D01*
X118495686Y-107028795D01*
X118471834Y-106939778D01*
X118425756Y-106859968D01*
X118390661Y-106824873D01*
X119166529Y-106824873D01*
X119155335Y-106768598D01*
X119155334Y-106768596D01*
X119076185Y-106577514D01*
X119076180Y-106577504D01*
X118961275Y-106405537D01*
X118961272Y-106405533D01*
X118815025Y-106259286D01*
X118815021Y-106259283D01*
X118643054Y-106144378D01*
X118643044Y-106144373D01*
X118451960Y-106065223D01*
X118451952Y-106065221D01*
X118424433Y-106059747D01*
X118362522Y-106027362D01*
X118327948Y-105966646D01*
X118325684Y-105954312D01*
X118324049Y-105941891D01*
X118324048Y-105941889D01*
X118266111Y-105802016D01*
X118266109Y-105802013D01*
X118197087Y-105712061D01*
X118197082Y-105712055D01*
X117975980Y-105490954D01*
X117975979Y-105490954D01*
X117604042Y-105862892D01*
X117596097Y-105867229D01*
X117590673Y-105874477D01*
X117565910Y-105883713D01*
X117542719Y-105896377D01*
X117533690Y-105895731D01*
X117525209Y-105898895D01*
X117499386Y-105893278D01*
X117473028Y-105891393D01*
X117463975Y-105885575D01*
X117456936Y-105884044D01*
X117428681Y-105862893D01*
X117410295Y-105844507D01*
X117399336Y-105855467D01*
X117338013Y-105888953D01*
X117268321Y-105883970D01*
X117223972Y-105855468D01*
X116984465Y-105615960D01*
X116984456Y-105615953D01*
X116927083Y-105571928D01*
X116914889Y-105561234D01*
X116618761Y-105265106D01*
X116608066Y-105252911D01*
X116564044Y-105195540D01*
X116564039Y-105195534D01*
X116324531Y-104956027D01*
X116320192Y-104948081D01*
X116312945Y-104942656D01*
X116303710Y-104917896D01*
X116291046Y-104894704D01*
X116291691Y-104885674D01*
X116288528Y-104877192D01*
X116294144Y-104851371D01*
X116296030Y-104825013D01*
X116301848Y-104815959D01*
X116303380Y-104808919D01*
X116324531Y-104780665D01*
X116335491Y-104769704D01*
X116547622Y-104769704D01*
X116717330Y-104939411D01*
X117410294Y-105632375D01*
X117763848Y-105278822D01*
X117763848Y-105231897D01*
X117783533Y-105164858D01*
X117800167Y-105144216D01*
X117976587Y-104967796D01*
X118161000Y-104783383D01*
X118232158Y-104660133D01*
X118242596Y-104621180D01*
X123629341Y-104621180D01*
X123639834Y-104723891D01*
X123694981Y-104890313D01*
X123694983Y-104890318D01*
X123787024Y-105039539D01*
X123910994Y-105163509D01*
X124060215Y-105255550D01*
X124060220Y-105255552D01*
X124226642Y-105310699D01*
X124226649Y-105310700D01*
X124329359Y-105321193D01*
X125229339Y-105321193D01*
X125229340Y-105321192D01*
X125229340Y-104496194D01*
X123629341Y-104496194D01*
X123629341Y-104621180D01*
X118242596Y-104621180D01*
X118268993Y-104522666D01*
X118268993Y-104380350D01*
X118232158Y-104242882D01*
X118223192Y-104227353D01*
X118161002Y-104119636D01*
X118160997Y-104119630D01*
X118060369Y-104019002D01*
X118060367Y-104019000D01*
X117997861Y-103982912D01*
X117984928Y-103975445D01*
X117937118Y-103947842D01*
X117799650Y-103911007D01*
X117657334Y-103911007D01*
X117588600Y-103929424D01*
X117519865Y-103947842D01*
X117519864Y-103947843D01*
X117396620Y-104018997D01*
X117396615Y-104019001D01*
X117035784Y-104379832D01*
X116974461Y-104413317D01*
X116948103Y-104416151D01*
X116901176Y-104416151D01*
X116547622Y-104769704D01*
X116335491Y-104769704D01*
X116317106Y-104751319D01*
X116283621Y-104689996D01*
X116288605Y-104620304D01*
X116317106Y-104575957D01*
X116689045Y-104204018D01*
X116467945Y-103982918D01*
X116467938Y-103982912D01*
X116377986Y-103913890D01*
X116377983Y-103913888D01*
X116274941Y-103871207D01*
X123629340Y-103871207D01*
X123629340Y-103996194D01*
X125229340Y-103996194D01*
X125729340Y-103996194D01*
X127329339Y-103996194D01*
X127329339Y-103871222D01*
X127329338Y-103871207D01*
X127318845Y-103768496D01*
X127263698Y-103602074D01*
X127263696Y-103602069D01*
X127171655Y-103452848D01*
X127047685Y-103328878D01*
X126898464Y-103236837D01*
X126898459Y-103236835D01*
X126732037Y-103181688D01*
X126732030Y-103181687D01*
X126629326Y-103171194D01*
X125729340Y-103171194D01*
X125729340Y-103996194D01*
X125229340Y-103996194D01*
X125229340Y-103171194D01*
X124329368Y-103171194D01*
X124329352Y-103171195D01*
X124226642Y-103181688D01*
X124060220Y-103236835D01*
X124060215Y-103236837D01*
X123910994Y-103328878D01*
X123787024Y-103452848D01*
X123694983Y-103602069D01*
X123694981Y-103602074D01*
X123639834Y-103768496D01*
X123639833Y-103768503D01*
X123629340Y-103871207D01*
X116274941Y-103871207D01*
X116238109Y-103855951D01*
X116225682Y-103854315D01*
X116161786Y-103826048D01*
X116123316Y-103767723D01*
X116120251Y-103755565D01*
X116114776Y-103728040D01*
X116114775Y-103728037D01*
X116035626Y-103536955D01*
X116035621Y-103536945D01*
X115920716Y-103364978D01*
X115920713Y-103364974D01*
X115774466Y-103218727D01*
X115774462Y-103218724D01*
X115602495Y-103103819D01*
X115602485Y-103103814D01*
X115411399Y-103024663D01*
X115411394Y-103024661D01*
X115355127Y-103013469D01*
X115355127Y-103789339D01*
X115320032Y-103754244D01*
X115240222Y-103708166D01*
X115151205Y-103684314D01*
X115059049Y-103684314D01*
X114970032Y-103708166D01*
X114890222Y-103754244D01*
X114825057Y-103819409D01*
X114778979Y-103899219D01*
X114755127Y-103988236D01*
X114755127Y-104080392D01*
X114778979Y-104169409D01*
X114825057Y-104249219D01*
X114860152Y-104284314D01*
X114084284Y-104284314D01*
X114095477Y-104340588D01*
X114095478Y-104340590D01*
X114174627Y-104531672D01*
X114174632Y-104531682D01*
X114289537Y-104703649D01*
X114289540Y-104703653D01*
X114435787Y-104849900D01*
X114435791Y-104849903D01*
X114552690Y-104928013D01*
X114597495Y-104981625D01*
X114606202Y-105050950D01*
X114576048Y-105113978D01*
X114571481Y-105118796D01*
X114431099Y-105259178D01*
X114359200Y-105352878D01*
X114302772Y-105394081D01*
X114233026Y-105398235D01*
X114173144Y-105365072D01*
X113726268Y-104918198D01*
X113726267Y-104918198D01*
X112594898Y-106049567D01*
X112594898Y-106049568D01*
X113048239Y-106502911D01*
X113081724Y-106564234D01*
X113076740Y-106633926D01*
X113034868Y-106689859D01*
X113008020Y-106705149D01*
X113004706Y-106706521D01*
X113004699Y-106706525D01*
X112914665Y-106775612D01*
X112795496Y-106894781D01*
X112734173Y-106928265D01*
X112664481Y-106923281D01*
X112608548Y-106881409D01*
X112604713Y-106875990D01*
X112526603Y-106759091D01*
X112526600Y-106759087D01*
X112380353Y-106612840D01*
X112380349Y-106612837D01*
X112208382Y-106497932D01*
X112208372Y-106497927D01*
X112017286Y-106418776D01*
X112017281Y-106418774D01*
X111961014Y-106407582D01*
X111961014Y-107183452D01*
X111925919Y-107148357D01*
X111846109Y-107102279D01*
X111757092Y-107078427D01*
X111664936Y-107078427D01*
X111575919Y-107102279D01*
X111496109Y-107148357D01*
X111430944Y-107213522D01*
X111384866Y-107293332D01*
X111361014Y-107382349D01*
X111361014Y-107474505D01*
X111384866Y-107563522D01*
X111430944Y-107643332D01*
X111466039Y-107678427D01*
X110690171Y-107678427D01*
X107554871Y-107678427D01*
X107566077Y-107667221D01*
X107675884Y-107557415D01*
X107745192Y-107488106D01*
X107745197Y-107488101D01*
X107975854Y-107207044D01*
X107994976Y-107178427D01*
X110690171Y-107178427D01*
X111461014Y-107178427D01*
X111461014Y-106407583D01*
X111461013Y-106407582D01*
X111404746Y-106418774D01*
X111404741Y-106418776D01*
X111213655Y-106497927D01*
X111213645Y-106497932D01*
X111041678Y-106612837D01*
X111041674Y-106612840D01*
X110895427Y-106759087D01*
X110895424Y-106759091D01*
X110780519Y-106931058D01*
X110780514Y-106931068D01*
X110701365Y-107122150D01*
X110701364Y-107122152D01*
X110690171Y-107178427D01*
X107994976Y-107178427D01*
X108024001Y-107134988D01*
X108064168Y-107074873D01*
X108177853Y-106904732D01*
X108349247Y-106584076D01*
X108488386Y-106248164D01*
X108593930Y-105900233D01*
X108593932Y-105900223D01*
X108593935Y-105900212D01*
X108659233Y-105571928D01*
X108664862Y-105543631D01*
X108700500Y-105181794D01*
X108700500Y-104818206D01*
X108664862Y-104456369D01*
X108656450Y-104414080D01*
X108593935Y-104099787D01*
X108593932Y-104099776D01*
X108593931Y-104099773D01*
X108593930Y-104099767D01*
X108498238Y-103784314D01*
X114084284Y-103784314D01*
X114855127Y-103784314D01*
X114855127Y-103013470D01*
X114855126Y-103013469D01*
X114798859Y-103024661D01*
X114798854Y-103024663D01*
X114607768Y-103103814D01*
X114607758Y-103103819D01*
X114435791Y-103218724D01*
X114435787Y-103218727D01*
X114289540Y-103364974D01*
X114289537Y-103364978D01*
X114174632Y-103536945D01*
X114174627Y-103536955D01*
X114095478Y-103728037D01*
X114095477Y-103728039D01*
X114084284Y-103784314D01*
X108498238Y-103784314D01*
X108488386Y-103751836D01*
X108349247Y-103415924D01*
X108319552Y-103360369D01*
X108177859Y-103095279D01*
X108177858Y-103095277D01*
X108177853Y-103095268D01*
X107975854Y-102792956D01*
X107745197Y-102511899D01*
X107745196Y-102511898D01*
X107745192Y-102511893D01*
X107488106Y-102254807D01*
X107207049Y-102024150D01*
X107207048Y-102024149D01*
X107207044Y-102024146D01*
X106904732Y-101822147D01*
X106904727Y-101822144D01*
X106904720Y-101822140D01*
X106888843Y-101813654D01*
X106677493Y-101700685D01*
X130001082Y-101700685D01*
X130036536Y-101872384D01*
X130078810Y-101966594D01*
X130078814Y-101966602D01*
X130528796Y-102745992D01*
X130528797Y-102745992D01*
X130926281Y-102516505D01*
X131926279Y-102516505D01*
X131926279Y-102516506D01*
X132726278Y-103902145D01*
X132726279Y-103902145D01*
X132834518Y-103839654D01*
X132834519Y-103839654D01*
X132918221Y-103779213D01*
X132918223Y-103779211D01*
X133034779Y-103648235D01*
X133117990Y-103493913D01*
X133163366Y-103324566D01*
X133168465Y-103149314D01*
X133133011Y-102977615D01*
X133090737Y-102883405D01*
X133090733Y-102883397D01*
X132640750Y-102104006D01*
X132640749Y-102104006D01*
X131926279Y-102516505D01*
X130926281Y-102516505D01*
X131081936Y-102426638D01*
X131243267Y-102333493D01*
X131243267Y-102333492D01*
X130443268Y-100947853D01*
X130443267Y-100947853D01*
X130335039Y-101010340D01*
X130251322Y-101070790D01*
X130134768Y-101201764D01*
X130051557Y-101356086D01*
X130006181Y-101525433D01*
X130001082Y-101700685D01*
X106677493Y-101700685D01*
X106584083Y-101650756D01*
X106584078Y-101650754D01*
X106248165Y-101511614D01*
X105900223Y-101406067D01*
X105900212Y-101406064D01*
X105543630Y-101335137D01*
X105271111Y-101308296D01*
X105181794Y-101299500D01*
X104818206Y-101299500D01*
X104735679Y-101307628D01*
X104456369Y-101335137D01*
X104099787Y-101406064D01*
X104099776Y-101406067D01*
X103751834Y-101511614D01*
X103415921Y-101650754D01*
X103415916Y-101650756D01*
X103095279Y-101822140D01*
X103095261Y-101822151D01*
X102792964Y-102024140D01*
X102792950Y-102024150D01*
X102511893Y-102254807D01*
X102254807Y-102511893D01*
X102024150Y-102792950D01*
X102024140Y-102792964D01*
X101822151Y-103095261D01*
X101822140Y-103095279D01*
X101650756Y-103415916D01*
X101650754Y-103415921D01*
X101511614Y-103751834D01*
X101406067Y-104099776D01*
X101406064Y-104099787D01*
X101335137Y-104456369D01*
X101308789Y-104723891D01*
X101299500Y-104818206D01*
X100508437Y-104818206D01*
X100517386Y-104613228D01*
X100518326Y-104602495D01*
X100568152Y-104224025D01*
X100570025Y-104213405D01*
X100652649Y-103840709D01*
X100655440Y-103830295D01*
X100770230Y-103466227D01*
X100773917Y-103456095D01*
X100920003Y-103103412D01*
X100924561Y-103093638D01*
X101100822Y-102755045D01*
X101106217Y-102745700D01*
X101311325Y-102423744D01*
X101317515Y-102414905D01*
X101549896Y-102112060D01*
X101556834Y-102103791D01*
X101814726Y-101822352D01*
X101822352Y-101814726D01*
X102103791Y-101556834D01*
X102112060Y-101549896D01*
X102414905Y-101317515D01*
X102423744Y-101311325D01*
X102745700Y-101106217D01*
X102755045Y-101100822D01*
X103093638Y-100924561D01*
X103103412Y-100920003D01*
X103456095Y-100773917D01*
X103466227Y-100770230D01*
X103830295Y-100655440D01*
X103840709Y-100652649D01*
X104213405Y-100570025D01*
X104224025Y-100568152D01*
X104602495Y-100518326D01*
X104613226Y-100517386D01*
X104997297Y-100500617D01*
X105002706Y-100500500D01*
X105065892Y-100500500D01*
X130767561Y-100500500D01*
X130834600Y-100520185D01*
G37*
%TD.AperFunction*%
%TD*%
M02*
