%TF.GenerationSoftware,KiCad,Pcbnew,9.0.6*%
%TF.CreationDate,2025-11-26T00:28:20+08:00*%
%TF.ProjectId,gerber,67657262-6572-42e6-9b69-6361645f7063,rev?*%
%TF.SameCoordinates,Original*%
%TF.FileFunction,Paste,Top*%
%TF.FilePolarity,Positive*%
%FSLAX46Y46*%
G04 Gerber Fmt 4.6, Leading zero omitted, Abs format (unit mm)*
G04 Created by KiCad (PCBNEW 9.0.6) date 2025-11-26 00:28:20*
%MOMM*%
%LPD*%
G01*
G04 APERTURE LIST*
G04 Aperture macros list*
%AMRoundRect*
0 Rectangle with rounded corners*
0 $1 Rounding radius*
0 $2 $3 $4 $5 $6 $7 $8 $9 X,Y pos of 4 corners*
0 Add a 4 corners polygon primitive as box body*
4,1,4,$2,$3,$4,$5,$6,$7,$8,$9,$2,$3,0*
0 Add four circle primitives for the rounded corners*
1,1,$1+$1,$2,$3*
1,1,$1+$1,$4,$5*
1,1,$1+$1,$6,$7*
1,1,$1+$1,$8,$9*
0 Add four rect primitives between the rounded corners*
20,1,$1+$1,$2,$3,$4,$5,0*
20,1,$1+$1,$4,$5,$6,$7,0*
20,1,$1+$1,$6,$7,$8,$9,0*
20,1,$1+$1,$8,$9,$2,$3,0*%
G04 Aperture macros list end*
%ADD10RoundRect,0.162500X-0.650000X-0.162500X0.650000X-0.162500X0.650000X0.162500X-0.650000X0.162500X0*%
%ADD11RoundRect,0.250000X1.100000X-0.325000X1.100000X0.325000X-1.100000X0.325000X-1.100000X-0.325000X0*%
%ADD12RoundRect,0.075000X0.425000X-0.075000X0.425000X0.075000X-0.425000X0.075000X-0.425000X-0.075000X0*%
%ADD13C,1.100000*%
%ADD14RoundRect,0.250000X0.268542X-1.115128X0.831458X-0.790128X-0.268542X1.115128X-0.831458X0.790128X0*%
%ADD15RoundRect,0.075000X0.247487X-0.353553X0.353553X-0.247487X-0.247487X0.353553X-0.353553X0.247487X0*%
%ADD16RoundRect,0.075000X-0.277452X-0.330561X-0.147548X-0.405561X0.277452X0.330561X0.147548X0.405561X0*%
%ADD17RoundRect,0.140000X0.170000X-0.140000X0.170000X0.140000X-0.170000X0.140000X-0.170000X-0.140000X0*%
G04 APERTURE END LIST*
D10*
%TO.C,U1*%
X121824340Y-110436194D03*
X121824340Y-111706194D03*
X121824340Y-112976194D03*
X121824340Y-114246194D03*
X128999340Y-114246194D03*
X128999340Y-112976194D03*
X128999340Y-111706194D03*
X128999340Y-110436194D03*
%TD*%
D11*
%TO.C,C2*%
X125479340Y-107196194D03*
X125479340Y-104246194D03*
%TD*%
D12*
%TO.C,J1*%
X135499340Y-112676194D03*
X135499340Y-111886194D03*
X135499340Y-111096194D03*
X135499340Y-110306194D03*
X135499340Y-109516194D03*
X135499340Y-108726194D03*
X135499340Y-107936194D03*
X135499340Y-107146194D03*
X137019340Y-107146194D03*
X137019340Y-107936194D03*
X137019340Y-108726194D03*
X137019340Y-109516194D03*
X137019340Y-110306194D03*
X137019340Y-111096194D03*
X137019340Y-111886194D03*
X137019340Y-112676194D03*
D13*
X134109340Y-112296194D03*
X138409340Y-112296194D03*
X134109340Y-107496194D03*
X138409340Y-107496194D03*
%TD*%
D14*
%TO.C,C3*%
X129030000Y-103900000D03*
X131584774Y-102425000D03*
%TD*%
D15*
%TO.C,J3*%
X112425192Y-108680006D03*
X112983806Y-108121391D03*
X113542421Y-107562777D03*
X114101035Y-107004163D03*
X114659649Y-106445548D03*
X115218264Y-105886934D03*
X115776878Y-105328320D03*
X116335492Y-104769705D03*
X117410295Y-105844508D03*
X116851680Y-106403122D03*
X116293066Y-106961736D03*
X115734452Y-107520351D03*
X115175837Y-108078965D03*
X114617223Y-108637579D03*
X114058609Y-109196194D03*
X113499994Y-109754808D03*
D13*
X111711014Y-107428427D03*
X114751573Y-110468986D03*
X115105127Y-104034314D03*
X118145686Y-107074873D03*
%TD*%
D16*
%TO.C,J4*%
X109459226Y-116669157D03*
X110143387Y-117064156D03*
X110827547Y-117459157D03*
X111511706Y-117854158D03*
X112195867Y-118249156D03*
X112880027Y-118644157D03*
X113564185Y-119039157D03*
X114248347Y-119434156D03*
X113488346Y-120750516D03*
X112804187Y-120355515D03*
X112120027Y-119960515D03*
X111435866Y-119565516D03*
X110751706Y-119170515D03*
X110067547Y-118775514D03*
X109383386Y-118380516D03*
X108699226Y-117985515D03*
D13*
X110483316Y-115655381D03*
X108333317Y-119379290D03*
X114640237Y-118055382D03*
X112490238Y-121779291D03*
%TD*%
D17*
%TO.C,C1*%
X129429340Y-107236194D03*
X129429340Y-106276194D03*
%TD*%
M02*
