%TF.GenerationSoftware,KiCad,Pcbnew,9.0.6*%
%TF.CreationDate,2025-11-26T00:28:20+08:00*%
%TF.ProjectId,gerber,67657262-6572-42e6-9b69-6361645f7063,rev?*%
%TF.SameCoordinates,Original*%
%TF.FileFunction,Legend,Top*%
%TF.FilePolarity,Positive*%
%FSLAX46Y46*%
G04 Gerber Fmt 4.6, Leading zero omitted, Abs format (unit mm)*
G04 Created by KiCad (PCBNEW 9.0.6) date 2025-11-26 00:28:20*
%MOMM*%
%LPD*%
G01*
G04 APERTURE LIST*
%ADD10C,0.150000*%
%ADD11C,0.120000*%
G04 APERTURE END LIST*
D10*
X145956006Y-103811013D02*
X145956006Y-104525298D01*
X145956006Y-104525298D02*
X145908387Y-104668155D01*
X145908387Y-104668155D02*
X145813149Y-104763394D01*
X145813149Y-104763394D02*
X145670292Y-104811013D01*
X145670292Y-104811013D02*
X145575054Y-104811013D01*
X146384578Y-103906251D02*
X146432197Y-103858632D01*
X146432197Y-103858632D02*
X146527435Y-103811013D01*
X146527435Y-103811013D02*
X146765530Y-103811013D01*
X146765530Y-103811013D02*
X146860768Y-103858632D01*
X146860768Y-103858632D02*
X146908387Y-103906251D01*
X146908387Y-103906251D02*
X146956006Y-104001489D01*
X146956006Y-104001489D02*
X146956006Y-104096727D01*
X146956006Y-104096727D02*
X146908387Y-104239584D01*
X146908387Y-104239584D02*
X146336959Y-104811013D01*
X146336959Y-104811013D02*
X146956006Y-104811013D01*
X124649935Y-108196013D02*
X124649935Y-109005536D01*
X124649935Y-109005536D02*
X124697554Y-109100774D01*
X124697554Y-109100774D02*
X124745173Y-109148394D01*
X124745173Y-109148394D02*
X124840411Y-109196013D01*
X124840411Y-109196013D02*
X125030887Y-109196013D01*
X125030887Y-109196013D02*
X125126125Y-109148394D01*
X125126125Y-109148394D02*
X125173744Y-109100774D01*
X125173744Y-109100774D02*
X125221363Y-109005536D01*
X125221363Y-109005536D02*
X125221363Y-108196013D01*
X126221363Y-109196013D02*
X125649935Y-109196013D01*
X125935649Y-109196013D02*
X125935649Y-108196013D01*
X125935649Y-108196013D02*
X125840411Y-108338870D01*
X125840411Y-108338870D02*
X125745173Y-108434108D01*
X125745173Y-108434108D02*
X125649935Y-108481727D01*
X123538920Y-105887860D02*
X123586540Y-105935479D01*
X123586540Y-105935479D02*
X123634159Y-106078336D01*
X123634159Y-106078336D02*
X123634159Y-106173574D01*
X123634159Y-106173574D02*
X123586540Y-106316431D01*
X123586540Y-106316431D02*
X123491301Y-106411669D01*
X123491301Y-106411669D02*
X123396063Y-106459288D01*
X123396063Y-106459288D02*
X123205587Y-106506907D01*
X123205587Y-106506907D02*
X123062730Y-106506907D01*
X123062730Y-106506907D02*
X122872254Y-106459288D01*
X122872254Y-106459288D02*
X122777016Y-106411669D01*
X122777016Y-106411669D02*
X122681778Y-106316431D01*
X122681778Y-106316431D02*
X122634159Y-106173574D01*
X122634159Y-106173574D02*
X122634159Y-106078336D01*
X122634159Y-106078336D02*
X122681778Y-105935479D01*
X122681778Y-105935479D02*
X122729397Y-105887860D01*
X122729397Y-105506907D02*
X122681778Y-105459288D01*
X122681778Y-105459288D02*
X122634159Y-105364050D01*
X122634159Y-105364050D02*
X122634159Y-105125955D01*
X122634159Y-105125955D02*
X122681778Y-105030717D01*
X122681778Y-105030717D02*
X122729397Y-104983098D01*
X122729397Y-104983098D02*
X122824635Y-104935479D01*
X122824635Y-104935479D02*
X122919873Y-104935479D01*
X122919873Y-104935479D02*
X123062730Y-104983098D01*
X123062730Y-104983098D02*
X123634159Y-105554526D01*
X123634159Y-105554526D02*
X123634159Y-104935479D01*
X131714159Y-112729527D02*
X132428444Y-112729527D01*
X132428444Y-112729527D02*
X132571301Y-112777146D01*
X132571301Y-112777146D02*
X132666540Y-112872384D01*
X132666540Y-112872384D02*
X132714159Y-113015241D01*
X132714159Y-113015241D02*
X132714159Y-113110479D01*
X132714159Y-111729527D02*
X132714159Y-112300955D01*
X132714159Y-112015241D02*
X131714159Y-112015241D01*
X131714159Y-112015241D02*
X131857016Y-112110479D01*
X131857016Y-112110479D02*
X131952254Y-112205717D01*
X131952254Y-112205717D02*
X131999873Y-112300955D01*
X129192840Y-101565381D02*
X129175410Y-101630430D01*
X129175410Y-101630430D02*
X129075502Y-101743098D01*
X129075502Y-101743098D02*
X128993023Y-101790717D01*
X128993023Y-101790717D02*
X128845496Y-101820906D01*
X128845496Y-101820906D02*
X128715398Y-101786046D01*
X128715398Y-101786046D02*
X128626540Y-101727377D01*
X128626540Y-101727377D02*
X128490062Y-101586230D01*
X128490062Y-101586230D02*
X128418634Y-101462512D01*
X128418634Y-101462512D02*
X128364635Y-101273745D01*
X128364635Y-101273745D02*
X128358255Y-101167457D01*
X128358255Y-101167457D02*
X128393115Y-101037359D01*
X128393115Y-101037359D02*
X128493023Y-100924691D01*
X128493023Y-100924691D02*
X128575502Y-100877072D01*
X128575502Y-100877072D02*
X128723029Y-100846883D01*
X128723029Y-100846883D02*
X128788078Y-100864313D01*
X129029134Y-100615167D02*
X129565245Y-100305644D01*
X129565245Y-100305644D02*
X129467046Y-100802225D01*
X129467046Y-100802225D02*
X129590764Y-100730796D01*
X129590764Y-100730796D02*
X129697052Y-100724416D01*
X129697052Y-100724416D02*
X129762101Y-100741846D01*
X129762101Y-100741846D02*
X129850959Y-100800515D01*
X129850959Y-100800515D02*
X129970007Y-101006712D01*
X129970007Y-101006712D02*
X129976387Y-101113000D01*
X129976387Y-101113000D02*
X129958957Y-101178049D01*
X129958957Y-101178049D02*
X129900288Y-101266907D01*
X129900288Y-101266907D02*
X129652852Y-101409764D01*
X129652852Y-101409764D02*
X129546564Y-101416144D01*
X129546564Y-101416144D02*
X129481515Y-101398714D01*
X109710952Y-106041191D02*
X110216028Y-106546267D01*
X110216028Y-106546267D02*
X110283372Y-106680954D01*
X110283372Y-106680954D02*
X110283372Y-106815641D01*
X110283372Y-106815641D02*
X110216028Y-106950328D01*
X110216028Y-106950328D02*
X110148685Y-107017672D01*
X109980326Y-105771817D02*
X110418059Y-105334084D01*
X110418059Y-105334084D02*
X110451731Y-105839160D01*
X110451731Y-105839160D02*
X110552746Y-105738145D01*
X110552746Y-105738145D02*
X110653761Y-105704473D01*
X110653761Y-105704473D02*
X110721105Y-105704473D01*
X110721105Y-105704473D02*
X110822120Y-105738145D01*
X110822120Y-105738145D02*
X110990479Y-105906504D01*
X110990479Y-105906504D02*
X111024150Y-106007519D01*
X111024150Y-106007519D02*
X111024150Y-106074862D01*
X111024150Y-106074862D02*
X110990479Y-106175878D01*
X110990479Y-106175878D02*
X110788448Y-106377908D01*
X110788448Y-106377908D02*
X110687433Y-106411580D01*
X110687433Y-106411580D02*
X110620089Y-106411580D01*
X116454743Y-111256092D02*
X116097600Y-111874682D01*
X116097600Y-111874682D02*
X115984932Y-111974590D01*
X115984932Y-111974590D02*
X115854834Y-112009450D01*
X115854834Y-112009450D02*
X115707307Y-111979260D01*
X115707307Y-111979260D02*
X115624828Y-111931641D01*
X117071623Y-111997148D02*
X116738290Y-112574499D01*
X117055903Y-111548186D02*
X116492563Y-112047728D01*
X116492563Y-112047728D02*
X117028674Y-112357252D01*
X144238095Y-141304819D02*
X144238095Y-140304819D01*
X144238095Y-140781009D02*
X144809523Y-140781009D01*
X144809523Y-141304819D02*
X144809523Y-140304819D01*
X145809523Y-141304819D02*
X145238095Y-141304819D01*
X145523809Y-141304819D02*
X145523809Y-140304819D01*
X145523809Y-140304819D02*
X145428571Y-140447676D01*
X145428571Y-140447676D02*
X145333333Y-140542914D01*
X145333333Y-140542914D02*
X145238095Y-140590533D01*
X128628920Y-106922860D02*
X128676540Y-106970479D01*
X128676540Y-106970479D02*
X128724159Y-107113336D01*
X128724159Y-107113336D02*
X128724159Y-107208574D01*
X128724159Y-107208574D02*
X128676540Y-107351431D01*
X128676540Y-107351431D02*
X128581301Y-107446669D01*
X128581301Y-107446669D02*
X128486063Y-107494288D01*
X128486063Y-107494288D02*
X128295587Y-107541907D01*
X128295587Y-107541907D02*
X128152730Y-107541907D01*
X128152730Y-107541907D02*
X127962254Y-107494288D01*
X127962254Y-107494288D02*
X127867016Y-107446669D01*
X127867016Y-107446669D02*
X127771778Y-107351431D01*
X127771778Y-107351431D02*
X127724159Y-107208574D01*
X127724159Y-107208574D02*
X127724159Y-107113336D01*
X127724159Y-107113336D02*
X127771778Y-106970479D01*
X127771778Y-106970479D02*
X127819397Y-106922860D01*
X128724159Y-105970479D02*
X128724159Y-106541907D01*
X128724159Y-106256193D02*
X127724159Y-106256193D01*
X127724159Y-106256193D02*
X127867016Y-106351431D01*
X127867016Y-106351431D02*
X127962254Y-106446669D01*
X127962254Y-106446669D02*
X128009873Y-106541907D01*
X104238095Y-101304819D02*
X104238095Y-100304819D01*
X104238095Y-100781009D02*
X104809523Y-100781009D01*
X104809523Y-101304819D02*
X104809523Y-100304819D01*
X105238095Y-100400057D02*
X105285714Y-100352438D01*
X105285714Y-100352438D02*
X105380952Y-100304819D01*
X105380952Y-100304819D02*
X105619047Y-100304819D01*
X105619047Y-100304819D02*
X105714285Y-100352438D01*
X105714285Y-100352438D02*
X105761904Y-100400057D01*
X105761904Y-100400057D02*
X105809523Y-100495295D01*
X105809523Y-100495295D02*
X105809523Y-100590533D01*
X105809523Y-100590533D02*
X105761904Y-100733390D01*
X105761904Y-100733390D02*
X105190476Y-101304819D01*
X105190476Y-101304819D02*
X105809523Y-101304819D01*
D11*
%TO.C,J2*%
X144909340Y-105356194D02*
X146289340Y-105356194D01*
X144909340Y-106736194D02*
X144909340Y-105356194D01*
X144909340Y-108006194D02*
X144909340Y-115736194D01*
X144909340Y-108006194D02*
X147669340Y-108006194D01*
X144909340Y-115736194D02*
X147669340Y-115736194D01*
X147669340Y-108006194D02*
X147669340Y-115736194D01*
%TO.C,U1*%
X122651840Y-109581194D02*
X128171840Y-109581194D01*
X122651840Y-109851194D02*
X122651840Y-109581194D01*
X122651840Y-115101194D02*
X122651840Y-114831194D01*
X128171840Y-109581194D02*
X128171840Y-109851194D01*
X128171840Y-114831194D02*
X128171840Y-115101194D01*
X128171840Y-115101194D02*
X122651840Y-115101194D01*
X121821840Y-109841194D02*
X121481840Y-109371194D01*
X122161840Y-109371194D01*
X121821840Y-109841194D01*
G36*
X121821840Y-109841194D02*
G01*
X121481840Y-109371194D01*
X122161840Y-109371194D01*
X121821840Y-109841194D01*
G37*
%TO.C,C2*%
X124119340Y-106432446D02*
X124119340Y-105009942D01*
X126839340Y-106432446D02*
X126839340Y-105009942D01*
%TO.C,J1*%
X134089340Y-114316194D02*
X134089340Y-113816194D01*
X134089340Y-114316194D02*
X134589340Y-114316194D01*
X134239340Y-105626194D02*
X134239340Y-106426194D01*
X134239340Y-105626194D02*
X135139340Y-105626194D01*
X134239340Y-114166194D02*
X134239340Y-113366194D01*
X134239340Y-114166194D02*
X135139340Y-114166194D01*
X138279340Y-105626194D02*
X137379340Y-105626194D01*
X138279340Y-105626194D02*
X138279340Y-106426194D01*
X138279340Y-114166194D02*
X137379340Y-114166194D01*
X138279340Y-114166194D02*
X138279340Y-113366194D01*
%TO.C,C3*%
X129011425Y-102340331D02*
X130243349Y-101629079D01*
X130371425Y-104695921D02*
X131603349Y-103984669D01*
%TO.C,J3*%
X110268516Y-108842640D02*
X110622070Y-108489087D01*
X110268516Y-108842640D02*
X110622070Y-109196194D01*
X110480648Y-108842640D02*
X111046334Y-108276955D01*
X110480648Y-108842640D02*
X111117044Y-109479036D01*
X113337360Y-111699352D02*
X112700964Y-111062956D01*
X113337360Y-111699352D02*
X113903045Y-111133666D01*
X116519340Y-102803948D02*
X115953655Y-103369634D01*
X116519340Y-102803948D02*
X117155736Y-103440344D01*
X119376052Y-105660660D02*
X118739656Y-105024264D01*
X119376052Y-105660660D02*
X118810366Y-106226345D01*
%TO.C,J4*%
X106778848Y-118331708D02*
X107228848Y-117552285D01*
X106778848Y-118331708D02*
X107471669Y-118731707D01*
X108743945Y-114628061D02*
X108493944Y-115061074D01*
X108743945Y-114628061D02*
X109176957Y-114878061D01*
X108798849Y-114832964D02*
X108348849Y-115612387D01*
X108798849Y-114832964D02*
X109491669Y-115232965D01*
X114174705Y-122601708D02*
X113481885Y-122201707D01*
X114174705Y-122601708D02*
X114624705Y-121822285D01*
X116194706Y-119102964D02*
X115501885Y-118702965D01*
X116194706Y-119102964D02*
X115744706Y-119882387D01*
%TO.C,C1*%
X129069340Y-106864030D02*
X129069340Y-106648358D01*
X129789340Y-106864030D02*
X129789340Y-106648358D01*
%TD*%
M02*
