%TF.GenerationSoftware,KiCad,Pcbnew,9.0.6*%
%TF.CreationDate,2025-11-26T03:54:16+08:00*%
%TF.ProjectId,gerber,67657262-6572-42e6-9b69-6361645f7063,rev?*%
%TF.SameCoordinates,Original*%
%TF.FileFunction,Legend,Top*%
%TF.FilePolarity,Positive*%
%FSLAX46Y46*%
G04 Gerber Fmt 4.6, Leading zero omitted, Abs format (unit mm)*
G04 Created by KiCad (PCBNEW 9.0.6) date 2025-11-26 03:54:16*
%MOMM*%
%LPD*%
G01*
G04 APERTURE LIST*
G04 Aperture macros list*
%AMRoundRect*
0 Rectangle with rounded corners*
0 $1 Rounding radius*
0 $2 $3 $4 $5 $6 $7 $8 $9 X,Y pos of 4 corners*
0 Add a 4 corners polygon primitive as box body*
4,1,4,$2,$3,$4,$5,$6,$7,$8,$9,$2,$3,0*
0 Add four circle primitives for the rounded corners*
1,1,$1+$1,$2,$3*
1,1,$1+$1,$4,$5*
1,1,$1+$1,$6,$7*
1,1,$1+$1,$8,$9*
0 Add four rect primitives between the rounded corners*
20,1,$1+$1,$2,$3,$4,$5,0*
20,1,$1+$1,$4,$5,$6,$7,0*
20,1,$1+$1,$6,$7,$8,$9,0*
20,1,$1+$1,$8,$9,$2,$3,0*%
%AMHorizOval*
0 Thick line with rounded ends*
0 $1 width*
0 $2 $3 position (X,Y) of the first rounded end (center of the circle)*
0 $4 $5 position (X,Y) of the second rounded end (center of the circle)*
0 Add line between two ends*
20,1,$1,$2,$3,$4,$5,0*
0 Add two circle primitives to create the rounded ends*
1,1,$1,$2,$3*
1,1,$1,$4,$5*%
G04 Aperture macros list end*
%ADD10C,0.150000*%
%ADD11C,0.120000*%
%ADD12R,1.700000X1.700000*%
%ADD13C,1.700000*%
%ADD14RoundRect,0.162500X-0.650000X-0.162500X0.650000X-0.162500X0.650000X0.162500X-0.650000X0.162500X0*%
%ADD15RoundRect,0.250000X1.100000X-0.325000X1.100000X0.325000X-1.100000X0.325000X-1.100000X-0.325000X0*%
%ADD16C,0.660000*%
%ADD17O,0.580000X1.000000*%
%ADD18RoundRect,0.075000X0.425000X-0.075000X0.425000X0.075000X-0.425000X0.075000X-0.425000X-0.075000X0*%
%ADD19C,1.100000*%
%ADD20RoundRect,0.250000X0.268542X-1.115128X0.831458X-0.790128X-0.268542X1.115128X-0.831458X0.790128X0*%
%ADD21HorizOval,0.580000X0.148492X0.148492X-0.148492X-0.148492X0*%
%ADD22RoundRect,0.075000X0.247487X-0.353553X0.353553X-0.247487X-0.247487X0.353553X-0.353553X0.247487X0*%
%ADD23HorizOval,0.580000X0.181865X-0.105000X-0.181865X0.105000X0*%
%ADD24RoundRect,0.075000X-0.277452X-0.330561X-0.147548X-0.405561X0.277452X0.330561X0.147548X0.405561X0*%
%ADD25C,3.200000*%
%ADD26RoundRect,0.140000X0.170000X-0.140000X0.170000X0.140000X-0.170000X0.140000X-0.170000X-0.140000X0*%
%ADD27C,6.400000*%
G04 APERTURE END LIST*
D10*
X145956006Y-103811013D02*
X145956006Y-104525298D01*
X145956006Y-104525298D02*
X145908387Y-104668155D01*
X145908387Y-104668155D02*
X145813149Y-104763394D01*
X145813149Y-104763394D02*
X145670292Y-104811013D01*
X145670292Y-104811013D02*
X145575054Y-104811013D01*
X146384578Y-103906251D02*
X146432197Y-103858632D01*
X146432197Y-103858632D02*
X146527435Y-103811013D01*
X146527435Y-103811013D02*
X146765530Y-103811013D01*
X146765530Y-103811013D02*
X146860768Y-103858632D01*
X146860768Y-103858632D02*
X146908387Y-103906251D01*
X146908387Y-103906251D02*
X146956006Y-104001489D01*
X146956006Y-104001489D02*
X146956006Y-104096727D01*
X146956006Y-104096727D02*
X146908387Y-104239584D01*
X146908387Y-104239584D02*
X146336959Y-104811013D01*
X146336959Y-104811013D02*
X146956006Y-104811013D01*
X124649935Y-108196013D02*
X124649935Y-109005536D01*
X124649935Y-109005536D02*
X124697554Y-109100774D01*
X124697554Y-109100774D02*
X124745173Y-109148394D01*
X124745173Y-109148394D02*
X124840411Y-109196013D01*
X124840411Y-109196013D02*
X125030887Y-109196013D01*
X125030887Y-109196013D02*
X125126125Y-109148394D01*
X125126125Y-109148394D02*
X125173744Y-109100774D01*
X125173744Y-109100774D02*
X125221363Y-109005536D01*
X125221363Y-109005536D02*
X125221363Y-108196013D01*
X126221363Y-109196013D02*
X125649935Y-109196013D01*
X125935649Y-109196013D02*
X125935649Y-108196013D01*
X125935649Y-108196013D02*
X125840411Y-108338870D01*
X125840411Y-108338870D02*
X125745173Y-108434108D01*
X125745173Y-108434108D02*
X125649935Y-108481727D01*
X123538920Y-105887860D02*
X123586540Y-105935479D01*
X123586540Y-105935479D02*
X123634159Y-106078336D01*
X123634159Y-106078336D02*
X123634159Y-106173574D01*
X123634159Y-106173574D02*
X123586540Y-106316431D01*
X123586540Y-106316431D02*
X123491301Y-106411669D01*
X123491301Y-106411669D02*
X123396063Y-106459288D01*
X123396063Y-106459288D02*
X123205587Y-106506907D01*
X123205587Y-106506907D02*
X123062730Y-106506907D01*
X123062730Y-106506907D02*
X122872254Y-106459288D01*
X122872254Y-106459288D02*
X122777016Y-106411669D01*
X122777016Y-106411669D02*
X122681778Y-106316431D01*
X122681778Y-106316431D02*
X122634159Y-106173574D01*
X122634159Y-106173574D02*
X122634159Y-106078336D01*
X122634159Y-106078336D02*
X122681778Y-105935479D01*
X122681778Y-105935479D02*
X122729397Y-105887860D01*
X122729397Y-105506907D02*
X122681778Y-105459288D01*
X122681778Y-105459288D02*
X122634159Y-105364050D01*
X122634159Y-105364050D02*
X122634159Y-105125955D01*
X122634159Y-105125955D02*
X122681778Y-105030717D01*
X122681778Y-105030717D02*
X122729397Y-104983098D01*
X122729397Y-104983098D02*
X122824635Y-104935479D01*
X122824635Y-104935479D02*
X122919873Y-104935479D01*
X122919873Y-104935479D02*
X123062730Y-104983098D01*
X123062730Y-104983098D02*
X123634159Y-105554526D01*
X123634159Y-105554526D02*
X123634159Y-104935479D01*
X131714159Y-112729527D02*
X132428444Y-112729527D01*
X132428444Y-112729527D02*
X132571301Y-112777146D01*
X132571301Y-112777146D02*
X132666540Y-112872384D01*
X132666540Y-112872384D02*
X132714159Y-113015241D01*
X132714159Y-113015241D02*
X132714159Y-113110479D01*
X132714159Y-111729527D02*
X132714159Y-112300955D01*
X132714159Y-112015241D02*
X131714159Y-112015241D01*
X131714159Y-112015241D02*
X131857016Y-112110479D01*
X131857016Y-112110479D02*
X131952254Y-112205717D01*
X131952254Y-112205717D02*
X131999873Y-112300955D01*
X129192840Y-101565381D02*
X129175410Y-101630430D01*
X129175410Y-101630430D02*
X129075502Y-101743098D01*
X129075502Y-101743098D02*
X128993023Y-101790717D01*
X128993023Y-101790717D02*
X128845496Y-101820906D01*
X128845496Y-101820906D02*
X128715398Y-101786046D01*
X128715398Y-101786046D02*
X128626540Y-101727377D01*
X128626540Y-101727377D02*
X128490062Y-101586230D01*
X128490062Y-101586230D02*
X128418634Y-101462512D01*
X128418634Y-101462512D02*
X128364635Y-101273745D01*
X128364635Y-101273745D02*
X128358255Y-101167457D01*
X128358255Y-101167457D02*
X128393115Y-101037359D01*
X128393115Y-101037359D02*
X128493023Y-100924691D01*
X128493023Y-100924691D02*
X128575502Y-100877072D01*
X128575502Y-100877072D02*
X128723029Y-100846883D01*
X128723029Y-100846883D02*
X128788078Y-100864313D01*
X129029134Y-100615167D02*
X129565245Y-100305644D01*
X129565245Y-100305644D02*
X129467046Y-100802225D01*
X129467046Y-100802225D02*
X129590764Y-100730796D01*
X129590764Y-100730796D02*
X129697052Y-100724416D01*
X129697052Y-100724416D02*
X129762101Y-100741846D01*
X129762101Y-100741846D02*
X129850959Y-100800515D01*
X129850959Y-100800515D02*
X129970007Y-101006712D01*
X129970007Y-101006712D02*
X129976387Y-101113000D01*
X129976387Y-101113000D02*
X129958957Y-101178049D01*
X129958957Y-101178049D02*
X129900288Y-101266907D01*
X129900288Y-101266907D02*
X129652852Y-101409764D01*
X129652852Y-101409764D02*
X129546564Y-101416144D01*
X129546564Y-101416144D02*
X129481515Y-101398714D01*
X109710952Y-106041191D02*
X110216028Y-106546267D01*
X110216028Y-106546267D02*
X110283372Y-106680954D01*
X110283372Y-106680954D02*
X110283372Y-106815641D01*
X110283372Y-106815641D02*
X110216028Y-106950328D01*
X110216028Y-106950328D02*
X110148685Y-107017672D01*
X109980326Y-105771817D02*
X110418059Y-105334084D01*
X110418059Y-105334084D02*
X110451731Y-105839160D01*
X110451731Y-105839160D02*
X110552746Y-105738145D01*
X110552746Y-105738145D02*
X110653761Y-105704473D01*
X110653761Y-105704473D02*
X110721105Y-105704473D01*
X110721105Y-105704473D02*
X110822120Y-105738145D01*
X110822120Y-105738145D02*
X110990479Y-105906504D01*
X110990479Y-105906504D02*
X111024150Y-106007519D01*
X111024150Y-106007519D02*
X111024150Y-106074862D01*
X111024150Y-106074862D02*
X110990479Y-106175878D01*
X110990479Y-106175878D02*
X110788448Y-106377908D01*
X110788448Y-106377908D02*
X110687433Y-106411580D01*
X110687433Y-106411580D02*
X110620089Y-106411580D01*
X116454743Y-111256092D02*
X116097600Y-111874682D01*
X116097600Y-111874682D02*
X115984932Y-111974590D01*
X115984932Y-111974590D02*
X115854834Y-112009450D01*
X115854834Y-112009450D02*
X115707307Y-111979260D01*
X115707307Y-111979260D02*
X115624828Y-111931641D01*
X117071623Y-111997148D02*
X116738290Y-112574499D01*
X117055903Y-111548186D02*
X116492563Y-112047728D01*
X116492563Y-112047728D02*
X117028674Y-112357252D01*
X144238095Y-141304819D02*
X144238095Y-140304819D01*
X144238095Y-140781009D02*
X144809523Y-140781009D01*
X144809523Y-141304819D02*
X144809523Y-140304819D01*
X145809523Y-141304819D02*
X145238095Y-141304819D01*
X145523809Y-141304819D02*
X145523809Y-140304819D01*
X145523809Y-140304819D02*
X145428571Y-140447676D01*
X145428571Y-140447676D02*
X145333333Y-140542914D01*
X145333333Y-140542914D02*
X145238095Y-140590533D01*
X128628920Y-106922860D02*
X128676540Y-106970479D01*
X128676540Y-106970479D02*
X128724159Y-107113336D01*
X128724159Y-107113336D02*
X128724159Y-107208574D01*
X128724159Y-107208574D02*
X128676540Y-107351431D01*
X128676540Y-107351431D02*
X128581301Y-107446669D01*
X128581301Y-107446669D02*
X128486063Y-107494288D01*
X128486063Y-107494288D02*
X128295587Y-107541907D01*
X128295587Y-107541907D02*
X128152730Y-107541907D01*
X128152730Y-107541907D02*
X127962254Y-107494288D01*
X127962254Y-107494288D02*
X127867016Y-107446669D01*
X127867016Y-107446669D02*
X127771778Y-107351431D01*
X127771778Y-107351431D02*
X127724159Y-107208574D01*
X127724159Y-107208574D02*
X127724159Y-107113336D01*
X127724159Y-107113336D02*
X127771778Y-106970479D01*
X127771778Y-106970479D02*
X127819397Y-106922860D01*
X128724159Y-105970479D02*
X128724159Y-106541907D01*
X128724159Y-106256193D02*
X127724159Y-106256193D01*
X127724159Y-106256193D02*
X127867016Y-106351431D01*
X127867016Y-106351431D02*
X127962254Y-106446669D01*
X127962254Y-106446669D02*
X128009873Y-106541907D01*
X104238095Y-101304819D02*
X104238095Y-100304819D01*
X104238095Y-100781009D02*
X104809523Y-100781009D01*
X104809523Y-101304819D02*
X104809523Y-100304819D01*
X105238095Y-100400057D02*
X105285714Y-100352438D01*
X105285714Y-100352438D02*
X105380952Y-100304819D01*
X105380952Y-100304819D02*
X105619047Y-100304819D01*
X105619047Y-100304819D02*
X105714285Y-100352438D01*
X105714285Y-100352438D02*
X105761904Y-100400057D01*
X105761904Y-100400057D02*
X105809523Y-100495295D01*
X105809523Y-100495295D02*
X105809523Y-100590533D01*
X105809523Y-100590533D02*
X105761904Y-100733390D01*
X105761904Y-100733390D02*
X105190476Y-101304819D01*
X105190476Y-101304819D02*
X105809523Y-101304819D01*
D11*
%TO.C,J2*%
X144909340Y-105356194D02*
X146289340Y-105356194D01*
X144909340Y-106736194D02*
X144909340Y-105356194D01*
X144909340Y-108006194D02*
X144909340Y-115736194D01*
X144909340Y-108006194D02*
X147669340Y-108006194D01*
X144909340Y-115736194D02*
X147669340Y-115736194D01*
X147669340Y-108006194D02*
X147669340Y-115736194D01*
%TO.C,U1*%
X122651840Y-109581194D02*
X128171840Y-109581194D01*
X122651840Y-109851194D02*
X122651840Y-109581194D01*
X122651840Y-115101194D02*
X122651840Y-114831194D01*
X128171840Y-109581194D02*
X128171840Y-109851194D01*
X128171840Y-114831194D02*
X128171840Y-115101194D01*
X128171840Y-115101194D02*
X122651840Y-115101194D01*
X121821840Y-109841194D02*
X121481840Y-109371194D01*
X122161840Y-109371194D01*
X121821840Y-109841194D01*
G36*
X121821840Y-109841194D02*
G01*
X121481840Y-109371194D01*
X122161840Y-109371194D01*
X121821840Y-109841194D01*
G37*
%TO.C,C2*%
X124119340Y-106432446D02*
X124119340Y-105009942D01*
X126839340Y-106432446D02*
X126839340Y-105009942D01*
%TO.C,J1*%
X134089340Y-114316194D02*
X134089340Y-113816194D01*
X134089340Y-114316194D02*
X134589340Y-114316194D01*
X134239340Y-105626194D02*
X134239340Y-106426194D01*
X134239340Y-105626194D02*
X135139340Y-105626194D01*
X134239340Y-114166194D02*
X134239340Y-113366194D01*
X134239340Y-114166194D02*
X135139340Y-114166194D01*
X138279340Y-105626194D02*
X137379340Y-105626194D01*
X138279340Y-105626194D02*
X138279340Y-106426194D01*
X138279340Y-114166194D02*
X137379340Y-114166194D01*
X138279340Y-114166194D02*
X138279340Y-113366194D01*
%TO.C,C3*%
X129011425Y-102340331D02*
X130243349Y-101629079D01*
X130371425Y-104695921D02*
X131603349Y-103984669D01*
%TO.C,J3*%
X110268516Y-108842640D02*
X110622070Y-108489087D01*
X110268516Y-108842640D02*
X110622070Y-109196194D01*
X110480648Y-108842640D02*
X111046334Y-108276955D01*
X110480648Y-108842640D02*
X111117044Y-109479036D01*
X113337360Y-111699352D02*
X112700964Y-111062956D01*
X113337360Y-111699352D02*
X113903045Y-111133666D01*
X116519340Y-102803948D02*
X115953655Y-103369634D01*
X116519340Y-102803948D02*
X117155736Y-103440344D01*
X119376052Y-105660660D02*
X118739656Y-105024264D01*
X119376052Y-105660660D02*
X118810366Y-106226345D01*
%TO.C,J4*%
X106778848Y-118331708D02*
X107228848Y-117552285D01*
X106778848Y-118331708D02*
X107471669Y-118731707D01*
X108743945Y-114628061D02*
X108493944Y-115061074D01*
X108743945Y-114628061D02*
X109176957Y-114878061D01*
X108798849Y-114832964D02*
X108348849Y-115612387D01*
X108798849Y-114832964D02*
X109491669Y-115232965D01*
X114174705Y-122601708D02*
X113481885Y-122201707D01*
X114174705Y-122601708D02*
X114624705Y-121822285D01*
X116194706Y-119102964D02*
X115501885Y-118702965D01*
X116194706Y-119102964D02*
X115744706Y-119882387D01*
%TO.C,C1*%
X129069340Y-106864030D02*
X129069340Y-106648358D01*
X129789340Y-106864030D02*
X129789340Y-106648358D01*
%TD*%
%LPC*%
D12*
%TO.C,J2*%
X146289340Y-106736194D03*
D13*
X146289340Y-109276194D03*
X146289340Y-111816194D03*
X146289340Y-114356194D03*
%TD*%
D14*
%TO.C,U1*%
X121824340Y-110436194D03*
X121824340Y-111706194D03*
X121824340Y-112976194D03*
X121824340Y-114246194D03*
X128999340Y-114246194D03*
X128999340Y-112976194D03*
X128999340Y-111706194D03*
X128999340Y-110436194D03*
%TD*%
D15*
%TO.C,C2*%
X125479340Y-107196194D03*
X125479340Y-104246194D03*
%TD*%
D16*
%TO.C,J1*%
X136259340Y-113646194D03*
D17*
X136259340Y-106146194D03*
D18*
X135499340Y-112676194D03*
X135499340Y-111886194D03*
X135499340Y-111096194D03*
X135499340Y-110306194D03*
X135499340Y-109516194D03*
X135499340Y-108726194D03*
X135499340Y-107936194D03*
X135499340Y-107146194D03*
X137019340Y-107146194D03*
X137019340Y-107936194D03*
X137019340Y-108726194D03*
X137019340Y-109516194D03*
X137019340Y-110306194D03*
X137019340Y-111096194D03*
X137019340Y-111886194D03*
X137019340Y-112676194D03*
D19*
X134109340Y-112296194D03*
X138409340Y-112296194D03*
X134109340Y-107496194D03*
X138409340Y-107496194D03*
%TD*%
D20*
%TO.C,C3*%
X129030000Y-103900000D03*
X131584774Y-102425000D03*
%TD*%
D16*
%TO.C,J3*%
X112276700Y-109903300D03*
D21*
X117580000Y-104600000D03*
D22*
X112425192Y-108680006D03*
X112983806Y-108121391D03*
X113542421Y-107562777D03*
X114101035Y-107004163D03*
X114659649Y-106445548D03*
X115218264Y-105886934D03*
X115776878Y-105328320D03*
X116335492Y-104769705D03*
X117410295Y-105844508D03*
X116851680Y-106403122D03*
X116293066Y-106961736D03*
X115734452Y-107520351D03*
X115175837Y-108078965D03*
X114617223Y-108637579D03*
X114058609Y-109196194D03*
X113499994Y-109754808D03*
D19*
X111711014Y-107428427D03*
X114751573Y-110468986D03*
X115105127Y-104034314D03*
X118145686Y-107074873D03*
%TD*%
D16*
%TO.C,J4*%
X108239182Y-116842336D03*
D23*
X114734372Y-120592336D03*
D24*
X109459226Y-116669157D03*
X110143387Y-117064156D03*
X110827547Y-117459157D03*
X111511706Y-117854158D03*
X112195867Y-118249156D03*
X112880027Y-118644157D03*
X113564185Y-119039157D03*
X114248347Y-119434156D03*
X113488346Y-120750516D03*
X112804187Y-120355515D03*
X112120027Y-119960515D03*
X111435866Y-119565516D03*
X110751706Y-119170515D03*
X110067547Y-118775514D03*
X109383386Y-118380516D03*
X108699226Y-117985515D03*
D19*
X110483316Y-115655381D03*
X108333317Y-119379290D03*
X114640237Y-118055382D03*
X112490238Y-121779291D03*
%TD*%
D25*
%TO.C,H1*%
X145000000Y-145000000D03*
%TD*%
D26*
%TO.C,C1*%
X129429340Y-107236194D03*
X129429340Y-106276194D03*
%TD*%
D27*
%TO.C,H2*%
X105000000Y-105000000D03*
%TD*%
%LPD*%
M02*
