%TF.GenerationSoftware,KiCad,Pcbnew,9.0.6*%
%TF.CreationDate,2025-11-24T11:17:01+08:00*%
%TF.ProjectId,gerber,67657262-6572-42e6-9b69-6361645f7063,rev?*%
%TF.SameCoordinates,Original*%
%TF.FileFunction,Copper,L2,Bot*%
%TF.FilePolarity,Positive*%
%FSLAX46Y46*%
G04 Gerber Fmt 4.6, Leading zero omitted, Abs format (unit mm)*
G04 Created by KiCad (PCBNEW 9.0.6) date 2025-11-24 11:17:01*
%MOMM*%
%LPD*%
G01*
G04 APERTURE LIST*
%TA.AperFunction,HeatsinkPad*%
%ADD10C,1.100000*%
%TD*%
%TA.AperFunction,ComponentPad*%
%ADD11R,1.700000X1.700000*%
%TD*%
%TA.AperFunction,ComponentPad*%
%ADD12C,1.700000*%
%TD*%
%TA.AperFunction,ComponentPad*%
%ADD13C,6.400000*%
%TD*%
%TA.AperFunction,ViaPad*%
%ADD14C,0.600000*%
%TD*%
G04 APERTURE END LIST*
D10*
%TO.P,J3,S1,SHIELD*%
%TO.N,GND*%
X104042664Y-115376777D03*
X107083223Y-118417336D03*
X107436777Y-111982664D03*
X110477336Y-115023223D03*
%TD*%
D11*
%TO.P,J2,1,Pin_1*%
%TO.N,unconnected-(J2-Pin_1-Pad1)*%
X140770000Y-107440000D03*
D12*
%TO.P,J2,2,Pin_2*%
%TO.N,Net-(J2-Pin_2)*%
X140770000Y-109980000D03*
%TO.P,J2,3,Pin_3*%
%TO.N,Net-(J2-Pin_3)*%
X140770000Y-112520000D03*
%TO.P,J2,4,Pin_4*%
%TO.N,GND*%
X140770000Y-115060000D03*
%TD*%
D10*
%TO.P,J1,S1,SHIELD*%
%TO.N,GND*%
X128590000Y-113000000D03*
X132890000Y-113000000D03*
X128590000Y-108200000D03*
X132890000Y-108200000D03*
%TD*%
D13*
%TO.P,H2,1,1*%
%TO.N,unconnected-(H2-Pad1)*%
X105000000Y-105000000D03*
%TD*%
D14*
%TO.N,*%
X149010000Y-126390000D03*
%TO.N,GND*%
X148980000Y-123810000D03*
%TD*%
%TA.AperFunction,Conductor*%
%TO.N,GND*%
G36*
X145002702Y-100500617D02*
G01*
X145386771Y-100517386D01*
X145397506Y-100518326D01*
X145775971Y-100568152D01*
X145786597Y-100570025D01*
X146159284Y-100652648D01*
X146169710Y-100655442D01*
X146533765Y-100770227D01*
X146543911Y-100773920D01*
X146896578Y-100920000D01*
X146906369Y-100924566D01*
X147244942Y-101100816D01*
X147254310Y-101106224D01*
X147576244Y-101311318D01*
X147585105Y-101317523D01*
X147887930Y-101549889D01*
X147896217Y-101556843D01*
X148177635Y-101814715D01*
X148185284Y-101822364D01*
X148443156Y-102103782D01*
X148450110Y-102112069D01*
X148682476Y-102414894D01*
X148688681Y-102423755D01*
X148893775Y-102745689D01*
X148899183Y-102755057D01*
X149075430Y-103093623D01*
X149080002Y-103103427D01*
X149226075Y-103456078D01*
X149229775Y-103466244D01*
X149344554Y-103830278D01*
X149347354Y-103840727D01*
X149429971Y-104213389D01*
X149431849Y-104224042D01*
X149481671Y-104602473D01*
X149482614Y-104613249D01*
X149499382Y-104997297D01*
X149499500Y-105002706D01*
X149499500Y-124891874D01*
X149479815Y-124958913D01*
X149427011Y-125004668D01*
X149375895Y-125015873D01*
X130624895Y-125075612D01*
X130557793Y-125056141D01*
X130511870Y-125003484D01*
X130500500Y-124951613D01*
X130500500Y-121848745D01*
X130492235Y-121780680D01*
X130464037Y-121548449D01*
X130391643Y-121254734D01*
X130391642Y-121254731D01*
X130391641Y-121254727D01*
X130284371Y-120971882D01*
X130143793Y-120704035D01*
X130143787Y-120704026D01*
X129971952Y-120455078D01*
X129971947Y-120455072D01*
X129771353Y-120228648D01*
X129771351Y-120228646D01*
X129544927Y-120028052D01*
X129544921Y-120028047D01*
X129295973Y-119856212D01*
X129295964Y-119856206D01*
X129028117Y-119715628D01*
X128745272Y-119608358D01*
X128629820Y-119579902D01*
X128451551Y-119535963D01*
X128271371Y-119514085D01*
X128151254Y-119499500D01*
X128151252Y-119499500D01*
X128065892Y-119499500D01*
X122065892Y-119499500D01*
X122000000Y-119499500D01*
X121848748Y-119499500D01*
X121848746Y-119499500D01*
X121698598Y-119517731D01*
X121548449Y-119535963D01*
X121429602Y-119565255D01*
X121254727Y-119608358D01*
X120971882Y-119715628D01*
X120704035Y-119856206D01*
X120704026Y-119856212D01*
X120455078Y-120028047D01*
X120455072Y-120028052D01*
X120228648Y-120228646D01*
X120228646Y-120228648D01*
X120028052Y-120455072D01*
X120028047Y-120455078D01*
X119856212Y-120704026D01*
X119856206Y-120704035D01*
X119715628Y-120971882D01*
X119608358Y-121254727D01*
X119578200Y-121377085D01*
X119535963Y-121548449D01*
X119521377Y-121668568D01*
X119499500Y-121848745D01*
X119499500Y-124987452D01*
X119479815Y-125054491D01*
X119427011Y-125100246D01*
X119375895Y-125111451D01*
X100624895Y-125171190D01*
X100557793Y-125151719D01*
X100511870Y-125099062D01*
X100500500Y-125047191D01*
X100500500Y-118667336D01*
X106062380Y-118667336D01*
X106073573Y-118723610D01*
X106073574Y-118723612D01*
X106152723Y-118914694D01*
X106152728Y-118914704D01*
X106267633Y-119086671D01*
X106267636Y-119086675D01*
X106413883Y-119232922D01*
X106413887Y-119232925D01*
X106585854Y-119347830D01*
X106585864Y-119347835D01*
X106776946Y-119426984D01*
X106776948Y-119426985D01*
X106833223Y-119438178D01*
X107333223Y-119438178D01*
X107389497Y-119426985D01*
X107389499Y-119426984D01*
X107580581Y-119347835D01*
X107580591Y-119347830D01*
X107752558Y-119232925D01*
X107752562Y-119232922D01*
X107898809Y-119086675D01*
X107898812Y-119086671D01*
X108013717Y-118914704D01*
X108013722Y-118914694D01*
X108092871Y-118723612D01*
X108092872Y-118723610D01*
X108104066Y-118667336D01*
X107333223Y-118667336D01*
X107333223Y-119438178D01*
X106833223Y-119438178D01*
X106833223Y-118667336D01*
X106062380Y-118667336D01*
X100500500Y-118667336D01*
X100500500Y-117775226D01*
X104027850Y-117775226D01*
X104027850Y-117928074D01*
X104067410Y-118075715D01*
X104143834Y-118208085D01*
X104251915Y-118316166D01*
X104384285Y-118392590D01*
X104531926Y-118432150D01*
X104531928Y-118432150D01*
X104684772Y-118432150D01*
X104684774Y-118432150D01*
X104832415Y-118392590D01*
X104869363Y-118371258D01*
X106733223Y-118371258D01*
X106733223Y-118463414D01*
X106757075Y-118552431D01*
X106803153Y-118632241D01*
X106868318Y-118697406D01*
X106948128Y-118743484D01*
X107037145Y-118767336D01*
X107129301Y-118767336D01*
X107218318Y-118743484D01*
X107298128Y-118697406D01*
X107363293Y-118632241D01*
X107409371Y-118552431D01*
X107433223Y-118463414D01*
X107433223Y-118371258D01*
X107409371Y-118282241D01*
X107363293Y-118202431D01*
X107328198Y-118167336D01*
X107333223Y-118167336D01*
X108104066Y-118167336D01*
X108092872Y-118111061D01*
X108092871Y-118111059D01*
X108013722Y-117919977D01*
X108013717Y-117919967D01*
X107898812Y-117748000D01*
X107898809Y-117747996D01*
X107752562Y-117601749D01*
X107752558Y-117601746D01*
X107580591Y-117486841D01*
X107580581Y-117486836D01*
X107389495Y-117407685D01*
X107389490Y-117407683D01*
X107333223Y-117396491D01*
X107333223Y-118167336D01*
X107328198Y-118167336D01*
X107298128Y-118137266D01*
X107218318Y-118091188D01*
X107129301Y-118067336D01*
X107037145Y-118067336D01*
X106948128Y-118091188D01*
X106868318Y-118137266D01*
X106803153Y-118202431D01*
X106757075Y-118282241D01*
X106733223Y-118371258D01*
X104869363Y-118371258D01*
X104964785Y-118316166D01*
X105072866Y-118208085D01*
X105096392Y-118167336D01*
X106062380Y-118167336D01*
X106833223Y-118167336D01*
X106833223Y-117396492D01*
X106833222Y-117396491D01*
X106776955Y-117407683D01*
X106776950Y-117407685D01*
X106585864Y-117486836D01*
X106585854Y-117486841D01*
X106413887Y-117601746D01*
X106413883Y-117601749D01*
X106267636Y-117747996D01*
X106267633Y-117748000D01*
X106152728Y-117919967D01*
X106152723Y-117919977D01*
X106073574Y-118111059D01*
X106073573Y-118111061D01*
X106062380Y-118167336D01*
X105096392Y-118167336D01*
X105149290Y-118075715D01*
X105188850Y-117928074D01*
X105188850Y-117775226D01*
X105149290Y-117627585D01*
X105072866Y-117495215D01*
X104964785Y-117387134D01*
X104832415Y-117310710D01*
X104684774Y-117271150D01*
X104531926Y-117271150D01*
X104384285Y-117310710D01*
X104384282Y-117310711D01*
X104251918Y-117387132D01*
X104251912Y-117387136D01*
X104143836Y-117495212D01*
X104143832Y-117495218D01*
X104067411Y-117627582D01*
X104067410Y-117627585D01*
X104027850Y-117775226D01*
X100500500Y-117775226D01*
X100500500Y-115626777D01*
X103021821Y-115626777D01*
X103033014Y-115683051D01*
X103033015Y-115683053D01*
X103112164Y-115874135D01*
X103112169Y-115874145D01*
X103227074Y-116046112D01*
X103227077Y-116046116D01*
X103373324Y-116192363D01*
X103373328Y-116192366D01*
X103545295Y-116307271D01*
X103545305Y-116307276D01*
X103736387Y-116386425D01*
X103736389Y-116386426D01*
X103792664Y-116397619D01*
X104292664Y-116397619D01*
X104348938Y-116386426D01*
X104348940Y-116386425D01*
X104540022Y-116307276D01*
X104540032Y-116307271D01*
X104711999Y-116192366D01*
X104712003Y-116192363D01*
X104858250Y-116046116D01*
X104858253Y-116046112D01*
X104973158Y-115874145D01*
X104973163Y-115874135D01*
X105052312Y-115683053D01*
X105052313Y-115683051D01*
X105063507Y-115626777D01*
X104292664Y-115626777D01*
X104292664Y-116397619D01*
X103792664Y-116397619D01*
X103792664Y-115626777D01*
X103021821Y-115626777D01*
X100500500Y-115626777D01*
X100500500Y-115330699D01*
X103692664Y-115330699D01*
X103692664Y-115422855D01*
X103716516Y-115511872D01*
X103762594Y-115591682D01*
X103827759Y-115656847D01*
X103907569Y-115702925D01*
X103996586Y-115726777D01*
X104088742Y-115726777D01*
X104177759Y-115702925D01*
X104257569Y-115656847D01*
X104322734Y-115591682D01*
X104368812Y-115511872D01*
X104392664Y-115422855D01*
X104392664Y-115330699D01*
X104377263Y-115273223D01*
X109456493Y-115273223D01*
X109467686Y-115329497D01*
X109467687Y-115329499D01*
X109546836Y-115520581D01*
X109546841Y-115520591D01*
X109661746Y-115692558D01*
X109661749Y-115692562D01*
X109807996Y-115838809D01*
X109808000Y-115838812D01*
X109979967Y-115953717D01*
X109979977Y-115953722D01*
X110171059Y-116032871D01*
X110171061Y-116032872D01*
X110227336Y-116044065D01*
X110727336Y-116044065D01*
X110783610Y-116032872D01*
X110783612Y-116032871D01*
X110830501Y-116013450D01*
X110974694Y-115953722D01*
X110974704Y-115953717D01*
X111146671Y-115838812D01*
X111146675Y-115838809D01*
X111292922Y-115692562D01*
X111292925Y-115692558D01*
X111407830Y-115520591D01*
X111407835Y-115520581D01*
X111486984Y-115329499D01*
X111486985Y-115329497D01*
X111498179Y-115273223D01*
X110727336Y-115273223D01*
X110727336Y-116044065D01*
X110227336Y-116044065D01*
X110227336Y-115273223D01*
X109456493Y-115273223D01*
X104377263Y-115273223D01*
X104368812Y-115241682D01*
X104322734Y-115161872D01*
X104287639Y-115126777D01*
X104292664Y-115126777D01*
X105063506Y-115126777D01*
X105052313Y-115070502D01*
X105052312Y-115070500D01*
X105013643Y-114977145D01*
X110127336Y-114977145D01*
X110127336Y-115069301D01*
X110151188Y-115158318D01*
X110197266Y-115238128D01*
X110262431Y-115303293D01*
X110342241Y-115349371D01*
X110431258Y-115373223D01*
X110523414Y-115373223D01*
X110612431Y-115349371D01*
X110692241Y-115303293D01*
X110757406Y-115238128D01*
X110803484Y-115158318D01*
X110827336Y-115069301D01*
X110827336Y-114977145D01*
X110803484Y-114888128D01*
X110757406Y-114808318D01*
X110722311Y-114773223D01*
X110727336Y-114773223D01*
X111498179Y-114773223D01*
X111486985Y-114716948D01*
X111486984Y-114716946D01*
X111407835Y-114525864D01*
X111407830Y-114525854D01*
X111292925Y-114353887D01*
X111292922Y-114353883D01*
X111212615Y-114273576D01*
X130159500Y-114273576D01*
X130159500Y-114426424D01*
X130199060Y-114574065D01*
X130275484Y-114706435D01*
X130383565Y-114814516D01*
X130515935Y-114890940D01*
X130663576Y-114930500D01*
X130663578Y-114930500D01*
X130816422Y-114930500D01*
X130816424Y-114930500D01*
X130964065Y-114890940D01*
X131096435Y-114814516D01*
X131204516Y-114706435D01*
X131280940Y-114574065D01*
X131320500Y-114426424D01*
X131320500Y-114273576D01*
X131280940Y-114125935D01*
X131204516Y-113993565D01*
X131109571Y-113898620D01*
X132344931Y-113898620D01*
X132344932Y-113898621D01*
X132392633Y-113930495D01*
X132392639Y-113930498D01*
X132583725Y-114009649D01*
X132583733Y-114009651D01*
X132786579Y-114049999D01*
X132786583Y-114050000D01*
X132993417Y-114050000D01*
X132993420Y-114049999D01*
X133196266Y-114009651D01*
X133196274Y-114009649D01*
X133387366Y-113930495D01*
X133435066Y-113898621D01*
X133435067Y-113898620D01*
X132890001Y-113353554D01*
X132890000Y-113353554D01*
X132344931Y-113898620D01*
X131109571Y-113898620D01*
X131096435Y-113885484D01*
X130964065Y-113809060D01*
X130816424Y-113769500D01*
X130663576Y-113769500D01*
X130515935Y-113809060D01*
X130515932Y-113809061D01*
X130383568Y-113885482D01*
X130383562Y-113885486D01*
X130275486Y-113993562D01*
X130275482Y-113993568D01*
X130199061Y-114125932D01*
X130199060Y-114125935D01*
X130159500Y-114273576D01*
X111212615Y-114273576D01*
X111146675Y-114207636D01*
X111146671Y-114207633D01*
X110974704Y-114092728D01*
X110974694Y-114092723D01*
X110783608Y-114013572D01*
X110783603Y-114013570D01*
X110727336Y-114002378D01*
X110727336Y-114773223D01*
X110722311Y-114773223D01*
X110692241Y-114743153D01*
X110612431Y-114697075D01*
X110523414Y-114673223D01*
X110431258Y-114673223D01*
X110342241Y-114697075D01*
X110262431Y-114743153D01*
X110197266Y-114808318D01*
X110151188Y-114888128D01*
X110127336Y-114977145D01*
X105013643Y-114977145D01*
X104973163Y-114879418D01*
X104973158Y-114879408D01*
X104970510Y-114875445D01*
X104902207Y-114773223D01*
X109456493Y-114773223D01*
X110227336Y-114773223D01*
X110227336Y-114002379D01*
X110227335Y-114002378D01*
X110171068Y-114013570D01*
X110171063Y-114013572D01*
X109979977Y-114092723D01*
X109979967Y-114092728D01*
X109808000Y-114207633D01*
X109807996Y-114207636D01*
X109661749Y-114353883D01*
X109661746Y-114353887D01*
X109546841Y-114525854D01*
X109546836Y-114525864D01*
X109467687Y-114716946D01*
X109467686Y-114716948D01*
X109456493Y-114773223D01*
X104902207Y-114773223D01*
X104858253Y-114707441D01*
X104858250Y-114707437D01*
X104712003Y-114561190D01*
X104711999Y-114561187D01*
X104540032Y-114446282D01*
X104540022Y-114446277D01*
X104348936Y-114367126D01*
X104348931Y-114367124D01*
X104292664Y-114355932D01*
X104292664Y-115126777D01*
X104287639Y-115126777D01*
X104257569Y-115096707D01*
X104177759Y-115050629D01*
X104088742Y-115026777D01*
X103996586Y-115026777D01*
X103907569Y-115050629D01*
X103827759Y-115096707D01*
X103762594Y-115161872D01*
X103716516Y-115241682D01*
X103692664Y-115330699D01*
X100500500Y-115330699D01*
X100500500Y-115126777D01*
X103021821Y-115126777D01*
X103792664Y-115126777D01*
X103792664Y-114355933D01*
X103792663Y-114355932D01*
X103736396Y-114367124D01*
X103736391Y-114367126D01*
X103545305Y-114446277D01*
X103545295Y-114446282D01*
X103373328Y-114561187D01*
X103373324Y-114561190D01*
X103227077Y-114707437D01*
X103227074Y-114707441D01*
X103112169Y-114879408D01*
X103112164Y-114879418D01*
X103033015Y-115070500D01*
X103033014Y-115070502D01*
X103021821Y-115126777D01*
X100500500Y-115126777D01*
X100500500Y-113898620D01*
X128044931Y-113898620D01*
X128044932Y-113898621D01*
X128092633Y-113930495D01*
X128092639Y-113930498D01*
X128283725Y-114009649D01*
X128283733Y-114009651D01*
X128486579Y-114049999D01*
X128486583Y-114050000D01*
X128693417Y-114050000D01*
X128693420Y-114049999D01*
X128896266Y-114009651D01*
X128896274Y-114009649D01*
X129087366Y-113930495D01*
X129135066Y-113898621D01*
X129135067Y-113898620D01*
X128590001Y-113353554D01*
X128590000Y-113353554D01*
X128044931Y-113898620D01*
X100500500Y-113898620D01*
X100500500Y-112232664D01*
X106415934Y-112232664D01*
X106427127Y-112288938D01*
X106427128Y-112288940D01*
X106506277Y-112480022D01*
X106506282Y-112480032D01*
X106621187Y-112651999D01*
X106621190Y-112652003D01*
X106767437Y-112798250D01*
X106767441Y-112798253D01*
X106939408Y-112913158D01*
X106939418Y-112913163D01*
X107130500Y-112992312D01*
X107130502Y-112992313D01*
X107186777Y-113003506D01*
X107686777Y-113003506D01*
X107743051Y-112992313D01*
X107743053Y-112992312D01*
X107934135Y-112913163D01*
X107934145Y-112913158D01*
X108106112Y-112798253D01*
X108106116Y-112798250D01*
X108252363Y-112652003D01*
X108252366Y-112651999D01*
X108269949Y-112625684D01*
X109222658Y-112625684D01*
X109222658Y-112768000D01*
X109257111Y-112896579D01*
X109259492Y-112905466D01*
X109259493Y-112905469D01*
X109330647Y-113028713D01*
X109330649Y-113028716D01*
X109330650Y-113028717D01*
X109431283Y-113129350D01*
X109431284Y-113129351D01*
X109431286Y-113129352D01*
X109492908Y-113164929D01*
X109554533Y-113200508D01*
X109692000Y-113237342D01*
X109692002Y-113237342D01*
X109834314Y-113237342D01*
X109834316Y-113237342D01*
X109971783Y-113200508D01*
X110095033Y-113129350D01*
X110327804Y-112896579D01*
X127540000Y-112896579D01*
X127540000Y-113103420D01*
X127580348Y-113306266D01*
X127580350Y-113306274D01*
X127659500Y-113497359D01*
X127691377Y-113545067D01*
X127691378Y-113545067D01*
X128236446Y-113000000D01*
X128190368Y-112953922D01*
X128240000Y-112953922D01*
X128240000Y-113046078D01*
X128263852Y-113135095D01*
X128309930Y-113214905D01*
X128375095Y-113280070D01*
X128454905Y-113326148D01*
X128543922Y-113350000D01*
X128636078Y-113350000D01*
X128725095Y-113326148D01*
X128804905Y-113280070D01*
X128870070Y-113214905D01*
X128916148Y-113135095D01*
X128940000Y-113046078D01*
X128940000Y-112999999D01*
X128943554Y-112999999D01*
X128943554Y-113000000D01*
X129488620Y-113545067D01*
X129488621Y-113545066D01*
X129520495Y-113497366D01*
X129599649Y-113306274D01*
X129599651Y-113306266D01*
X129639999Y-113103420D01*
X129640000Y-113103417D01*
X129640000Y-112896583D01*
X129639999Y-112896579D01*
X131840000Y-112896579D01*
X131840000Y-113103420D01*
X131880348Y-113306266D01*
X131880350Y-113306274D01*
X131959500Y-113497359D01*
X131991377Y-113545067D01*
X131991378Y-113545067D01*
X132536446Y-113000000D01*
X132490368Y-112953922D01*
X132540000Y-112953922D01*
X132540000Y-113046078D01*
X132563852Y-113135095D01*
X132609930Y-113214905D01*
X132675095Y-113280070D01*
X132754905Y-113326148D01*
X132843922Y-113350000D01*
X132936078Y-113350000D01*
X133025095Y-113326148D01*
X133104905Y-113280070D01*
X133170070Y-113214905D01*
X133216148Y-113135095D01*
X133240000Y-113046078D01*
X133240000Y-112999999D01*
X133243554Y-112999999D01*
X133243554Y-113000001D01*
X133788620Y-113545067D01*
X133788621Y-113545066D01*
X133820495Y-113497366D01*
X133899649Y-113306274D01*
X133899651Y-113306266D01*
X133939999Y-113103420D01*
X133940000Y-113103417D01*
X133940000Y-112896583D01*
X133939999Y-112896579D01*
X133899651Y-112693733D01*
X133899649Y-112693725D01*
X133820498Y-112502639D01*
X133820495Y-112502633D01*
X133788621Y-112454932D01*
X133788620Y-112454931D01*
X133243554Y-112999999D01*
X133240000Y-112999999D01*
X133240000Y-112953922D01*
X133216148Y-112864905D01*
X133170070Y-112785095D01*
X133104905Y-112719930D01*
X133025095Y-112673852D01*
X132936078Y-112650000D01*
X132843922Y-112650000D01*
X132754905Y-112673852D01*
X132675095Y-112719930D01*
X132609930Y-112785095D01*
X132563852Y-112864905D01*
X132540000Y-112953922D01*
X132490368Y-112953922D01*
X131991378Y-112454932D01*
X131991377Y-112454932D01*
X131959505Y-112502631D01*
X131959500Y-112502641D01*
X131880350Y-112693725D01*
X131880348Y-112693733D01*
X131840000Y-112896579D01*
X129639999Y-112896579D01*
X129599651Y-112693733D01*
X129599649Y-112693725D01*
X129520498Y-112502639D01*
X129520495Y-112502633D01*
X129488621Y-112454932D01*
X129488620Y-112454931D01*
X128943554Y-112999999D01*
X128940000Y-112999999D01*
X128940000Y-112953922D01*
X128916148Y-112864905D01*
X128870070Y-112785095D01*
X128804905Y-112719930D01*
X128725095Y-112673852D01*
X128636078Y-112650000D01*
X128543922Y-112650000D01*
X128454905Y-112673852D01*
X128375095Y-112719930D01*
X128309930Y-112785095D01*
X128263852Y-112864905D01*
X128240000Y-112953922D01*
X128190368Y-112953922D01*
X127691378Y-112454932D01*
X127691377Y-112454932D01*
X127659505Y-112502631D01*
X127659500Y-112502641D01*
X127580350Y-112693725D01*
X127580348Y-112693733D01*
X127540000Y-112896579D01*
X110327804Y-112896579D01*
X110492650Y-112731733D01*
X110563808Y-112608483D01*
X110600643Y-112471016D01*
X110600643Y-112328700D01*
X110563808Y-112191232D01*
X110521388Y-112117759D01*
X110511930Y-112101377D01*
X128044932Y-112101377D01*
X128044932Y-112101378D01*
X128590000Y-112646446D01*
X128590001Y-112646446D01*
X129135067Y-112101378D01*
X129135067Y-112101377D01*
X132344932Y-112101377D01*
X132344932Y-112101378D01*
X132890000Y-112646446D01*
X132890001Y-112646446D01*
X133435067Y-112101378D01*
X133435067Y-112101377D01*
X133387359Y-112069500D01*
X133196274Y-111990350D01*
X133196266Y-111990348D01*
X132993420Y-111950000D01*
X132786579Y-111950000D01*
X132583733Y-111990348D01*
X132583725Y-111990350D01*
X132392641Y-112069500D01*
X132392631Y-112069505D01*
X132344932Y-112101377D01*
X129135067Y-112101377D01*
X129087359Y-112069500D01*
X128896274Y-111990350D01*
X128896266Y-111990348D01*
X128693420Y-111950000D01*
X128486579Y-111950000D01*
X128283733Y-111990348D01*
X128283725Y-111990350D01*
X128092641Y-112069500D01*
X128092631Y-112069505D01*
X128044932Y-112101377D01*
X110511930Y-112101377D01*
X110492652Y-112067986D01*
X110492647Y-112067980D01*
X110392019Y-111967352D01*
X110392013Y-111967347D01*
X110268771Y-111896193D01*
X110268772Y-111896193D01*
X110257497Y-111893172D01*
X110131300Y-111859357D01*
X109988984Y-111859357D01*
X109920250Y-111877774D01*
X109851515Y-111896192D01*
X109851514Y-111896193D01*
X109728270Y-111967347D01*
X109728265Y-111967351D01*
X109330651Y-112364965D01*
X109330647Y-112364970D01*
X109259493Y-112488214D01*
X109259492Y-112488217D01*
X109222658Y-112625684D01*
X108269949Y-112625684D01*
X108321412Y-112548666D01*
X108367271Y-112480032D01*
X108367276Y-112480022D01*
X108446425Y-112288940D01*
X108446426Y-112288938D01*
X108457620Y-112232664D01*
X107686777Y-112232664D01*
X107686777Y-113003506D01*
X107186777Y-113003506D01*
X107186777Y-112232664D01*
X106415934Y-112232664D01*
X100500500Y-112232664D01*
X100500500Y-111936586D01*
X107086777Y-111936586D01*
X107086777Y-112028742D01*
X107110629Y-112117759D01*
X107156707Y-112197569D01*
X107221872Y-112262734D01*
X107301682Y-112308812D01*
X107390699Y-112332664D01*
X107482855Y-112332664D01*
X107571872Y-112308812D01*
X107651682Y-112262734D01*
X107716847Y-112197569D01*
X107762925Y-112117759D01*
X107786777Y-112028742D01*
X107786777Y-111936586D01*
X107762925Y-111847569D01*
X107716847Y-111767759D01*
X107681752Y-111732664D01*
X107686777Y-111732664D01*
X108457620Y-111732664D01*
X108446426Y-111676389D01*
X108446425Y-111676387D01*
X108367276Y-111485305D01*
X108367271Y-111485295D01*
X108252366Y-111313328D01*
X108252363Y-111313324D01*
X108106116Y-111167077D01*
X108106112Y-111167074D01*
X107934145Y-111052169D01*
X107934135Y-111052164D01*
X107743049Y-110973013D01*
X107743044Y-110973011D01*
X107686777Y-110961819D01*
X107686777Y-111732664D01*
X107681752Y-111732664D01*
X107651682Y-111702594D01*
X107571872Y-111656516D01*
X107482855Y-111632664D01*
X107390699Y-111632664D01*
X107301682Y-111656516D01*
X107221872Y-111702594D01*
X107156707Y-111767759D01*
X107110629Y-111847569D01*
X107086777Y-111936586D01*
X100500500Y-111936586D01*
X100500500Y-111732664D01*
X106415934Y-111732664D01*
X107186777Y-111732664D01*
X107186777Y-110961820D01*
X107186776Y-110961819D01*
X107130509Y-110973011D01*
X107130504Y-110973013D01*
X106939418Y-111052164D01*
X106939408Y-111052169D01*
X106767441Y-111167074D01*
X106767437Y-111167077D01*
X106621190Y-111313324D01*
X106621187Y-111313328D01*
X106506282Y-111485295D01*
X106506277Y-111485305D01*
X106427128Y-111676387D01*
X106427127Y-111676389D01*
X106415934Y-111732664D01*
X100500500Y-111732664D01*
X100500500Y-109098620D01*
X128044931Y-109098620D01*
X128044932Y-109098621D01*
X128092633Y-109130495D01*
X128092639Y-109130498D01*
X128283725Y-109209649D01*
X128283733Y-109209651D01*
X128486579Y-109249999D01*
X128486583Y-109250000D01*
X128693417Y-109250000D01*
X128693420Y-109249999D01*
X128896266Y-109209651D01*
X128896274Y-109209649D01*
X129087366Y-109130495D01*
X129135066Y-109098621D01*
X129135067Y-109098620D01*
X132344931Y-109098620D01*
X132344932Y-109098621D01*
X132392633Y-109130495D01*
X132392639Y-109130498D01*
X132583725Y-109209649D01*
X132583733Y-109209651D01*
X132786579Y-109249999D01*
X132786583Y-109250000D01*
X132993417Y-109250000D01*
X132993420Y-109249999D01*
X133196266Y-109209651D01*
X133196274Y-109209649D01*
X133387366Y-109130495D01*
X133435066Y-109098621D01*
X133435067Y-109098620D01*
X132890001Y-108553554D01*
X132890000Y-108553554D01*
X132344931Y-109098620D01*
X129135067Y-109098620D01*
X128590001Y-108553554D01*
X128590000Y-108553554D01*
X128044931Y-109098620D01*
X100500500Y-109098620D01*
X100500500Y-105002706D01*
X100500618Y-104997297D01*
X100508437Y-104818209D01*
X101299500Y-104818209D01*
X101299500Y-105181790D01*
X101335137Y-105543630D01*
X101406064Y-105900212D01*
X101406067Y-105900223D01*
X101511614Y-106248165D01*
X101650754Y-106584078D01*
X101650756Y-106584083D01*
X101822140Y-106904720D01*
X101822151Y-106904738D01*
X102024140Y-107207035D01*
X102024150Y-107207049D01*
X102254807Y-107488106D01*
X102511893Y-107745192D01*
X102511898Y-107745196D01*
X102511899Y-107745197D01*
X102792956Y-107975854D01*
X103095268Y-108177853D01*
X103095277Y-108177858D01*
X103095279Y-108177859D01*
X103415916Y-108349243D01*
X103415918Y-108349243D01*
X103415924Y-108349247D01*
X103751836Y-108488386D01*
X104099767Y-108593930D01*
X104099773Y-108593931D01*
X104099776Y-108593932D01*
X104099787Y-108593935D01*
X104456369Y-108664862D01*
X104818206Y-108700500D01*
X104818209Y-108700500D01*
X105181791Y-108700500D01*
X105181794Y-108700500D01*
X105543631Y-108664862D01*
X105630695Y-108647544D01*
X105900212Y-108593935D01*
X105900223Y-108593932D01*
X105900223Y-108593931D01*
X105900233Y-108593930D01*
X106248164Y-108488386D01*
X106584076Y-108349247D01*
X106904732Y-108177853D01*
X107026367Y-108096579D01*
X127540000Y-108096579D01*
X127540000Y-108303420D01*
X127580348Y-108506266D01*
X127580350Y-108506274D01*
X127659500Y-108697359D01*
X127691377Y-108745067D01*
X127691378Y-108745067D01*
X128236446Y-108200000D01*
X128190368Y-108153922D01*
X128240000Y-108153922D01*
X128240000Y-108246078D01*
X128263852Y-108335095D01*
X128309930Y-108414905D01*
X128375095Y-108480070D01*
X128454905Y-108526148D01*
X128543922Y-108550000D01*
X128636078Y-108550000D01*
X128725095Y-108526148D01*
X128804905Y-108480070D01*
X128870070Y-108414905D01*
X128916148Y-108335095D01*
X128940000Y-108246078D01*
X128940000Y-108199999D01*
X128943554Y-108199999D01*
X128943554Y-108200000D01*
X129488620Y-108745067D01*
X129488621Y-108745066D01*
X129520495Y-108697366D01*
X129599649Y-108506274D01*
X129599651Y-108506266D01*
X129639999Y-108303420D01*
X129640000Y-108303417D01*
X129640000Y-108096583D01*
X129639999Y-108096579D01*
X131840000Y-108096579D01*
X131840000Y-108303420D01*
X131880348Y-108506266D01*
X131880350Y-108506274D01*
X131959500Y-108697359D01*
X131991377Y-108745067D01*
X131991378Y-108745067D01*
X132536446Y-108200000D01*
X132490368Y-108153922D01*
X132540000Y-108153922D01*
X132540000Y-108246078D01*
X132563852Y-108335095D01*
X132609930Y-108414905D01*
X132675095Y-108480070D01*
X132754905Y-108526148D01*
X132843922Y-108550000D01*
X132936078Y-108550000D01*
X133025095Y-108526148D01*
X133104905Y-108480070D01*
X133170070Y-108414905D01*
X133216148Y-108335095D01*
X133240000Y-108246078D01*
X133240000Y-108199999D01*
X133243554Y-108199999D01*
X133243554Y-108200001D01*
X133788620Y-108745067D01*
X133788621Y-108745066D01*
X133820495Y-108697366D01*
X133899649Y-108506274D01*
X133899651Y-108506266D01*
X133939999Y-108303420D01*
X133940000Y-108303417D01*
X133940000Y-108096583D01*
X133939999Y-108096579D01*
X133899651Y-107893733D01*
X133899649Y-107893725D01*
X133820498Y-107702639D01*
X133820495Y-107702633D01*
X133788621Y-107654932D01*
X133788620Y-107654931D01*
X133243554Y-108199999D01*
X133240000Y-108199999D01*
X133240000Y-108153922D01*
X133216148Y-108064905D01*
X133170070Y-107985095D01*
X133104905Y-107919930D01*
X133025095Y-107873852D01*
X132936078Y-107850000D01*
X132843922Y-107850000D01*
X132754905Y-107873852D01*
X132675095Y-107919930D01*
X132609930Y-107985095D01*
X132563852Y-108064905D01*
X132540000Y-108153922D01*
X132490368Y-108153922D01*
X131991378Y-107654932D01*
X131991377Y-107654932D01*
X131959505Y-107702631D01*
X131959500Y-107702641D01*
X131880350Y-107893725D01*
X131880348Y-107893733D01*
X131840000Y-108096579D01*
X129639999Y-108096579D01*
X129599651Y-107893733D01*
X129599649Y-107893725D01*
X129520498Y-107702639D01*
X129520495Y-107702633D01*
X129488621Y-107654932D01*
X129488620Y-107654931D01*
X128943554Y-108199999D01*
X128940000Y-108199999D01*
X128940000Y-108153922D01*
X128916148Y-108064905D01*
X128870070Y-107985095D01*
X128804905Y-107919930D01*
X128725095Y-107873852D01*
X128636078Y-107850000D01*
X128543922Y-107850000D01*
X128454905Y-107873852D01*
X128375095Y-107919930D01*
X128309930Y-107985095D01*
X128263852Y-108064905D01*
X128240000Y-108153922D01*
X128190368Y-108153922D01*
X127691378Y-107654932D01*
X127691377Y-107654932D01*
X127659505Y-107702631D01*
X127659500Y-107702641D01*
X127580350Y-107893725D01*
X127580348Y-107893733D01*
X127540000Y-108096579D01*
X107026367Y-108096579D01*
X107207044Y-107975854D01*
X107488101Y-107745197D01*
X107745197Y-107488101D01*
X107898437Y-107301377D01*
X128044932Y-107301377D01*
X128044932Y-107301378D01*
X128590000Y-107846446D01*
X128590001Y-107846446D01*
X129135067Y-107301378D01*
X129135067Y-107301377D01*
X129087359Y-107269500D01*
X128896274Y-107190350D01*
X128896266Y-107190348D01*
X128693420Y-107150000D01*
X128486579Y-107150000D01*
X128283733Y-107190348D01*
X128283725Y-107190350D01*
X128092641Y-107269500D01*
X128092631Y-107269505D01*
X128044932Y-107301377D01*
X107898437Y-107301377D01*
X107975854Y-107207044D01*
X108177853Y-106904732D01*
X108349247Y-106584076D01*
X108355557Y-106568842D01*
X130199500Y-106568842D01*
X130199500Y-107131158D01*
X130219834Y-107207044D01*
X130236334Y-107268624D01*
X130236335Y-107268627D01*
X130307489Y-107391871D01*
X130307491Y-107391874D01*
X130307492Y-107391875D01*
X130408125Y-107492508D01*
X130531375Y-107563666D01*
X130668842Y-107600500D01*
X130668844Y-107600500D01*
X130811156Y-107600500D01*
X130811158Y-107600500D01*
X130948625Y-107563666D01*
X131071875Y-107492508D01*
X131172508Y-107391875D01*
X131224757Y-107301377D01*
X132344932Y-107301377D01*
X132344932Y-107301378D01*
X132890000Y-107846446D01*
X132890001Y-107846446D01*
X133435067Y-107301378D01*
X133435067Y-107301377D01*
X133387359Y-107269500D01*
X133196274Y-107190350D01*
X133196266Y-107190348D01*
X132993420Y-107150000D01*
X132786579Y-107150000D01*
X132583733Y-107190348D01*
X132583725Y-107190350D01*
X132392641Y-107269500D01*
X132392631Y-107269505D01*
X132344932Y-107301377D01*
X131224757Y-107301377D01*
X131243666Y-107268625D01*
X131280500Y-107131158D01*
X131280500Y-106568842D01*
X131273344Y-106542135D01*
X139419500Y-106542135D01*
X139419500Y-108337870D01*
X139419501Y-108337876D01*
X139425908Y-108397483D01*
X139476202Y-108532328D01*
X139476206Y-108532335D01*
X139562452Y-108647544D01*
X139562455Y-108647547D01*
X139677664Y-108733793D01*
X139677671Y-108733797D01*
X139809082Y-108782810D01*
X139865016Y-108824681D01*
X139889433Y-108890145D01*
X139874582Y-108958418D01*
X139853431Y-108986673D01*
X139739889Y-109100215D01*
X139614951Y-109272179D01*
X139518444Y-109461585D01*
X139452753Y-109663760D01*
X139419500Y-109873713D01*
X139419500Y-110086286D01*
X139452753Y-110296239D01*
X139518444Y-110498414D01*
X139614951Y-110687820D01*
X139739890Y-110859786D01*
X139890213Y-111010109D01*
X140062182Y-111135050D01*
X140070946Y-111139516D01*
X140121742Y-111187491D01*
X140138536Y-111255312D01*
X140115998Y-111321447D01*
X140070946Y-111360484D01*
X140062182Y-111364949D01*
X139890213Y-111489890D01*
X139739890Y-111640213D01*
X139614951Y-111812179D01*
X139518444Y-112001585D01*
X139452753Y-112203760D01*
X139432337Y-112332664D01*
X139419500Y-112413713D01*
X139419500Y-112626287D01*
X139452754Y-112836243D01*
X139515293Y-113028718D01*
X139518444Y-113038414D01*
X139614951Y-113227820D01*
X139739890Y-113399786D01*
X139890213Y-113550109D01*
X140062179Y-113675048D01*
X140062181Y-113675049D01*
X140062184Y-113675051D01*
X140071493Y-113679794D01*
X140122290Y-113727766D01*
X140139087Y-113795587D01*
X140116552Y-113861722D01*
X140071505Y-113900760D01*
X140062446Y-113905376D01*
X140062440Y-113905380D01*
X140008282Y-113944727D01*
X140008282Y-113944728D01*
X140640591Y-114577037D01*
X140577007Y-114594075D01*
X140462993Y-114659901D01*
X140369901Y-114752993D01*
X140304075Y-114867007D01*
X140287037Y-114930591D01*
X139654728Y-114298282D01*
X139654727Y-114298282D01*
X139615380Y-114352439D01*
X139518904Y-114541782D01*
X139453242Y-114743869D01*
X139453242Y-114743872D01*
X139420000Y-114953753D01*
X139420000Y-115166246D01*
X139453242Y-115376127D01*
X139453242Y-115376130D01*
X139518904Y-115578217D01*
X139615375Y-115767550D01*
X139654728Y-115821716D01*
X140287037Y-115189408D01*
X140304075Y-115252993D01*
X140369901Y-115367007D01*
X140462993Y-115460099D01*
X140577007Y-115525925D01*
X140640590Y-115542962D01*
X140008282Y-116175269D01*
X140008282Y-116175270D01*
X140062449Y-116214624D01*
X140251782Y-116311095D01*
X140453870Y-116376757D01*
X140663754Y-116410000D01*
X140876246Y-116410000D01*
X141086127Y-116376757D01*
X141086130Y-116376757D01*
X141288217Y-116311095D01*
X141477554Y-116214622D01*
X141531716Y-116175270D01*
X141531717Y-116175270D01*
X140899408Y-115542962D01*
X140962993Y-115525925D01*
X141077007Y-115460099D01*
X141170099Y-115367007D01*
X141235925Y-115252993D01*
X141252962Y-115189408D01*
X141885270Y-115821717D01*
X141885270Y-115821716D01*
X141924622Y-115767554D01*
X142021095Y-115578217D01*
X142086757Y-115376130D01*
X142086757Y-115376127D01*
X142120000Y-115166246D01*
X142120000Y-114953753D01*
X142086757Y-114743872D01*
X142086757Y-114743869D01*
X142021095Y-114541782D01*
X141924624Y-114352449D01*
X141885270Y-114298282D01*
X141885269Y-114298282D01*
X141252962Y-114930590D01*
X141235925Y-114867007D01*
X141170099Y-114752993D01*
X141077007Y-114659901D01*
X140962993Y-114594075D01*
X140899409Y-114577037D01*
X141531716Y-113944728D01*
X141477547Y-113905373D01*
X141477547Y-113905372D01*
X141468500Y-113900763D01*
X141417706Y-113852788D01*
X141400912Y-113784966D01*
X141423451Y-113718832D01*
X141468508Y-113679793D01*
X141477816Y-113675051D01*
X141557007Y-113617515D01*
X141649786Y-113550109D01*
X141649788Y-113550106D01*
X141649792Y-113550104D01*
X141800104Y-113399792D01*
X141800106Y-113399788D01*
X141800109Y-113399786D01*
X141925048Y-113227820D01*
X141925047Y-113227820D01*
X141925051Y-113227816D01*
X142021557Y-113038412D01*
X142087246Y-112836243D01*
X142120500Y-112626287D01*
X142120500Y-112413713D01*
X142087246Y-112203757D01*
X142021557Y-112001588D01*
X141925051Y-111812184D01*
X141925049Y-111812181D01*
X141925048Y-111812179D01*
X141800109Y-111640213D01*
X141649786Y-111489890D01*
X141477820Y-111364951D01*
X141477115Y-111364591D01*
X141469054Y-111360485D01*
X141418259Y-111312512D01*
X141401463Y-111244692D01*
X141423999Y-111178556D01*
X141469054Y-111139515D01*
X141477816Y-111135051D01*
X141499789Y-111119086D01*
X141649786Y-111010109D01*
X141649788Y-111010106D01*
X141649792Y-111010104D01*
X141800104Y-110859792D01*
X141800106Y-110859788D01*
X141800109Y-110859786D01*
X141925048Y-110687820D01*
X141925047Y-110687820D01*
X141925051Y-110687816D01*
X142021557Y-110498412D01*
X142087246Y-110296243D01*
X142120500Y-110086287D01*
X142120500Y-109873713D01*
X142087246Y-109663757D01*
X142021557Y-109461588D01*
X141925051Y-109272184D01*
X141925049Y-109272181D01*
X141925048Y-109272179D01*
X141800109Y-109100213D01*
X141686569Y-108986673D01*
X141653084Y-108925350D01*
X141658068Y-108855658D01*
X141699940Y-108799725D01*
X141730915Y-108782810D01*
X141862331Y-108733796D01*
X141977546Y-108647546D01*
X142063796Y-108532331D01*
X142114091Y-108397483D01*
X142120500Y-108337873D01*
X142120499Y-106542128D01*
X142114091Y-106482517D01*
X142095016Y-106431375D01*
X142063797Y-106347671D01*
X142063793Y-106347664D01*
X141977547Y-106232455D01*
X141977544Y-106232452D01*
X141862335Y-106146206D01*
X141862328Y-106146202D01*
X141727482Y-106095908D01*
X141727483Y-106095908D01*
X141667883Y-106089501D01*
X141667881Y-106089500D01*
X141667873Y-106089500D01*
X141667864Y-106089500D01*
X139872129Y-106089500D01*
X139872123Y-106089501D01*
X139812516Y-106095908D01*
X139677671Y-106146202D01*
X139677664Y-106146206D01*
X139562455Y-106232452D01*
X139562452Y-106232455D01*
X139476206Y-106347664D01*
X139476202Y-106347671D01*
X139425908Y-106482517D01*
X139422603Y-106513262D01*
X139419501Y-106542123D01*
X139419500Y-106542135D01*
X131273344Y-106542135D01*
X131243666Y-106431375D01*
X131172508Y-106308125D01*
X131071875Y-106207492D01*
X131071874Y-106207491D01*
X131071871Y-106207489D01*
X130948627Y-106136335D01*
X130948626Y-106136334D01*
X130948625Y-106136334D01*
X130811158Y-106099500D01*
X130668842Y-106099500D01*
X130531375Y-106136334D01*
X130531372Y-106136335D01*
X130408128Y-106207489D01*
X130408123Y-106207493D01*
X130307493Y-106308123D01*
X130307489Y-106308128D01*
X130236335Y-106431372D01*
X130236335Y-106431373D01*
X130236334Y-106431375D01*
X130199500Y-106568842D01*
X108355557Y-106568842D01*
X108488386Y-106248164D01*
X108593930Y-105900233D01*
X108593932Y-105900223D01*
X108593935Y-105900212D01*
X108664862Y-105543630D01*
X108700500Y-105181790D01*
X108700500Y-104818209D01*
X108680313Y-104613250D01*
X108664862Y-104456369D01*
X108593935Y-104099787D01*
X108593932Y-104099776D01*
X108593931Y-104099773D01*
X108593930Y-104099767D01*
X108488386Y-103751836D01*
X108349247Y-103415924D01*
X108177853Y-103095268D01*
X107975854Y-102792956D01*
X107745197Y-102511899D01*
X107745196Y-102511898D01*
X107745192Y-102511893D01*
X107488106Y-102254807D01*
X107207049Y-102024150D01*
X107207048Y-102024149D01*
X107207044Y-102024146D01*
X106904732Y-101822147D01*
X106904727Y-101822144D01*
X106904720Y-101822140D01*
X106584083Y-101650756D01*
X106584078Y-101650754D01*
X106248165Y-101511614D01*
X105900223Y-101406067D01*
X105900212Y-101406064D01*
X105543630Y-101335137D01*
X105271111Y-101308296D01*
X105181794Y-101299500D01*
X104818206Y-101299500D01*
X104735679Y-101307628D01*
X104456369Y-101335137D01*
X104099787Y-101406064D01*
X104099776Y-101406067D01*
X103751834Y-101511614D01*
X103415921Y-101650754D01*
X103415916Y-101650756D01*
X103095279Y-101822140D01*
X103095261Y-101822151D01*
X102792964Y-102024140D01*
X102792950Y-102024150D01*
X102511893Y-102254807D01*
X102254807Y-102511893D01*
X102024150Y-102792950D01*
X102024140Y-102792964D01*
X101822151Y-103095261D01*
X101822140Y-103095279D01*
X101650756Y-103415916D01*
X101650754Y-103415921D01*
X101511614Y-103751834D01*
X101406067Y-104099776D01*
X101406064Y-104099787D01*
X101335137Y-104456369D01*
X101299500Y-104818209D01*
X100508437Y-104818209D01*
X100508806Y-104809753D01*
X100508806Y-104809752D01*
X100517386Y-104613228D01*
X100518326Y-104602495D01*
X100568152Y-104224025D01*
X100570025Y-104213405D01*
X100652649Y-103840709D01*
X100655440Y-103830295D01*
X100770230Y-103466227D01*
X100773917Y-103456095D01*
X100920003Y-103103412D01*
X100924561Y-103093638D01*
X101100822Y-102755045D01*
X101106217Y-102745700D01*
X101311325Y-102423744D01*
X101317515Y-102414905D01*
X101549896Y-102112060D01*
X101556834Y-102103791D01*
X101814726Y-101822352D01*
X101822352Y-101814726D01*
X102103791Y-101556834D01*
X102112060Y-101549896D01*
X102414905Y-101317515D01*
X102423744Y-101311325D01*
X102745700Y-101106217D01*
X102755045Y-101100822D01*
X103093638Y-100924561D01*
X103103412Y-100920003D01*
X103456095Y-100773917D01*
X103466227Y-100770230D01*
X103830295Y-100655440D01*
X103840709Y-100652649D01*
X104213405Y-100570025D01*
X104224025Y-100568152D01*
X104602495Y-100518326D01*
X104613226Y-100517386D01*
X104997297Y-100500617D01*
X105002706Y-100500500D01*
X105065892Y-100500500D01*
X144934108Y-100500500D01*
X144997294Y-100500500D01*
X145002702Y-100500617D01*
G37*
%TD.AperFunction*%
%TD*%
M02*
