%TF.GenerationSoftware,KiCad,Pcbnew,9.0.6*%
%TF.CreationDate,2025-11-25T22:26:26+08:00*%
%TF.ProjectId,gerber,67657262-6572-42e6-9b69-6361645f7063,rev?*%
%TF.SameCoordinates,Original*%
%TF.FileFunction,Legend,Top*%
%TF.FilePolarity,Positive*%
%FSLAX46Y46*%
G04 Gerber Fmt 4.6, Leading zero omitted, Abs format (unit mm)*
G04 Created by KiCad (PCBNEW 9.0.6) date 2025-11-25 22:26:26*
%MOMM*%
%LPD*%
G01*
G04 APERTURE LIST*
G04 Aperture macros list*
%AMRoundRect*
0 Rectangle with rounded corners*
0 $1 Rounding radius*
0 $2 $3 $4 $5 $6 $7 $8 $9 X,Y pos of 4 corners*
0 Add a 4 corners polygon primitive as box body*
4,1,4,$2,$3,$4,$5,$6,$7,$8,$9,$2,$3,0*
0 Add four circle primitives for the rounded corners*
1,1,$1+$1,$2,$3*
1,1,$1+$1,$4,$5*
1,1,$1+$1,$6,$7*
1,1,$1+$1,$8,$9*
0 Add four rect primitives between the rounded corners*
20,1,$1+$1,$2,$3,$4,$5,0*
20,1,$1+$1,$4,$5,$6,$7,0*
20,1,$1+$1,$6,$7,$8,$9,0*
20,1,$1+$1,$8,$9,$2,$3,0*%
%AMHorizOval*
0 Thick line with rounded ends*
0 $1 width*
0 $2 $3 position (X,Y) of the first rounded end (center of the circle)*
0 $4 $5 position (X,Y) of the second rounded end (center of the circle)*
0 Add line between two ends*
20,1,$1,$2,$3,$4,$5,0*
0 Add two circle primitives to create the rounded ends*
1,1,$1,$2,$3*
1,1,$1,$4,$5*%
G04 Aperture macros list end*
%ADD10C,0.150000*%
%ADD11C,0.120000*%
%ADD12R,1.700000X1.700000*%
%ADD13C,1.700000*%
%ADD14RoundRect,0.162500X-0.650000X-0.162500X0.650000X-0.162500X0.650000X0.162500X-0.650000X0.162500X0*%
%ADD15RoundRect,0.250000X1.100000X-0.325000X1.100000X0.325000X-1.100000X0.325000X-1.100000X-0.325000X0*%
%ADD16C,0.660000*%
%ADD17O,0.580000X1.000000*%
%ADD18RoundRect,0.075000X0.425000X-0.075000X0.425000X0.075000X-0.425000X0.075000X-0.425000X-0.075000X0*%
%ADD19C,1.100000*%
%ADD20HorizOval,0.580000X0.148492X0.148492X-0.148492X-0.148492X0*%
%ADD21RoundRect,0.075000X0.247487X-0.353553X0.353553X-0.247487X-0.247487X0.353553X-0.353553X0.247487X0*%
%ADD22C,3.200000*%
%ADD23RoundRect,0.140000X0.170000X-0.140000X0.170000X0.140000X-0.170000X0.140000X-0.170000X-0.140000X0*%
%ADD24C,6.400000*%
G04 APERTURE END LIST*
D10*
X140436666Y-104514819D02*
X140436666Y-105229104D01*
X140436666Y-105229104D02*
X140389047Y-105371961D01*
X140389047Y-105371961D02*
X140293809Y-105467200D01*
X140293809Y-105467200D02*
X140150952Y-105514819D01*
X140150952Y-105514819D02*
X140055714Y-105514819D01*
X140865238Y-104610057D02*
X140912857Y-104562438D01*
X140912857Y-104562438D02*
X141008095Y-104514819D01*
X141008095Y-104514819D02*
X141246190Y-104514819D01*
X141246190Y-104514819D02*
X141341428Y-104562438D01*
X141341428Y-104562438D02*
X141389047Y-104610057D01*
X141389047Y-104610057D02*
X141436666Y-104705295D01*
X141436666Y-104705295D02*
X141436666Y-104800533D01*
X141436666Y-104800533D02*
X141389047Y-104943390D01*
X141389047Y-104943390D02*
X140817619Y-105514819D01*
X140817619Y-105514819D02*
X141436666Y-105514819D01*
X119130595Y-108899819D02*
X119130595Y-109709342D01*
X119130595Y-109709342D02*
X119178214Y-109804580D01*
X119178214Y-109804580D02*
X119225833Y-109852200D01*
X119225833Y-109852200D02*
X119321071Y-109899819D01*
X119321071Y-109899819D02*
X119511547Y-109899819D01*
X119511547Y-109899819D02*
X119606785Y-109852200D01*
X119606785Y-109852200D02*
X119654404Y-109804580D01*
X119654404Y-109804580D02*
X119702023Y-109709342D01*
X119702023Y-109709342D02*
X119702023Y-108899819D01*
X120702023Y-109899819D02*
X120130595Y-109899819D01*
X120416309Y-109899819D02*
X120416309Y-108899819D01*
X120416309Y-108899819D02*
X120321071Y-109042676D01*
X120321071Y-109042676D02*
X120225833Y-109137914D01*
X120225833Y-109137914D02*
X120130595Y-109185533D01*
X118019580Y-106591666D02*
X118067200Y-106639285D01*
X118067200Y-106639285D02*
X118114819Y-106782142D01*
X118114819Y-106782142D02*
X118114819Y-106877380D01*
X118114819Y-106877380D02*
X118067200Y-107020237D01*
X118067200Y-107020237D02*
X117971961Y-107115475D01*
X117971961Y-107115475D02*
X117876723Y-107163094D01*
X117876723Y-107163094D02*
X117686247Y-107210713D01*
X117686247Y-107210713D02*
X117543390Y-107210713D01*
X117543390Y-107210713D02*
X117352914Y-107163094D01*
X117352914Y-107163094D02*
X117257676Y-107115475D01*
X117257676Y-107115475D02*
X117162438Y-107020237D01*
X117162438Y-107020237D02*
X117114819Y-106877380D01*
X117114819Y-106877380D02*
X117114819Y-106782142D01*
X117114819Y-106782142D02*
X117162438Y-106639285D01*
X117162438Y-106639285D02*
X117210057Y-106591666D01*
X117210057Y-106210713D02*
X117162438Y-106163094D01*
X117162438Y-106163094D02*
X117114819Y-106067856D01*
X117114819Y-106067856D02*
X117114819Y-105829761D01*
X117114819Y-105829761D02*
X117162438Y-105734523D01*
X117162438Y-105734523D02*
X117210057Y-105686904D01*
X117210057Y-105686904D02*
X117305295Y-105639285D01*
X117305295Y-105639285D02*
X117400533Y-105639285D01*
X117400533Y-105639285D02*
X117543390Y-105686904D01*
X117543390Y-105686904D02*
X118114819Y-106258332D01*
X118114819Y-106258332D02*
X118114819Y-105639285D01*
X126194819Y-113433333D02*
X126909104Y-113433333D01*
X126909104Y-113433333D02*
X127051961Y-113480952D01*
X127051961Y-113480952D02*
X127147200Y-113576190D01*
X127147200Y-113576190D02*
X127194819Y-113719047D01*
X127194819Y-113719047D02*
X127194819Y-113814285D01*
X127194819Y-112433333D02*
X127194819Y-113004761D01*
X127194819Y-112719047D02*
X126194819Y-112719047D01*
X126194819Y-112719047D02*
X126337676Y-112814285D01*
X126337676Y-112814285D02*
X126432914Y-112909523D01*
X126432914Y-112909523D02*
X126480533Y-113004761D01*
X102042602Y-113989541D02*
X102547678Y-114494617D01*
X102547678Y-114494617D02*
X102615022Y-114629304D01*
X102615022Y-114629304D02*
X102615022Y-114763991D01*
X102615022Y-114763991D02*
X102547678Y-114898678D01*
X102547678Y-114898678D02*
X102480335Y-114966022D01*
X102311976Y-113720167D02*
X102749709Y-113282434D01*
X102749709Y-113282434D02*
X102783381Y-113787510D01*
X102783381Y-113787510D02*
X102884396Y-113686495D01*
X102884396Y-113686495D02*
X102985411Y-113652823D01*
X102985411Y-113652823D02*
X103052755Y-113652823D01*
X103052755Y-113652823D02*
X103153770Y-113686495D01*
X103153770Y-113686495D02*
X103322129Y-113854854D01*
X103322129Y-113854854D02*
X103355800Y-113955869D01*
X103355800Y-113955869D02*
X103355800Y-114023212D01*
X103355800Y-114023212D02*
X103322129Y-114124228D01*
X103322129Y-114124228D02*
X103120098Y-114326258D01*
X103120098Y-114326258D02*
X103019083Y-114359930D01*
X103019083Y-114359930D02*
X102951739Y-114359930D01*
X144238095Y-141304819D02*
X144238095Y-140304819D01*
X144238095Y-140781009D02*
X144809523Y-140781009D01*
X144809523Y-141304819D02*
X144809523Y-140304819D01*
X145809523Y-141304819D02*
X145238095Y-141304819D01*
X145523809Y-141304819D02*
X145523809Y-140304819D01*
X145523809Y-140304819D02*
X145428571Y-140447676D01*
X145428571Y-140447676D02*
X145333333Y-140542914D01*
X145333333Y-140542914D02*
X145238095Y-140590533D01*
X123109580Y-107626666D02*
X123157200Y-107674285D01*
X123157200Y-107674285D02*
X123204819Y-107817142D01*
X123204819Y-107817142D02*
X123204819Y-107912380D01*
X123204819Y-107912380D02*
X123157200Y-108055237D01*
X123157200Y-108055237D02*
X123061961Y-108150475D01*
X123061961Y-108150475D02*
X122966723Y-108198094D01*
X122966723Y-108198094D02*
X122776247Y-108245713D01*
X122776247Y-108245713D02*
X122633390Y-108245713D01*
X122633390Y-108245713D02*
X122442914Y-108198094D01*
X122442914Y-108198094D02*
X122347676Y-108150475D01*
X122347676Y-108150475D02*
X122252438Y-108055237D01*
X122252438Y-108055237D02*
X122204819Y-107912380D01*
X122204819Y-107912380D02*
X122204819Y-107817142D01*
X122204819Y-107817142D02*
X122252438Y-107674285D01*
X122252438Y-107674285D02*
X122300057Y-107626666D01*
X123204819Y-106674285D02*
X123204819Y-107245713D01*
X123204819Y-106959999D02*
X122204819Y-106959999D01*
X122204819Y-106959999D02*
X122347676Y-107055237D01*
X122347676Y-107055237D02*
X122442914Y-107150475D01*
X122442914Y-107150475D02*
X122490533Y-107245713D01*
X104238095Y-101304819D02*
X104238095Y-100304819D01*
X104238095Y-100781009D02*
X104809523Y-100781009D01*
X104809523Y-101304819D02*
X104809523Y-100304819D01*
X105238095Y-100400057D02*
X105285714Y-100352438D01*
X105285714Y-100352438D02*
X105380952Y-100304819D01*
X105380952Y-100304819D02*
X105619047Y-100304819D01*
X105619047Y-100304819D02*
X105714285Y-100352438D01*
X105714285Y-100352438D02*
X105761904Y-100400057D01*
X105761904Y-100400057D02*
X105809523Y-100495295D01*
X105809523Y-100495295D02*
X105809523Y-100590533D01*
X105809523Y-100590533D02*
X105761904Y-100733390D01*
X105761904Y-100733390D02*
X105190476Y-101304819D01*
X105190476Y-101304819D02*
X105809523Y-101304819D01*
D11*
%TO.C,J2*%
X139390000Y-106060000D02*
X140770000Y-106060000D01*
X139390000Y-107440000D02*
X139390000Y-106060000D01*
X139390000Y-108710000D02*
X139390000Y-116440000D01*
X139390000Y-108710000D02*
X142150000Y-108710000D01*
X139390000Y-116440000D02*
X142150000Y-116440000D01*
X142150000Y-108710000D02*
X142150000Y-116440000D01*
%TO.C,U1*%
X117132500Y-110285000D02*
X122652500Y-110285000D01*
X117132500Y-110555000D02*
X117132500Y-110285000D01*
X117132500Y-115805000D02*
X117132500Y-115535000D01*
X122652500Y-110285000D02*
X122652500Y-110555000D01*
X122652500Y-115535000D02*
X122652500Y-115805000D01*
X122652500Y-115805000D02*
X117132500Y-115805000D01*
X116302500Y-110545000D02*
X115962500Y-110075000D01*
X116642500Y-110075000D01*
X116302500Y-110545000D01*
G36*
X116302500Y-110545000D02*
G01*
X115962500Y-110075000D01*
X116642500Y-110075000D01*
X116302500Y-110545000D01*
G37*
%TO.C,C2*%
X118600000Y-107136252D02*
X118600000Y-105713748D01*
X121320000Y-107136252D02*
X121320000Y-105713748D01*
%TO.C,J1*%
X128570000Y-115020000D02*
X128570000Y-114520000D01*
X128570000Y-115020000D02*
X129070000Y-115020000D01*
X128720000Y-106330000D02*
X128720000Y-107130000D01*
X128720000Y-106330000D02*
X129620000Y-106330000D01*
X128720000Y-114870000D02*
X128720000Y-114070000D01*
X128720000Y-114870000D02*
X129620000Y-114870000D01*
X132760000Y-106330000D02*
X131860000Y-106330000D01*
X132760000Y-106330000D02*
X132760000Y-107130000D01*
X132760000Y-114870000D02*
X131860000Y-114870000D01*
X132760000Y-114870000D02*
X132760000Y-114070000D01*
%TO.C,J3*%
X102600166Y-116790990D02*
X102953720Y-116437437D01*
X102600166Y-116790990D02*
X102953720Y-117144544D01*
X102812298Y-116790990D02*
X103377984Y-116225305D01*
X102812298Y-116790990D02*
X103448694Y-117427386D01*
X105669010Y-119647702D02*
X105032614Y-119011306D01*
X105669010Y-119647702D02*
X106234695Y-119082016D01*
X108850990Y-110752298D02*
X108285305Y-111317984D01*
X108850990Y-110752298D02*
X109487386Y-111388694D01*
X111707702Y-113609010D02*
X111071306Y-112972614D01*
X111707702Y-113609010D02*
X111142016Y-114174695D01*
%TO.C,C1*%
X123550000Y-107567836D02*
X123550000Y-107352164D01*
X124270000Y-107567836D02*
X124270000Y-107352164D01*
%TD*%
%LPC*%
D12*
%TO.C,J2*%
X140770000Y-107440000D03*
D13*
X140770000Y-109980000D03*
X140770000Y-112520000D03*
X140770000Y-115060000D03*
%TD*%
D14*
%TO.C,U1*%
X116305000Y-111140000D03*
X116305000Y-112410000D03*
X116305000Y-113680000D03*
X116305000Y-114950000D03*
X123480000Y-114950000D03*
X123480000Y-113680000D03*
X123480000Y-112410000D03*
X123480000Y-111140000D03*
%TD*%
D15*
%TO.C,C2*%
X119960000Y-107900000D03*
X119960000Y-104950000D03*
%TD*%
D16*
%TO.C,J1*%
X130740000Y-114350000D03*
D17*
X130740000Y-106850000D03*
D18*
X129980000Y-113380000D03*
X129980000Y-112590000D03*
X129980000Y-111800000D03*
X129980000Y-111010000D03*
X129980000Y-110220000D03*
X129980000Y-109430000D03*
X129980000Y-108640000D03*
X129980000Y-107850000D03*
X131500000Y-107850000D03*
X131500000Y-108640000D03*
X131500000Y-109430000D03*
X131500000Y-110220000D03*
X131500000Y-111010000D03*
X131500000Y-111800000D03*
X131500000Y-112590000D03*
X131500000Y-113380000D03*
D19*
X128590000Y-113000000D03*
X132890000Y-113000000D03*
X128590000Y-108200000D03*
X132890000Y-108200000D03*
%TD*%
D16*
%TO.C,J3*%
X104608350Y-117851650D03*
D20*
X109911650Y-112548350D03*
D21*
X104756842Y-116628356D03*
X105315456Y-116069741D03*
X105874071Y-115511127D03*
X106432685Y-114952513D03*
X106991299Y-114393898D03*
X107549914Y-113835284D03*
X108108528Y-113276670D03*
X108667142Y-112718055D03*
X109741945Y-113792858D03*
X109183330Y-114351472D03*
X108624716Y-114910086D03*
X108066102Y-115468701D03*
X107507487Y-116027315D03*
X106948873Y-116585929D03*
X106390259Y-117144544D03*
X105831644Y-117703158D03*
D19*
X104042664Y-115376777D03*
X107083223Y-118417336D03*
X107436777Y-111982664D03*
X110477336Y-115023223D03*
%TD*%
D22*
%TO.C,H1*%
X145000000Y-145000000D03*
%TD*%
D23*
%TO.C,C1*%
X123910000Y-107940000D03*
X123910000Y-106980000D03*
%TD*%
D24*
%TO.C,H2*%
X105000000Y-105000000D03*
%TD*%
%LPD*%
M02*
