%TF.GenerationSoftware,KiCad,Pcbnew,9.0.6*%
%TF.CreationDate,2025-11-24T11:02:40+08:00*%
%TF.ProjectId,gerber,67657262-6572-42e6-9b69-6361645f7063,rev?*%
%TF.SameCoordinates,Original*%
%TF.FileFunction,Copper,L2,Bot*%
%TF.FilePolarity,Positive*%
%FSLAX46Y46*%
G04 Gerber Fmt 4.6, Leading zero omitted, Abs format (unit mm)*
G04 Created by KiCad (PCBNEW 9.0.6) date 2025-11-24 11:02:40*
%MOMM*%
%LPD*%
G01*
G04 APERTURE LIST*
%TA.AperFunction,ComponentPad*%
%ADD10R,1.700000X1.700000*%
%TD*%
%TA.AperFunction,ComponentPad*%
%ADD11C,1.700000*%
%TD*%
%TA.AperFunction,HeatsinkPad*%
%ADD12C,1.100000*%
%TD*%
%TA.AperFunction,ComponentPad*%
%ADD13C,6.400000*%
%TD*%
%TA.AperFunction,ViaPad*%
%ADD14C,0.600000*%
%TD*%
G04 APERTURE END LIST*
D10*
%TO.P,J2,1,Pin_1*%
%TO.N,unconnected-(J2-Pin_1-Pad1)*%
X140770000Y-107440000D03*
D11*
%TO.P,J2,2,Pin_2*%
%TO.N,Net-(J2-Pin_2)*%
X140770000Y-109980000D03*
%TO.P,J2,3,Pin_3*%
%TO.N,Net-(J2-Pin_3)*%
X140770000Y-112520000D03*
%TO.P,J2,4,Pin_4*%
%TO.N,GND*%
X140770000Y-115060000D03*
%TD*%
D12*
%TO.P,J1,S1,SHIELD*%
%TO.N,unconnected-(J1-SHIELD-PadS1)_3*%
X128590000Y-113000000D03*
%TO.N,unconnected-(J1-SHIELD-PadS1)_2*%
X132890000Y-113000000D03*
%TO.N,unconnected-(J1-SHIELD-PadS1)_1*%
X128590000Y-108200000D03*
%TO.N,unconnected-(J1-SHIELD-PadS1)*%
X132890000Y-108200000D03*
%TD*%
D13*
%TO.P,H2,1,1*%
%TO.N,unconnected-(H2-Pad1)*%
X105000000Y-105000000D03*
%TD*%
D14*
%TO.N,GND*%
X148980000Y-123810000D03*
%TO.N,*%
X149010000Y-126390000D03*
%TD*%
%TA.AperFunction,Conductor*%
%TO.N,GND*%
G36*
X145002702Y-100500617D02*
G01*
X145386771Y-100517386D01*
X145397506Y-100518326D01*
X145775971Y-100568152D01*
X145786597Y-100570025D01*
X146159284Y-100652648D01*
X146169710Y-100655442D01*
X146533765Y-100770227D01*
X146543911Y-100773920D01*
X146896578Y-100920000D01*
X146906369Y-100924566D01*
X147244942Y-101100816D01*
X147254310Y-101106224D01*
X147576244Y-101311318D01*
X147585105Y-101317523D01*
X147887930Y-101549889D01*
X147896217Y-101556843D01*
X148177635Y-101814715D01*
X148185284Y-101822364D01*
X148443156Y-102103782D01*
X148450110Y-102112069D01*
X148682476Y-102414894D01*
X148688681Y-102423755D01*
X148893775Y-102745689D01*
X148899183Y-102755057D01*
X149075430Y-103093623D01*
X149080002Y-103103427D01*
X149226075Y-103456078D01*
X149229775Y-103466244D01*
X149344554Y-103830278D01*
X149347354Y-103840727D01*
X149429971Y-104213389D01*
X149431849Y-104224042D01*
X149481671Y-104602473D01*
X149482614Y-104613249D01*
X149499382Y-104997297D01*
X149499500Y-105002706D01*
X149499500Y-124891874D01*
X149479815Y-124958913D01*
X149427011Y-125004668D01*
X149375895Y-125015873D01*
X130624895Y-125075612D01*
X130557793Y-125056141D01*
X130511870Y-125003484D01*
X130500500Y-124951613D01*
X130500500Y-121848745D01*
X130492235Y-121780680D01*
X130464037Y-121548449D01*
X130391643Y-121254734D01*
X130391642Y-121254731D01*
X130391641Y-121254727D01*
X130284371Y-120971882D01*
X130143793Y-120704035D01*
X130143787Y-120704026D01*
X129971952Y-120455078D01*
X129971947Y-120455072D01*
X129771353Y-120228648D01*
X129771351Y-120228646D01*
X129544927Y-120028052D01*
X129544921Y-120028047D01*
X129295973Y-119856212D01*
X129295964Y-119856206D01*
X129028117Y-119715628D01*
X128745272Y-119608358D01*
X128629820Y-119579902D01*
X128451551Y-119535963D01*
X128271371Y-119514085D01*
X128151254Y-119499500D01*
X128151252Y-119499500D01*
X128065892Y-119499500D01*
X122065892Y-119499500D01*
X122000000Y-119499500D01*
X121848748Y-119499500D01*
X121848746Y-119499500D01*
X121698598Y-119517731D01*
X121548449Y-119535963D01*
X121429602Y-119565255D01*
X121254727Y-119608358D01*
X120971882Y-119715628D01*
X120704035Y-119856206D01*
X120704026Y-119856212D01*
X120455078Y-120028047D01*
X120455072Y-120028052D01*
X120228648Y-120228646D01*
X120228646Y-120228648D01*
X120028052Y-120455072D01*
X120028047Y-120455078D01*
X119856212Y-120704026D01*
X119856206Y-120704035D01*
X119715628Y-120971882D01*
X119608358Y-121254727D01*
X119578200Y-121377085D01*
X119535963Y-121548449D01*
X119521377Y-121668568D01*
X119499500Y-121848745D01*
X119499500Y-124987452D01*
X119479815Y-125054491D01*
X119427011Y-125100246D01*
X119375895Y-125111451D01*
X100624895Y-125171190D01*
X100557793Y-125151719D01*
X100511870Y-125099062D01*
X100500500Y-125047191D01*
X100500500Y-114273576D01*
X130159500Y-114273576D01*
X130159500Y-114426424D01*
X130199060Y-114574065D01*
X130275484Y-114706435D01*
X130383565Y-114814516D01*
X130515935Y-114890940D01*
X130663576Y-114930500D01*
X130663578Y-114930500D01*
X130816422Y-114930500D01*
X130816424Y-114930500D01*
X130964065Y-114890940D01*
X131096435Y-114814516D01*
X131204516Y-114706435D01*
X131280940Y-114574065D01*
X131320500Y-114426424D01*
X131320500Y-114273576D01*
X131280940Y-114125935D01*
X131204516Y-113993565D01*
X131096435Y-113885484D01*
X130964065Y-113809060D01*
X130816424Y-113769500D01*
X130663576Y-113769500D01*
X130515935Y-113809060D01*
X130515932Y-113809061D01*
X130383568Y-113885482D01*
X130383562Y-113885486D01*
X130275486Y-113993562D01*
X130275482Y-113993568D01*
X130199061Y-114125932D01*
X130199060Y-114125935D01*
X130159500Y-114273576D01*
X100500500Y-114273576D01*
X100500500Y-112896530D01*
X127539500Y-112896530D01*
X127539500Y-113103469D01*
X127579868Y-113306412D01*
X127579870Y-113306420D01*
X127659059Y-113497598D01*
X127716541Y-113583626D01*
X127774024Y-113669657D01*
X127920342Y-113815975D01*
X127920345Y-113815977D01*
X128092402Y-113930941D01*
X128283580Y-114010130D01*
X128486530Y-114050499D01*
X128486534Y-114050500D01*
X128486535Y-114050500D01*
X128693466Y-114050500D01*
X128693467Y-114050499D01*
X128896420Y-114010130D01*
X129087598Y-113930941D01*
X129259655Y-113815977D01*
X129405977Y-113669655D01*
X129520941Y-113497598D01*
X129600130Y-113306420D01*
X129640500Y-113103465D01*
X129640500Y-112896535D01*
X129640499Y-112896530D01*
X131839500Y-112896530D01*
X131839500Y-113103469D01*
X131879868Y-113306412D01*
X131879870Y-113306420D01*
X131959059Y-113497598D01*
X132016541Y-113583626D01*
X132074024Y-113669657D01*
X132220342Y-113815975D01*
X132220345Y-113815977D01*
X132392402Y-113930941D01*
X132583580Y-114010130D01*
X132786530Y-114050499D01*
X132786534Y-114050500D01*
X132786535Y-114050500D01*
X132993466Y-114050500D01*
X132993467Y-114050499D01*
X133196420Y-114010130D01*
X133387598Y-113930941D01*
X133559655Y-113815977D01*
X133705977Y-113669655D01*
X133820941Y-113497598D01*
X133900130Y-113306420D01*
X133940500Y-113103465D01*
X133940500Y-112896535D01*
X133900130Y-112693580D01*
X133820941Y-112502402D01*
X133705977Y-112330345D01*
X133705975Y-112330342D01*
X133559657Y-112184024D01*
X133473626Y-112126541D01*
X133387598Y-112069059D01*
X133196420Y-111989870D01*
X133196412Y-111989868D01*
X132993469Y-111949500D01*
X132993465Y-111949500D01*
X132786535Y-111949500D01*
X132786530Y-111949500D01*
X132583587Y-111989868D01*
X132583579Y-111989870D01*
X132392403Y-112069058D01*
X132220342Y-112184024D01*
X132074024Y-112330342D01*
X131959058Y-112502403D01*
X131879870Y-112693579D01*
X131879868Y-112693587D01*
X131839500Y-112896530D01*
X129640499Y-112896530D01*
X129600130Y-112693580D01*
X129520941Y-112502402D01*
X129405977Y-112330345D01*
X129405975Y-112330342D01*
X129259657Y-112184024D01*
X129173626Y-112126541D01*
X129087598Y-112069059D01*
X128896420Y-111989870D01*
X128896412Y-111989868D01*
X128693469Y-111949500D01*
X128693465Y-111949500D01*
X128486535Y-111949500D01*
X128486530Y-111949500D01*
X128283587Y-111989868D01*
X128283579Y-111989870D01*
X128092403Y-112069058D01*
X127920342Y-112184024D01*
X127774024Y-112330342D01*
X127659058Y-112502403D01*
X127579870Y-112693579D01*
X127579868Y-112693587D01*
X127539500Y-112896530D01*
X100500500Y-112896530D01*
X100500500Y-105002706D01*
X100500618Y-104997297D01*
X100508437Y-104818209D01*
X101299500Y-104818209D01*
X101299500Y-105181790D01*
X101335137Y-105543630D01*
X101406064Y-105900212D01*
X101406067Y-105900223D01*
X101511614Y-106248165D01*
X101650754Y-106584078D01*
X101650756Y-106584083D01*
X101822140Y-106904720D01*
X101822151Y-106904738D01*
X102024140Y-107207035D01*
X102024150Y-107207049D01*
X102254807Y-107488106D01*
X102511893Y-107745192D01*
X102511898Y-107745196D01*
X102511899Y-107745197D01*
X102792956Y-107975854D01*
X103095268Y-108177853D01*
X103095277Y-108177858D01*
X103095279Y-108177859D01*
X103415916Y-108349243D01*
X103415918Y-108349243D01*
X103415924Y-108349247D01*
X103751836Y-108488386D01*
X104099767Y-108593930D01*
X104099773Y-108593931D01*
X104099776Y-108593932D01*
X104099787Y-108593935D01*
X104456369Y-108664862D01*
X104818206Y-108700500D01*
X104818209Y-108700500D01*
X105181791Y-108700500D01*
X105181794Y-108700500D01*
X105543631Y-108664862D01*
X105630695Y-108647544D01*
X105900212Y-108593935D01*
X105900223Y-108593932D01*
X105900223Y-108593931D01*
X105900233Y-108593930D01*
X106248164Y-108488386D01*
X106584076Y-108349247D01*
X106904732Y-108177853D01*
X107026440Y-108096530D01*
X127539500Y-108096530D01*
X127539500Y-108303469D01*
X127579868Y-108506412D01*
X127579870Y-108506420D01*
X127659058Y-108697596D01*
X127774024Y-108869657D01*
X127920342Y-109015975D01*
X127920345Y-109015977D01*
X128092402Y-109130941D01*
X128283580Y-109210130D01*
X128486530Y-109250499D01*
X128486534Y-109250500D01*
X128486535Y-109250500D01*
X128693466Y-109250500D01*
X128693467Y-109250499D01*
X128896420Y-109210130D01*
X129087598Y-109130941D01*
X129259655Y-109015977D01*
X129259657Y-109015975D01*
X129259661Y-109015972D01*
X129405974Y-108869658D01*
X129405975Y-108869657D01*
X129405977Y-108869655D01*
X129520941Y-108697598D01*
X129600130Y-108506420D01*
X129640500Y-108303465D01*
X129640500Y-108096535D01*
X129640499Y-108096530D01*
X131839500Y-108096530D01*
X131839500Y-108303469D01*
X131879868Y-108506412D01*
X131879870Y-108506420D01*
X131959058Y-108697596D01*
X132074024Y-108869657D01*
X132220342Y-109015975D01*
X132220345Y-109015977D01*
X132392402Y-109130941D01*
X132583580Y-109210130D01*
X132786530Y-109250499D01*
X132786534Y-109250500D01*
X132786535Y-109250500D01*
X132993466Y-109250500D01*
X132993467Y-109250499D01*
X133196420Y-109210130D01*
X133387598Y-109130941D01*
X133559655Y-109015977D01*
X133559657Y-109015975D01*
X133559661Y-109015972D01*
X133705974Y-108869658D01*
X133705975Y-108869657D01*
X133705977Y-108869655D01*
X133820941Y-108697598D01*
X133900130Y-108506420D01*
X133940500Y-108303465D01*
X133940500Y-108096535D01*
X133900130Y-107893580D01*
X133820941Y-107702402D01*
X133705977Y-107530345D01*
X133705975Y-107530342D01*
X133559657Y-107384024D01*
X133473626Y-107326541D01*
X133387598Y-107269059D01*
X133386550Y-107268625D01*
X133196420Y-107189870D01*
X133196412Y-107189868D01*
X132993469Y-107149500D01*
X132993465Y-107149500D01*
X132786535Y-107149500D01*
X132786530Y-107149500D01*
X132583587Y-107189868D01*
X132583579Y-107189870D01*
X132392403Y-107269058D01*
X132220342Y-107384024D01*
X132074024Y-107530342D01*
X131959058Y-107702403D01*
X131879870Y-107893579D01*
X131879868Y-107893587D01*
X131839500Y-108096530D01*
X129640499Y-108096530D01*
X129600130Y-107893580D01*
X129520941Y-107702402D01*
X129405977Y-107530345D01*
X129405975Y-107530342D01*
X129259657Y-107384024D01*
X129173626Y-107326541D01*
X129087598Y-107269059D01*
X129086550Y-107268625D01*
X128896420Y-107189870D01*
X128896412Y-107189868D01*
X128693469Y-107149500D01*
X128693465Y-107149500D01*
X128486535Y-107149500D01*
X128486530Y-107149500D01*
X128283587Y-107189868D01*
X128283579Y-107189870D01*
X128092403Y-107269058D01*
X127920342Y-107384024D01*
X127774024Y-107530342D01*
X127659058Y-107702403D01*
X127579870Y-107893579D01*
X127579868Y-107893587D01*
X127539500Y-108096530D01*
X107026440Y-108096530D01*
X107207044Y-107975854D01*
X107488101Y-107745197D01*
X107745197Y-107488101D01*
X107975854Y-107207044D01*
X108177853Y-106904732D01*
X108349247Y-106584076D01*
X108355557Y-106568842D01*
X130199500Y-106568842D01*
X130199500Y-107131158D01*
X130219834Y-107207044D01*
X130236334Y-107268624D01*
X130236335Y-107268627D01*
X130307489Y-107391871D01*
X130307491Y-107391874D01*
X130307492Y-107391875D01*
X130408125Y-107492508D01*
X130531375Y-107563666D01*
X130668842Y-107600500D01*
X130668844Y-107600500D01*
X130811156Y-107600500D01*
X130811158Y-107600500D01*
X130948625Y-107563666D01*
X131071875Y-107492508D01*
X131172508Y-107391875D01*
X131243666Y-107268625D01*
X131280500Y-107131158D01*
X131280500Y-106568842D01*
X131273344Y-106542135D01*
X139419500Y-106542135D01*
X139419500Y-108337870D01*
X139419501Y-108337876D01*
X139425908Y-108397483D01*
X139476202Y-108532328D01*
X139476206Y-108532335D01*
X139562452Y-108647544D01*
X139562455Y-108647547D01*
X139677664Y-108733793D01*
X139677671Y-108733797D01*
X139809082Y-108782810D01*
X139865016Y-108824681D01*
X139889433Y-108890145D01*
X139874582Y-108958418D01*
X139853431Y-108986673D01*
X139739889Y-109100215D01*
X139614951Y-109272179D01*
X139518444Y-109461585D01*
X139452753Y-109663760D01*
X139419500Y-109873713D01*
X139419500Y-110086286D01*
X139452753Y-110296239D01*
X139518444Y-110498414D01*
X139614951Y-110687820D01*
X139739890Y-110859786D01*
X139890213Y-111010109D01*
X140062182Y-111135050D01*
X140070946Y-111139516D01*
X140121742Y-111187491D01*
X140138536Y-111255312D01*
X140115998Y-111321447D01*
X140070946Y-111360484D01*
X140062182Y-111364949D01*
X139890213Y-111489890D01*
X139739890Y-111640213D01*
X139614951Y-111812179D01*
X139518444Y-112001585D01*
X139452753Y-112203760D01*
X139419500Y-112413713D01*
X139419500Y-112626286D01*
X139452753Y-112836239D01*
X139518444Y-113038414D01*
X139614951Y-113227820D01*
X139739890Y-113399786D01*
X139890213Y-113550109D01*
X140062179Y-113675048D01*
X140062181Y-113675049D01*
X140062184Y-113675051D01*
X140071493Y-113679794D01*
X140122290Y-113727766D01*
X140139087Y-113795587D01*
X140116552Y-113861722D01*
X140071505Y-113900760D01*
X140062446Y-113905376D01*
X140062440Y-113905380D01*
X140008282Y-113944727D01*
X140008282Y-113944728D01*
X140640591Y-114577037D01*
X140577007Y-114594075D01*
X140462993Y-114659901D01*
X140369901Y-114752993D01*
X140304075Y-114867007D01*
X140287037Y-114930591D01*
X139654728Y-114298282D01*
X139654727Y-114298282D01*
X139615380Y-114352439D01*
X139518904Y-114541782D01*
X139453242Y-114743869D01*
X139453242Y-114743872D01*
X139420000Y-114953753D01*
X139420000Y-115166246D01*
X139453242Y-115376127D01*
X139453242Y-115376130D01*
X139518904Y-115578217D01*
X139615375Y-115767550D01*
X139654728Y-115821716D01*
X140287037Y-115189408D01*
X140304075Y-115252993D01*
X140369901Y-115367007D01*
X140462993Y-115460099D01*
X140577007Y-115525925D01*
X140640590Y-115542962D01*
X140008282Y-116175269D01*
X140008282Y-116175270D01*
X140062449Y-116214624D01*
X140251782Y-116311095D01*
X140453870Y-116376757D01*
X140663754Y-116410000D01*
X140876246Y-116410000D01*
X141086127Y-116376757D01*
X141086130Y-116376757D01*
X141288217Y-116311095D01*
X141477554Y-116214622D01*
X141531716Y-116175270D01*
X141531717Y-116175270D01*
X140899408Y-115542962D01*
X140962993Y-115525925D01*
X141077007Y-115460099D01*
X141170099Y-115367007D01*
X141235925Y-115252993D01*
X141252962Y-115189408D01*
X141885270Y-115821717D01*
X141885270Y-115821716D01*
X141924622Y-115767554D01*
X142021095Y-115578217D01*
X142086757Y-115376130D01*
X142086757Y-115376127D01*
X142120000Y-115166246D01*
X142120000Y-114953753D01*
X142086757Y-114743872D01*
X142086757Y-114743869D01*
X142021095Y-114541782D01*
X141924624Y-114352449D01*
X141885270Y-114298282D01*
X141885269Y-114298282D01*
X141252962Y-114930590D01*
X141235925Y-114867007D01*
X141170099Y-114752993D01*
X141077007Y-114659901D01*
X140962993Y-114594075D01*
X140899409Y-114577037D01*
X141531716Y-113944728D01*
X141477547Y-113905373D01*
X141477547Y-113905372D01*
X141468500Y-113900763D01*
X141417706Y-113852788D01*
X141400912Y-113784966D01*
X141423451Y-113718832D01*
X141468508Y-113679793D01*
X141477816Y-113675051D01*
X141557007Y-113617515D01*
X141649786Y-113550109D01*
X141649788Y-113550106D01*
X141649792Y-113550104D01*
X141800104Y-113399792D01*
X141800106Y-113399788D01*
X141800109Y-113399786D01*
X141925048Y-113227820D01*
X141925047Y-113227820D01*
X141925051Y-113227816D01*
X142021557Y-113038412D01*
X142087246Y-112836243D01*
X142120500Y-112626287D01*
X142120500Y-112413713D01*
X142087246Y-112203757D01*
X142021557Y-112001588D01*
X141925051Y-111812184D01*
X141925049Y-111812181D01*
X141925048Y-111812179D01*
X141800109Y-111640213D01*
X141649786Y-111489890D01*
X141477820Y-111364951D01*
X141477115Y-111364591D01*
X141469054Y-111360485D01*
X141418259Y-111312512D01*
X141401463Y-111244692D01*
X141423999Y-111178556D01*
X141469054Y-111139515D01*
X141477816Y-111135051D01*
X141499789Y-111119086D01*
X141649786Y-111010109D01*
X141649788Y-111010106D01*
X141649792Y-111010104D01*
X141800104Y-110859792D01*
X141800106Y-110859788D01*
X141800109Y-110859786D01*
X141925048Y-110687820D01*
X141925047Y-110687820D01*
X141925051Y-110687816D01*
X142021557Y-110498412D01*
X142087246Y-110296243D01*
X142120500Y-110086287D01*
X142120500Y-109873713D01*
X142087246Y-109663757D01*
X142021557Y-109461588D01*
X141925051Y-109272184D01*
X141925049Y-109272181D01*
X141925048Y-109272179D01*
X141800109Y-109100213D01*
X141686569Y-108986673D01*
X141653084Y-108925350D01*
X141658068Y-108855658D01*
X141699940Y-108799725D01*
X141730915Y-108782810D01*
X141862331Y-108733796D01*
X141977546Y-108647546D01*
X142063796Y-108532331D01*
X142114091Y-108397483D01*
X142120500Y-108337873D01*
X142120499Y-106542128D01*
X142114091Y-106482517D01*
X142095016Y-106431375D01*
X142063797Y-106347671D01*
X142063793Y-106347664D01*
X141977547Y-106232455D01*
X141977544Y-106232452D01*
X141862335Y-106146206D01*
X141862328Y-106146202D01*
X141727482Y-106095908D01*
X141727483Y-106095908D01*
X141667883Y-106089501D01*
X141667881Y-106089500D01*
X141667873Y-106089500D01*
X141667864Y-106089500D01*
X139872129Y-106089500D01*
X139872123Y-106089501D01*
X139812516Y-106095908D01*
X139677671Y-106146202D01*
X139677664Y-106146206D01*
X139562455Y-106232452D01*
X139562452Y-106232455D01*
X139476206Y-106347664D01*
X139476202Y-106347671D01*
X139425908Y-106482517D01*
X139422603Y-106513262D01*
X139419501Y-106542123D01*
X139419500Y-106542135D01*
X131273344Y-106542135D01*
X131243666Y-106431375D01*
X131172508Y-106308125D01*
X131071875Y-106207492D01*
X131071874Y-106207491D01*
X131071871Y-106207489D01*
X130948627Y-106136335D01*
X130948626Y-106136334D01*
X130948625Y-106136334D01*
X130811158Y-106099500D01*
X130668842Y-106099500D01*
X130531375Y-106136334D01*
X130531372Y-106136335D01*
X130408128Y-106207489D01*
X130408123Y-106207493D01*
X130307493Y-106308123D01*
X130307489Y-106308128D01*
X130236335Y-106431372D01*
X130236335Y-106431373D01*
X130236334Y-106431375D01*
X130199500Y-106568842D01*
X108355557Y-106568842D01*
X108488386Y-106248164D01*
X108593930Y-105900233D01*
X108593932Y-105900223D01*
X108593935Y-105900212D01*
X108664862Y-105543630D01*
X108700500Y-105181790D01*
X108700500Y-104818209D01*
X108680313Y-104613250D01*
X108664862Y-104456369D01*
X108593935Y-104099787D01*
X108593932Y-104099776D01*
X108593931Y-104099773D01*
X108593930Y-104099767D01*
X108488386Y-103751836D01*
X108349247Y-103415924D01*
X108177853Y-103095268D01*
X107975854Y-102792956D01*
X107745197Y-102511899D01*
X107745196Y-102511898D01*
X107745192Y-102511893D01*
X107488106Y-102254807D01*
X107207049Y-102024150D01*
X107207048Y-102024149D01*
X107207044Y-102024146D01*
X106904732Y-101822147D01*
X106904727Y-101822144D01*
X106904720Y-101822140D01*
X106584083Y-101650756D01*
X106584078Y-101650754D01*
X106248165Y-101511614D01*
X105900223Y-101406067D01*
X105900212Y-101406064D01*
X105543630Y-101335137D01*
X105271111Y-101308296D01*
X105181794Y-101299500D01*
X104818206Y-101299500D01*
X104735679Y-101307628D01*
X104456369Y-101335137D01*
X104099787Y-101406064D01*
X104099776Y-101406067D01*
X103751834Y-101511614D01*
X103415921Y-101650754D01*
X103415916Y-101650756D01*
X103095279Y-101822140D01*
X103095261Y-101822151D01*
X102792964Y-102024140D01*
X102792950Y-102024150D01*
X102511893Y-102254807D01*
X102254807Y-102511893D01*
X102024150Y-102792950D01*
X102024140Y-102792964D01*
X101822151Y-103095261D01*
X101822140Y-103095279D01*
X101650756Y-103415916D01*
X101650754Y-103415921D01*
X101511614Y-103751834D01*
X101406067Y-104099776D01*
X101406064Y-104099787D01*
X101335137Y-104456369D01*
X101299500Y-104818209D01*
X100508437Y-104818209D01*
X100508806Y-104809753D01*
X100508806Y-104809752D01*
X100517386Y-104613228D01*
X100518326Y-104602495D01*
X100568152Y-104224025D01*
X100570025Y-104213405D01*
X100652649Y-103840709D01*
X100655440Y-103830295D01*
X100770230Y-103466227D01*
X100773917Y-103456095D01*
X100920003Y-103103412D01*
X100924561Y-103093638D01*
X101100822Y-102755045D01*
X101106217Y-102745700D01*
X101311325Y-102423744D01*
X101317515Y-102414905D01*
X101549896Y-102112060D01*
X101556834Y-102103791D01*
X101814726Y-101822352D01*
X101822352Y-101814726D01*
X102103791Y-101556834D01*
X102112060Y-101549896D01*
X102414905Y-101317515D01*
X102423744Y-101311325D01*
X102745700Y-101106217D01*
X102755045Y-101100822D01*
X103093638Y-100924561D01*
X103103412Y-100920003D01*
X103456095Y-100773917D01*
X103466227Y-100770230D01*
X103830295Y-100655440D01*
X103840709Y-100652649D01*
X104213405Y-100570025D01*
X104224025Y-100568152D01*
X104602495Y-100518326D01*
X104613226Y-100517386D01*
X104997297Y-100500617D01*
X105002706Y-100500500D01*
X105065892Y-100500500D01*
X144934108Y-100500500D01*
X144997294Y-100500500D01*
X145002702Y-100500617D01*
G37*
%TD.AperFunction*%
%TD*%
M02*
